{
.appVersion = "1246";
DisplayStrings = (
"HOabefgimvnorstuv.,/acutecomb",
"abefgimnorstuv.,",
o,
HOabefgimnorstuv
);
classes = (
{
automatic = 1;

glyphs = (
{
color = 3;
glyphname = A;
lastChange = "2019-07-23 14:13:44 +0000";
layers = (
{
anchors = (
{
name = bottom;
position = "{359, 0}";
},
{
name = ogonek;
position = "{682, 0}";
},
{
name = top;
position = "{359, 705}";
}
);
background = {
anchors = (
{
name = bottom;
position = "{359, 0}";
},
{
name = ogonek;
position = "{682, 0}";
},
{
name = top;
position = "{359, 705}";
}
);
paths = (
{
closed = 1;
nodes = (
"681 0 LINE",
"378 705 LINE",
"338 705 LINE",
"35 0 LINE",
"81 0 LINE",
"169 204 LINE",
"141 195 LINE",
"577 195 LINE",
"549 204 LINE",
"636 0 LINE"
);
},
{
closed = 1;
nodes = (
"372 680 LINE",
"345 680 LINE",
"538 228 LINE",
"560 234 LINE",
"158 234 LINE",
"179 228 LINE"
);
}
);
};
layerId = "F1F93986-3ED8-4AAE-84C4-CA3EEECDDFA0";
paths = (
{
closed = 1;
nodes = (
"681 0 LINE",
"378 705 LINE",
"338 705 LINE",
"35 0 LINE",
"81 0 LINE",
"169 204 LINE",
"141 195 LINE",
"577 195 LINE",
"549 204 LINE",
"636 0 LINE"
);
},
{
closed = 1;
nodes = (
"372 680 LINE",
"345 680 LINE",
"538 228 LINE",
"560 234 LINE",
"158 234 LINE",
"179 228 LINE"
);
}
);
width = 716;
},
{
anchors = (
{
name = bottom;
position = "{359, 0}";
},
{
name = ogonek;
position = "{682, 0}";
},
{
name = top;
position = "{359, 705}";
}
);
background = {
anchors = (
{
name = bottom;
position = "{359, 0}";
},
{
name = ogonek;
position = "{682, 0}";
},
{
name = top;
position = "{359, 705}";
}
);
paths = (
{
closed = 1;
nodes = (
"681 0 LINE",
"378 705 LINE",
"338 705 LINE",
"35 0 LINE",
"81 0 LINE",
"169 204 LINE",
"141 195 LINE",
"577 195 LINE",
"549 204 LINE",
"636 0 LINE"
);
},
{
closed = 1;
nodes = (
"372 680 LINE",
"345 680 LINE",
"538 228 LINE",
"560 234 LINE",
"158 234 LINE",
"179 228 LINE"
);
}
);
};
layerId = "B0DFB0A8-5D2F-4351-A1F8-6629D0DA694C";
paths = (
{
closed = 1;
nodes = (
"681 0 LINE",
"378 705 LINE",
"338 705 LINE",
"35 0 LINE",
"81 0 LINE",
"169 204 LINE",
"141 195 LINE",
"577 195 LINE",
"549 204 LINE",
"636 0 LINE"
);
},
{
closed = 1;
nodes = (
"372 680 LINE",
"345 680 LINE",
"538 228 LINE",
"560 234 LINE",
"158 234 LINE",
"179 228 LINE"
);
}
);
width = 716;
}
);
leftKerningGroup = A;
rightKerningGroup = A;
unicode = 0041;
userData = {
anchors = (
);
b = {
};
com.typemytype.robofont.layerData = {
b = {
anchors = (
);
components = (
);
contours = (
{
points = (
{
segmentType = line;
smooth = 0;
x = 403;
y = 502;
},
{
segmentType = line;
smooth = 0;
x = 703;
y = 1275;
},
{
segmentType = line;
smooth = 0;
x = 705;
y = 1275;
},
{
segmentType = line;
smooth = 0;
x = 1004;
y = 502;
}
);
},
{
points = (
{
segmentType = curve;
smooth = 1;
x = 150;
y = 0;
},
{
smooth = 0;
x = 181;
y = 0;
},
{
smooth = 0;
x = 214;
y = 15;
},
{
segmentType = curve;
smooth = 1;
x = 229;
y = 53;
},
{
segmentType = line;
smooth = 0;
x = 356;
y = 373;
},
{
segmentType = line;
smooth = 0;
x = 1051;
y = 373;
},
{
segmentType = line;
smooth = 1;
x = 1179;
y = 53;
},
{
smooth = 0;
x = 1193;
y = 17;
},
{
smooth = 0;
x = 1228;
y = 0;
},
{
segmentType = curve;
smooth = 1;
x = 1260;
y = 0;
},
{
smooth = 0;
x = 1306;
y = 0;
},
{
smooth = 0;
x = 1354;
y = 31;
},
{
segmentType = curve;
smooth = 1;
x = 1354;
y = 80;
},
{
smooth = 0;
x = 1354;
y = 87;
},
{
smooth = 0;
x = 1352;
y = 97;
},
{
segmentType = curve;
smooth = 0;
x = 1349;
y = 108;
},
{
segmentType = line;
smooth = 1;
x = 871;
y = 1288;
},
{
smooth = 0;
x = 817;
y = 1420;
},
{
smooth = 0;
x = 777;
y = 1430;
},
{
segmentType = curve;
smooth = 1;
x = 710;
y = 1430;
},
{
smooth = 0;
x = 644;
y = 1430;
},
{
smooth = 0;
x = 596;
y = 1413;
},
{
segmentType = curve;
smooth = 1;
x = 542;
y = 1280;
},
{
segmentType = line;
smooth = 1;
x = 66;
y = 108;
},
{
smooth = 0;
x = 62;
y = 97;
},
{
smooth = 0;
x = 60;
y = 87;
},
{
segmentType = curve;
smooth = 1;
x = 60;
y = 78;
},
{
smooth = 0;
x = 60;
y = 32;
},
{
smooth = 0;
x = 106;
y = 0;
}
);
}
);
lib = {
};
name = A;
unicodes = (
);
width = 1414;
};
};
components = (
);
contours = {
};
lib = {
};
name = A;
points = {
};
segmentType = line;
unicodes = (
);
width = 1445;
x = 718;
y = 1232;
};
},
{
color = 3;
glyphname = AE;
lastChange = "2019-07-23 14:13:44 +0000";
layers = (
{
anchors = (
{
name = bottom;
position = "{487, 0}";
},
{
name = top;
position = "{486, 705}";
}
);
background = {
anchors = (
{
name = bottom;
position = "{487, 0}";
},
{
name = top;
position = "{486, 705}";
}
);
paths = (
{
closed = 1;
nodes = (
"921 705 LINE",
"422 705 LINE",
"2 0 LINE",
"49 0 LINE",
"172 208 LINE",
"143 195 LINE",
"548 195 LINE",
"527 207 LINE",
"570 0 LINE",
"921 0 LINE",
"921 39 LINE",
"586 39 LINE",
"607 20 LINE",
"538 348 LINE",
"515 338 LINE",
"901 338 LINE",
"901 377 LINE",
"507 377 LINE",
"534 366 LINE",
"466 690 LINE",
"459 666 LINE",
"921 666 LINE"
);
},
{
closed = 1;
nodes = (
"450 676 LINE",
"428 676 LINE",
"523 225 LINE",
"530 234 LINE",
"153 234 LINE",
"182 225 LINE"
);
}
);
};
guideLines = (
{
angle = 101.863;
position = "{499, 338}";
}
);
layerId = "F1F93986-3ED8-4AAE-84C4-CA3EEECDDFA0";
paths = (
{
closed = 1;
nodes = (
"921 705 LINE",
"422 705 LINE",
"2 0 LINE",
"49 0 LINE",
"172 208 LINE",
"143 195 LINE",
"548 195 LINE",
"527 207 LINE",
"570 0 LINE",
"921 0 LINE",
"921 39 LINE",
"586 39 LINE",
"607 20 LINE",
"538 348 LINE",
"515 338 LINE",
"901 338 LINE",
"901 377 LINE",
"507 377 LINE",
"534 366 LINE",
"466 690 LINE",
"459 666 LINE",
"921 666 LINE"
);
},
{
closed = 1;
nodes = (
"450 676 LINE",
"428 676 LINE",
"523 225 LINE",
"530 234 LINE",
"153 234 LINE",
"182 225 LINE"
);
}
);
width = 971;
},
{
anchors = (
{
name = bottom;
position = "{487, 0}";
},
{
name = top;
position = "{486, 705}";
}
);
background = {
anchors = (
{
name = bottom;
position = "{487, 0}";
},
{
name = top;
position = "{486, 705}";
}
);
paths = (
{
closed = 1;
nodes = (
"921 705 LINE",
"422 705 LINE",
"2 0 LINE",
"49 0 LINE",
"172 208 LINE",
"143 195 LINE",
"548 195 LINE",
"527 207 LINE",
"570 0 LINE",
"921 0 LINE",
"921 39 LINE",
"586 39 LINE",
"607 20 LINE",
"538 348 LINE",
"515 338 LINE",
"901 338 LINE",
"901 377 LINE",
"507 377 LINE",
"534 366 LINE",
"466 690 LINE",
"459 666 LINE",
"921 666 LINE"
);
},
{
closed = 1;
nodes = (
"450 676 LINE",
"428 676 LINE",
"523 225 LINE",
"530 234 LINE",
"153 234 LINE",
"182 225 LINE"
);
}
);
};
guideLines = (
{
angle = 101.863;
position = "{499, 338}";
}
);
layerId = "B0DFB0A8-5D2F-4351-A1F8-6629D0DA694C";
paths = (
{
closed = 1;
nodes = (
"921 705 LINE",
"422 705 LINE",
"2 0 LINE",
"49 0 LINE",
"172 208 LINE",
"143 195 LINE",
"548 195 LINE",
"527 207 LINE",
"570 0 LINE",
"921 0 LINE",
"921 39 LINE",
"586 39 LINE",
"607 20 LINE",
"538 348 LINE",
"515 338 LINE",
"901 338 LINE",
"901 377 LINE",
"507 377 LINE",
"534 366 LINE",
"466 690 LINE",
"459 666 LINE",
"921 666 LINE"
);
},
{
closed = 1;
nodes = (
"450 676 LINE",
"428 676 LINE",
"523 225 LINE",
"530 234 LINE",
"153 234 LINE",
"182 225 LINE"
);
}
);
width = 971;
}
);
leftKerningGroup = A;
rightKerningGroup = E;
rightMetricsKey = E;
unicode = 00C6;
userData = {
com.typemytype.robofont.layerData = {
b = {
anchors = (
);
components = (
);
contours = (
);
lib = {
};
name = AE;
unicodes = (
);
width = 1976;
};
};
};
},
{
color = 3;
glyphname = B;
lastChange = "2019-07-24 09:48:34 +0000";
layers = (
{
anchors = (
{
name = bottom;
position = "{337, 0}";
},
{
name = top;
position = "{336, 705}";
}
);
background = {
anchors = (
{
name = bottom;
position = "{337, 0}";
},
{
name = top;
position = "{336, 705}";
}
);
paths = (
{
closed = 1;
nodes = (
"524 372 OFFCURVE",
"579 431 OFFCURVE",
"579 520 CURVE SMOOTH",
"579 641 OFFCURVE",
"498 705 OFFCURVE",
"356 705 CURVE SMOOTH",
"96 705 LINE",
"96 0 LINE",
"367 0 LINE SMOOTH",
"513 0 OFFCURVE",
"595 65 OFFCURVE",
"595 191 CURVE SMOOTH",
"595 292 OFFCURVE",
"535 357 OFFCURVE",
"433 367 CURVE",
"433 353 LINE"
);
},
{
closed = 1;
nodes = (
"475 666 OFFCURVE",
"535 619 OFFCURVE",
"535 526 CURVE SMOOTH",
"535 430 OFFCURVE",
"471 376 OFFCURVE",
"351 376 CURVE SMOOTH",
"138 376 LINE",
"138 666 LINE",
"351 666 LINE SMOOTH"
);
},
{
closed = 1;
nodes = (
"138 39 LINE",
"138 338 LINE",
"366 338 LINE SMOOTH",
"489 338 OFFCURVE",
"551 286 OFFCURVE",
"551 186 CURVE SMOOTH",
"551 86 OFFCURVE",
"491 39 OFFCURVE",
"366 39 CURVE SMOOTH"
);
}
);
};
layerId = "F1F93986-3ED8-4AAE-84C4-CA3EEECDDFA0";
paths = (
{
closed = 1;
nodes = (
"524 372 OFFCURVE",
"579 431 OFFCURVE",
"579 520 CURVE SMOOTH",
"579 641 OFFCURVE",
"498 705 OFFCURVE",
"356 705 CURVE SMOOTH",
"96 705 LINE",
"96 0 LINE",
"367 0 LINE SMOOTH",
"513 0 OFFCURVE",
"595 65 OFFCURVE",
"595 191 CURVE SMOOTH",
"595 292 OFFCURVE",
"535 357 OFFCURVE",
"433 367 CURVE",
"433 353 LINE"
);
},
{
closed = 1;
nodes = (
"475 666 OFFCURVE",
"535 619 OFFCURVE",
"535 526 CURVE SMOOTH",
"535 430 OFFCURVE",
"471 376 OFFCURVE",
"351 376 CURVE SMOOTH",
"138 376 LINE",
"138 666 LINE",
"351 666 LINE SMOOTH"
);
},
{
closed = 1;
nodes = (
"138 39 LINE",
"138 338 LINE",
"366 338 LINE SMOOTH",
"489 338 OFFCURVE",
"551 286 OFFCURVE",
"551 186 CURVE SMOOTH",
"551 86 OFFCURVE",
"491 39 OFFCURVE",
"366 39 CURVE SMOOTH"
);
}
);
width = 666;
},
{
anchors = (
{
name = bottom;
position = "{353, 0}";
},
{
name = top;
position = "{352, 705}";
}
);
background = {
anchors = (
{
name = bottom;
position = "{353, 0}";
},
{
name = top;
position = "{352, 705}";
}
);
paths = (
{
closed = 1;
nodes = (
"540 372 OFFCURVE",
"595 431 OFFCURVE",
"595 520 CURVE SMOOTH",
"595 641 OFFCURVE",
"514 705 OFFCURVE",
"372 705 CURVE SMOOTH",
"112 705 LINE",
"112 0 LINE",
"383 0 LINE SMOOTH",
"529 0 OFFCURVE",
"611 65 OFFCURVE",
"611 191 CURVE SMOOTH",
"611 292 OFFCURVE",
"551 357 OFFCURVE",
"449 367 CURVE",
"449 353 LINE"
);
},
{
closed = 1;
nodes = (
"491 666 OFFCURVE",
"551 619 OFFCURVE",
"551 526 CURVE SMOOTH",
"551 430 OFFCURVE",
"487 376 OFFCURVE",
"367 376 CURVE SMOOTH",
"154 376 LINE",
"154 666 LINE",
"367 666 LINE SMOOTH"
);
},
{
closed = 1;
nodes = (
"154 39 LINE",
"154 338 LINE",
"382 338 LINE SMOOTH",
"505 338 OFFCURVE",
"567 286 OFFCURVE",
"567 186 CURVE SMOOTH",
"567 86 OFFCURVE",
"507 39 OFFCURVE",
"382 39 CURVE SMOOTH"
);
}
);
};
layerId = "B0DFB0A8-5D2F-4351-A1F8-6629D0DA694C";
paths = (
{
closed = 1;
nodes = (
"540 372 OFFCURVE",
"595 431 OFFCURVE",
"595 520 CURVE SMOOTH",
"595 641 OFFCURVE",
"514 705 OFFCURVE",
"372 705 CURVE SMOOTH",
"112 705 LINE",
"112 0 LINE",
"383 0 LINE SMOOTH",
"529 0 OFFCURVE",
"611 65 OFFCURVE",
"611 191 CURVE SMOOTH",
"611 292 OFFCURVE",
"551 357 OFFCURVE",
"449 367 CURVE",
"449 353 LINE"
);
},
{
closed = 1;
nodes = (
"491 666 OFFCURVE",
"551 619 OFFCURVE",
"551 526 CURVE SMOOTH",
"551 430 OFFCURVE",
"487 376 OFFCURVE",
"367 376 CURVE SMOOTH",
"154 376 LINE",
"154 666 LINE",
"367 666 LINE SMOOTH"
);
},
{
closed = 1;
nodes = (
"154 39 LINE",
"154 338 LINE",
"382 338 LINE SMOOTH",
"505 338 OFFCURVE",
"567 286 OFFCURVE",
"567 186 CURVE SMOOTH",
"567 86 OFFCURVE",
"507 39 OFFCURVE",
"382 39 CURVE SMOOTH"
);
}
);
width = 682;
}
);
leftKerningGroup = H;
leftMetricsKey = H;
rightKerningGroup = B;
unicode = 0042;
userData = {
anchors = (
);
b = {
};
com.typemytype.robofont.layerData = {
b = {
anchors = (
);
components = (
);
contours = (
{
points = (
{
segmentType = curve;
smooth = 1;
x = 266;
y = 0;
},
{
segmentType = line;
smooth = 1;
x = 1035;
y = 0;
},
{
smooth = 0;
x = 1084;
y = 0;
},
{
smooth = 0;
x = 1108;
y = 36;
},
{
segmentType = curve;
smooth = 1;
x = 1108;
y = 73;
},
{
smooth = 0;
x = 1108;
y = 109;
},
{
smooth = 0;
x = 1084;
y = 145;
},
{
segmentType = curve;
smooth = 1;
x = 1035;
y = 145;
},
{
segmentType = line;
smooth = 0;
x = 353;
y = 145;
},
{
segmentType = line;
smooth = 0;
x = 353;
y = 662;
},
{
segmentType = line;
smooth = 1;
x = 975;
y = 662;
},
{
smooth = 0;
x = 1024;
y = 662;
},
{
smooth = 0;
x = 1049;
y = 698;
},
{
segmentType = curve;
smooth = 1;
x = 1049;
y = 734;
},
{
smooth = 0;
x = 1049;
y = 770;
},
{
smooth = 0;
x = 1026;
y = 806;
},
{
segmentType = curve;
smooth = 1;
x = 975;
y = 806;
},
{
segmentType = line;
smooth = 0;
x = 353;
y = 806;
},
{
segmentType = line;
smooth = 0;
x = 353;
y = 1281;
},
{
segmentType = line;
smooth = 1;
x = 1007;
y = 1281;
},
{
smooth = 0;
x = 1056;
y = 1281;
},
{
smooth = 0;
x = 1080;
y = 1317;
},
{
segmentType = curve;
smooth = 1;
x = 1080;
y = 1354;
},
{
smooth = 0;
x = 1080;
y = 1390;
},
{
smooth = 0;
x = 1056;
y = 1426;
},
{
segmentType = curve;
smooth = 1;
x = 1007;
y = 1426;
},
{
segmentType = line;
smooth = 1;
x = 261;
y = 1426;
},
{
smooth = 0;
x = 213;
y = 1426;
},
{
smooth = 0;
x = 178;
y = 1383;
},
{
segmentType = curve;
smooth = 1;
x = 178;
y = 1340;
},
{
segmentType = line;
smooth = 1;
x = 178;
y = 86;
},
{
smooth = 0;
x = 178;
y = 41;
},
{
smooth = 0;
x = 222;
y = 0;
}
);
}
);
lib = {
};
name = B;
unicodes = (
);
width = 1292;
};
};
components = (
);
contours = {
};
lib = {
};
name = B;
points = {
};
segmentType = curve;
unicodes = (
);
width = 1395;
x = 676;
y = 1260;
};
},
{
color = 3;
glyphname = C;
lastChange = "2019-07-24 09:48:34 +0000";
layers = (
{
anchors = (
{
name = bottom;
position = "{380, 0}";
},
{
name = top;
position = "{382, 705}";
}
);
background = {
anchors = (
{
name = bottom;
position = "{380, 0}";
},
{
name = top;
position = "{382, 705}";
}
);
paths = (
{
closed = 1;
nodes = (
"479 -8 OFFCURVE",
"560 24 OFFCURVE",
"621 87 CURVE",
"600 122 LINE",
"534 59 OFFCURVE",
"468 33 OFFCURVE",
"380 33 CURVE SMOOTH",
"209 33 OFFCURVE",
"111 150 OFFCURVE",
"111 353 CURVE SMOOTH",
"111 555 OFFCURVE",
"210 672 OFFCURVE",
"380 672 CURVE SMOOTH",
"468 672 OFFCURVE",
"534 646 OFFCURVE",
"600 583 CURVE",
"621 618 LINE",
"560 681 OFFCURVE",
"479 713 OFFCURVE",
"381 713 CURVE SMOOTH",
"185 713 OFFCURVE",
"67 577 OFFCURVE",
"67 353 CURVE SMOOTH",
"67 128 OFFCURVE",
"186 -8 OFFCURVE",
"381 -8 CURVE SMOOTH"
);
}
);
};
layerId = "F1F93986-3ED8-4AAE-84C4-CA3EEECDDFA0";
paths = (
{
closed = 1;
nodes = (
"479 -8 OFFCURVE",
"560 24 OFFCURVE",
"621 87 CURVE",
"600 122 LINE",
"534 59 OFFCURVE",
"468 33 OFFCURVE",
"380 33 CURVE SMOOTH",
"209 33 OFFCURVE",
"111 150 OFFCURVE",
"111 353 CURVE SMOOTH",
"111 555 OFFCURVE",
"210 672 OFFCURVE",
"380 672 CURVE SMOOTH",
"468 672 OFFCURVE",
"534 646 OFFCURVE",
"600 583 CURVE",
"621 618 LINE",
"560 681 OFFCURVE",
"479 713 OFFCURVE",
"381 713 CURVE SMOOTH",
"185 713 OFFCURVE",
"67 577 OFFCURVE",
"67 353 CURVE SMOOTH",
"67 128 OFFCURVE",
"186 -8 OFFCURVE",
"381 -8 CURVE SMOOTH"
);
}
);
width = 675;
},
{
anchors = (
{
name = bottom;
position = "{396, 0}";
},
{
name = top;
position = "{398, 705}";
}
);
background = {
anchors = (
{
name = bottom;
position = "{396, 0}";
},
{
name = top;
position = "{398, 705}";
}
);
paths = (
{
closed = 1;
nodes = (
"495 -8 OFFCURVE",
"576 24 OFFCURVE",
"637 87 CURVE",
"616 122 LINE",
"550 59 OFFCURVE",
"484 33 OFFCURVE",
"396 33 CURVE SMOOTH",
"225 33 OFFCURVE",
"127 150 OFFCURVE",
"127 353 CURVE SMOOTH",
"127 555 OFFCURVE",
"226 672 OFFCURVE",
"396 672 CURVE SMOOTH",
"484 672 OFFCURVE",
"550 646 OFFCURVE",
"616 583 CURVE",
"637 618 LINE",
"576 681 OFFCURVE",
"495 713 OFFCURVE",
"397 713 CURVE SMOOTH",
"201 713 OFFCURVE",
"83 577 OFFCURVE",
"83 353 CURVE SMOOTH",
"83 128 OFFCURVE",
"202 -8 OFFCURVE",
"397 -8 CURVE SMOOTH"
);
}
);
};
layerId = "B0DFB0A8-5D2F-4351-A1F8-6629D0DA694C";
paths = (
{
closed = 1;
nodes = (
"495 -8 OFFCURVE",
"576 24 OFFCURVE",
"637 87 CURVE",
"616 122 LINE",
"550 59 OFFCURVE",
"484 33 OFFCURVE",
"396 33 CURVE SMOOTH",
"225 33 OFFCURVE",
"127 150 OFFCURVE",
"127 353 CURVE SMOOTH",
"127 555 OFFCURVE",
"226 672 OFFCURVE",
"396 672 CURVE SMOOTH",
"484 672 OFFCURVE",
"550 646 OFFCURVE",
"616 583 CURVE",
"637 618 LINE",
"576 681 OFFCURVE",
"495 713 OFFCURVE",
"397 713 CURVE SMOOTH",
"201 713 OFFCURVE",
"83 577 OFFCURVE",
"83 353 CURVE SMOOTH",
"83 128 OFFCURVE",
"202 -8 OFFCURVE",
"397 -8 CURVE SMOOTH"
);
}
);
width = 691;
}
);
leftKerningGroup = O;
leftMetricsKey = O;
rightKerningGroup = C;
unicode = 0043;
userData = {
anchors = (
);
b = {
};
com.typemytype.robofont.layerData = {
b = {
anchors = (
);
components = (
);
contours = (
);
lib = {
};
name = C;
unicodes = (
);
width = 1353.89001;
};
};
components = (
);
contours = (
);
lib = {
};
name = C;
unicodes = (
);
width = 1354;
};
},
{
color = 3;
glyphname = D;
lastChange = "2019-07-24 09:48:34 +0000";
layers = (
{
anchors = (
{
name = bottom;
position = "{363, 0}";
},
{
name = center;
position = "{173, 358}";
},
{
name = top;
position = "{362, 705}";
}
);
background = {
anchors = (
{
name = bottom;
position = "{363, 0}";
},
{
name = center;
position = "{173, 358}";
},
{
name = top;
position = "{362, 705}";
}
);
paths = (
{
closed = 1;
nodes = (
"313 0 LINE SMOOTH",
"533 0 OFFCURVE",
"658 127 OFFCURVE",
"658 353 CURVE SMOOTH",
"658 579 OFFCURVE",
"535 705 OFFCURVE",
"313 705 CURVE SMOOTH",
"96 705 LINE",
"96 0 LINE"
);
},
{
closed = 1;
nodes = (
"138 666 LINE",
"312 666 LINE SMOOTH",
"512 666 OFFCURVE",
"613 561 OFFCURVE",
"613 353 CURVE SMOOTH",
"613 145 OFFCURVE",
"511 39 OFFCURVE",
"312 39 CURVE SMOOTH",
"138 39 LINE"
);
}
);
};
layerId = "F1F93986-3ED8-4AAE-84C4-CA3EEECDDFA0";
paths = (
{
closed = 1;
nodes = (
"313 0 LINE SMOOTH",
"533 0 OFFCURVE",
"658 127 OFFCURVE",
"658 353 CURVE SMOOTH",
"658 579 OFFCURVE",
"535 705 OFFCURVE",
"313 705 CURVE SMOOTH",
"96 705 LINE",
"96 0 LINE"
);
},
{
closed = 1;
nodes = (
"138 666 LINE",
"312 666 LINE SMOOTH",
"512 666 OFFCURVE",
"613 561 OFFCURVE",
"613 353 CURVE SMOOTH",
"613 145 OFFCURVE",
"511 39 OFFCURVE",
"312 39 CURVE SMOOTH",
"138 39 LINE"
);
}
);
width = 725;
},
{
anchors = (
{
name = bottom;
position = "{379, 0}";
},
{
name = center;
position = "{189, 358}";
},
{
name = top;
position = "{378, 705}";
}
);
background = {
anchors = (
{
name = bottom;
position = "{379, 0}";
},
{
name = center;
position = "{189, 358}";
},
{
name = top;
position = "{378, 705}";
}
);
paths = (
{
closed = 1;
nodes = (
"329 0 LINE SMOOTH",
"549 0 OFFCURVE",
"674 127 OFFCURVE",
"674 353 CURVE SMOOTH",
"674 579 OFFCURVE",
"551 705 OFFCURVE",
"329 705 CURVE SMOOTH",
"112 705 LINE",
"112 0 LINE"
);
},
{
closed = 1;
nodes = (
"154 666 LINE",
"328 666 LINE SMOOTH",
"528 666 OFFCURVE",
"629 561 OFFCURVE",
"629 353 CURVE SMOOTH",
"629 145 OFFCURVE",
"527 39 OFFCURVE",
"328 39 CURVE SMOOTH",
"154 39 LINE"
);
}
);
};
layerId = "B0DFB0A8-5D2F-4351-A1F8-6629D0DA694C";
paths = (
{
closed = 1;
nodes = (
"329 0 LINE SMOOTH",
"549 0 OFFCURVE",
"674 127 OFFCURVE",
"674 353 CURVE SMOOTH",
"674 579 OFFCURVE",
"551 705 OFFCURVE",
"329 705 CURVE SMOOTH",
"112 705 LINE",
"112 0 LINE"
);
},
{
closed = 1;
nodes = (
"154 666 LINE",
"328 666 LINE SMOOTH",
"528 666 OFFCURVE",
"629 561 OFFCURVE",
"629 353 CURVE SMOOTH",
"629 145 OFFCURVE",
"527 39 OFFCURVE",
"328 39 CURVE SMOOTH",
"154 39 LINE"
);
}
);
width = 757;
}
);
leftKerningGroup = H;
leftMetricsKey = H;
rightKerningGroup = O;
rightMetricsKey = O;
unicode = 0044;
userData = {
anchors = (
);
b = {
};
com.typemytype.robofont.layerData = {
b = {
anchors = (
);
components = (
);
contours = (
{
points = (
{
segmentType = curve;
smooth = 1;
x = 266;
y = 0;
},
{
segmentType = line;
smooth = 1;
x = 1035;
y = 0;
},
{
smooth = 0;
x = 1084;
y = 0;
},
{
smooth = 0;
x = 1108;
y = 34;
},
{
segmentType = curve;
smooth = 1;
x = 1108;
y = 71;
},
{
smooth = 0;
x = 1108;
y = 107;
},
{
smooth = 0;
x = 1084;
y = 141;
},
{
segmentType = curve;
smooth = 1;
x = 1035;
y = 141;
},
{
segmentType = line;
smooth = 0;
x = 356;
y = 141;
},
{
segmentType = line;
smooth = 0;
x = 356;
y = 665;
},
{
segmentType = line;
smooth = 1;
x = 975;
y = 665;
},
{
smooth = 0;
x = 1024;
y = 665;
},
{
smooth = 0;
x = 1049;
y = 698;
},
{
segmentType = curve;
smooth = 1;
x = 1049;
y = 734;
},
{
smooth = 0;
x = 1049;
y = 770;
},
{
smooth = 0;
x = 1026;
y = 803;
},
{
segmentType = curve;
smooth = 1;
x = 975;
y = 803;
},
{
segmentType = line;
smooth = 0;
x = 356;
y = 803;
},
{
segmentType = line;
smooth = 0;
x = 356;
y = 1285;
},
{
segmentType = line;
smooth = 1;
x = 1007;
y = 1285;
},
{
smooth = 0;
x = 1056;
y = 1285;
},
{
smooth = 0;
x = 1080;
y = 1319;
},
{
segmentType = curve;
smooth = 1;
x = 1080;
y = 1356;
},
{
smooth = 0;
x = 1080;
y = 1392;
},
{
smooth = 0;
x = 1056;
y = 1426;
},
{
segmentType = curve;
smooth = 1;
x = 1007;
y = 1426;
},
{
segmentType = line;
smooth = 1;
x = 261;
y = 1426;
},
{
smooth = 0;
x = 213;
y = 1426;
},
{
smooth = 0;
x = 178;
y = 1383;
},
{
segmentType = curve;
smooth = 1;
x = 178;
y = 1340;
},
{
segmentType = line;
smooth = 1;
x = 178;
y = 86;
},
{
smooth = 0;
x = 178;
y = 41;
},
{
smooth = 0;
x = 222;
y = 0;
}
);
}
);
lib = {
};
name = D;
unicodes = (
);
width = 1499;
};
};
components = (
);
contours = (
);
lib = {
};
name = D;
unicodes = (
);
width = 1535;
};
},
{
color = 3;
glyphname = E;
lastChange = "2019-07-24 09:48:34 +0000";
layers = (
{
anchors = (
{
name = bottom;
position = "{320, 0}";
},
{
name = ogonek;
position = "{490, 0}";
},
{
name = top;
position = "{320, 705}";
},
{
name = topleft;
position = "{27, 705}";
}
);
background = {
anchors = (
{
name = bottom;
position = "{320, 0}";
},
{
name = ogonek;
position = "{490, 0}";
},
{
name = top;
position = "{320, 705}";
},
{
name = topleft;
position = "{27, 705}";
}
);
paths = (
{
closed = 1;
nodes = (
"520 705 LINE",
"96 705 LINE",
"96 0 LINE",
"520 0 LINE",
"520 39 LINE",
"138 39 LINE",
"138 338 LINE",
"500 338 LINE",
"500 377 LINE",
"138 377 LINE",
"138 666 LINE",
"520 666 LINE"
);
}
);
};
guideLines = (
{
angle = 270;
position = "{520, 353}";
}
);
layerId = "F1F93986-3ED8-4AAE-84C4-CA3EEECDDFA0";
paths = (
{
closed = 1;
nodes = (
"520 705 LINE",
"96 705 LINE",
"96 0 LINE",
"520 0 LINE",
"520 39 LINE",
"138 39 LINE",
"138 338 LINE",
"500 338 LINE",
"500 377 LINE",
"138 377 LINE",
"138 666 LINE",
"520 666 LINE"
);
}
);
width = 570;
},
{
anchors = (
{
name = bottom;
position = "{336, 0}";
},
{
name = ogonek;
position = "{506, 0}";
},
{
name = top;
position = "{336, 705}";
},
{
name = topleft;
position = "{43, 705}";
}
);
background = {
anchors = (
{
name = bottom;
position = "{336, 0}";
},
{
name = ogonek;
position = "{506, 0}";
},
{
name = top;
position = "{336, 705}";
},
{
name = topleft;
position = "{43, 705}";
}
);
paths = (
{
closed = 1;
nodes = (
"536 705 LINE",
"112 705 LINE",
"112 0 LINE",
"536 0 LINE",
"536 39 LINE",
"154 39 LINE",
"154 338 LINE",
"516 338 LINE",
"516 377 LINE",
"154 377 LINE",
"154 666 LINE",
"536 666 LINE"
);
}
);
};
guideLines = (
{
angle = 270;
position = "{536, 353}";
}
);
layerId = "B0DFB0A8-5D2F-4351-A1F8-6629D0DA694C";
paths = (
{
closed = 1;
nodes = (
"536 705 LINE",
"112 705 LINE",
"112 0 LINE",
"536 0 LINE",
"536 39 LINE",
"154 39 LINE",
"154 338 LINE",
"516 338 LINE",
"516 377 LINE",
"154 377 LINE",
"154 666 LINE",
"536 666 LINE"
);
}
);
width = 586;
}
);
leftKerningGroup = H;
leftMetricsKey = H;
rightKerningGroup = E;
unicode = 0045;
userData = {
anchors = (
);
b = {
};
com.typemytype.robofont.layerData = {
b = {
anchors = (
);
components = (
);
contours = (
);
lib = {
};
name = E;
unicodes = (
);
width = 1234;
};
};
components = (
);
contours = (
);
lib = {
};
name = E;
unicodes = (
);
width = 1258;
};
},
{
color = 3;
glyphname = F;
lastChange = "2019-07-24 09:48:34 +0000";
layers = (
{
anchors = (
{
name = bottom;
position = "{293, 0}";
},
{
name = top;
position = "{293, 705}";
}
);
background = {
anchors = (
{
name = bottom;
position = "{293, 0}";
},
{
name = top;
position = "{293, 705}";
}
);
paths = (
{
closed = 1;
nodes = (
"510 705 LINE",
"96 705 LINE",
"96 0 LINE",
"138 0 LINE",
"138 338 LINE",
"490 338 LINE",
"490 377 LINE",
"138 377 LINE",
"138 666 LINE",
"510 666 LINE"
);
}
);
};
layerId = "F1F93986-3ED8-4AAE-84C4-CA3EEECDDFA0";
paths = (
{
closed = 1;
nodes = (
"510 705 LINE",
"96 705 LINE",
"96 0 LINE",
"138 0 LINE",
"138 338 LINE",
"490 338 LINE",
"490 377 LINE",
"138 377 LINE",
"138 666 LINE",
"510 666 LINE"
);
}
);
width = 548;
},
{
anchors = (
{
name = bottom;
position = "{309, 0}";
},
{
name = top;
position = "{309, 705}";
}
);
background = {
anchors = (
{
name = bottom;
position = "{309, 0}";
},
{
name = top;
position = "{309, 705}";
}
);
paths = (
{
closed = 1;
nodes = (
"526 705 LINE",
"112 705 LINE",
"112 0 LINE",
"154 0 LINE",
"154 338 LINE",
"506 338 LINE",
"506 377 LINE",
"154 377 LINE",
"154 666 LINE",
"526 666 LINE"
);
}
);
};
layerId = "B0DFB0A8-5D2F-4351-A1F8-6629D0DA694C";
paths = (
{
closed = 1;
nodes = (
"526 705 LINE",
"112 705 LINE",
"112 0 LINE",
"154 0 LINE",
"154 338 LINE",
"506 338 LINE",
"506 377 LINE",
"154 377 LINE",
"154 666 LINE",
"526 666 LINE"
);
}
);
width = 564;
}
);
leftKerningGroup = H;
leftMetricsKey = H;
rightKerningGroup = F;
unicode = 0046;
userData = {
anchors = (
);
b = {
};
com.typemytype.robofont.layerData = {
b = {
anchors = (
);
components = (
);
contours = (
{
points = (
{
segmentType = curve;
smooth = 1;
x = 266;
y = 0;
},
{
segmentType = line;
smooth = 1;
x = 1035;
y = 0;
},
{
smooth = 0;
x = 1084;
y = 0;
},
{
smooth = 0;
x = 1108;
y = 34;
},
{
segmentType = curve;
smooth = 1;
x = 1108;
y = 71;
},
{
smooth = 0;
x = 1108;
y = 107;
},
{
smooth = 0;
x = 1084;
y = 141;
},
{
segmentType = curve;
smooth = 1;
x = 1035;
y = 141;
},
{
segmentType = line;
smooth = 0;
x = 353;
y = 141;
},
{
segmentType = line;
smooth = 0;
x = 353;
y = 665;
},
{
segmentType = line;
smooth = 1;
x = 975;
y = 665;
},
{
smooth = 0;
x = 1024;
y = 665;
},
{
smooth = 0;
x = 1049;
y = 698;
},
{
segmentType = curve;
smooth = 1;
x = 1049;
y = 734;
},
{
smooth = 0;
x = 1049;
y = 770;
},
{
smooth = 0;
x = 1026;
y = 803;
},
{
segmentType = curve;
smooth = 1;
x = 975;
y = 803;
},
{
segmentType = line;
smooth = 0;
x = 353;
y = 803;
},
{
segmentType = line;
smooth = 0;
x = 353;
y = 1285;
},
{
segmentType = line;
smooth = 1;
x = 1007;
y = 1285;
},
{
smooth = 0;
x = 1056;
y = 1285;
},
{
smooth = 0;
x = 1080;
y = 1319;
},
{
segmentType = curve;
smooth = 1;
x = 1080;
y = 1356;
},
{
smooth = 0;
x = 1080;
y = 1392;
},
{
smooth = 0;
x = 1056;
y = 1426;
},
{
segmentType = curve;
smooth = 1;
x = 1007;
y = 1426;
},
{
segmentType = line;
smooth = 1;
x = 261;
y = 1426;
},
{
smooth = 0;
x = 213;
y = 1426;
},
{
smooth = 0;
x = 178;
y = 1383;
},
{
segmentType = curve;
smooth = 1;
x = 178;
y = 1340;
},
{
segmentType = line;
smooth = 1;
x = 178;
y = 86;
},
{
smooth = 0;
x = 178;
y = 41;
},
{
smooth = 0;
x = 222;
y = 0;
}
);
}
);
lib = {
};
name = F;
unicodes = (
);
width = 1142;
};
};
components = (
);
contours = (
);
lib = {
};
name = F;
unicodes = (
);
width = 1175;
};
},
{
color = 3;
glyphname = G;
lastChange = "2019-07-24 09:48:34 +0000";
layers = (
{
anchors = (
{
name = bottom;
position = "{390, 0}";
},
{
name = top;
position = "{383, 705}";
}
);
background = {
anchors = (
{
name = bottom;
position = "{390, 0}";
},
{
name = top;
position = "{383, 705}";
}
);
paths = (
{
closed = 1;
nodes = (
"482 -8 OFFCURVE",
"579 13 OFFCURVE",
"628 40 CURVE",
"628 355 LINE",
"394 355 LINE",
"394 316 LINE",
"588 316 LINE",
"588 35 LINE",
"600 73 LINE",
"543 47 OFFCURVE",
"475 33 OFFCURVE",
"401 33 CURVE SMOOTH",
"210 33 OFFCURVE",
"111 142 OFFCURVE",
"111 353 CURVE SMOOTH",
"111 555 OFFCURVE",
"210 672 OFFCURVE",
"383 672 CURVE SMOOTH",
"473 672 OFFCURVE",
"541 644 OFFCURVE",
"602 582 CURVE",
"623 618 LINE",
"566 680 OFFCURVE",
"483 713 OFFCURVE",
"386 713 CURVE SMOOTH",
"184 713 OFFCURVE",
"67 579 OFFCURVE",
"67 353 CURVE SMOOTH",
"67 121 OFFCURVE",
"187 -8 OFFCURVE",
"402 -8 CURVE SMOOTH"
);
}
);
};
layerId = "F1F93986-3ED8-4AAE-84C4-CA3EEECDDFA0";
paths = (
{
closed = 1;
nodes = (
"482 -8 OFFCURVE",
"579 13 OFFCURVE",
"628 40 CURVE",
"628 355 LINE",
"394 355 LINE",
"394 316 LINE",
"588 316 LINE",
"588 35 LINE",
"600 73 LINE",
"543 47 OFFCURVE",
"475 33 OFFCURVE",
"401 33 CURVE SMOOTH",
"210 33 OFFCURVE",
"111 142 OFFCURVE",
"111 353 CURVE SMOOTH",
"111 555 OFFCURVE",
"210 672 OFFCURVE",
"383 672 CURVE SMOOTH",
"473 672 OFFCURVE",
"541 644 OFFCURVE",
"602 582 CURVE",
"623 618 LINE",
"566 680 OFFCURVE",
"483 713 OFFCURVE",
"386 713 CURVE SMOOTH",
"184 713 OFFCURVE",
"67 579 OFFCURVE",
"67 353 CURVE SMOOTH",
"67 121 OFFCURVE",
"187 -8 OFFCURVE",
"402 -8 CURVE SMOOTH"
);
}
);
width = 719;
},
{
anchors = (
{
name = bottom;
position = "{406, 0}";
},
{
name = top;
position = "{399, 705}";
}
);
background = {
anchors = (
{
name = bottom;
position = "{406, 0}";
},
{
name = top;
position = "{399, 705}";
}
);
paths = (
{
closed = 1;
nodes = (
"498 -8 OFFCURVE",
"595 13 OFFCURVE",
"644 40 CURVE",
"644 355 LINE",
"410 355 LINE",
"410 316 LINE",
"604 316 LINE",
"604 35 LINE",
"616 73 LINE",
"559 47 OFFCURVE",
"491 33 OFFCURVE",
"417 33 CURVE SMOOTH",
"226 33 OFFCURVE",
"127 142 OFFCURVE",
"127 353 CURVE SMOOTH",
"127 555 OFFCURVE",
"226 672 OFFCURVE",
"399 672 CURVE SMOOTH",
"489 672 OFFCURVE",
"557 644 OFFCURVE",
"618 582 CURVE",
"639 618 LINE",
"582 680 OFFCURVE",
"499 713 OFFCURVE",
"402 713 CURVE SMOOTH",
"200 713 OFFCURVE",
"83 579 OFFCURVE",
"83 353 CURVE SMOOTH",
"83 121 OFFCURVE",
"203 -8 OFFCURVE",
"418 -8 CURVE SMOOTH"
);
}
);
};
layerId = "B0DFB0A8-5D2F-4351-A1F8-6629D0DA694C";
paths = (
{
closed = 1;
nodes = (
"498 -8 OFFCURVE",
"595 13 OFFCURVE",
"644 40 CURVE",
"644 355 LINE",
"410 355 LINE",
"410 316 LINE",
"604 316 LINE",
"604 35 LINE",
"616 73 LINE",
"559 47 OFFCURVE",
"491 33 OFFCURVE",
"417 33 CURVE SMOOTH",
"226 33 OFFCURVE",
"127 142 OFFCURVE",
"127 353 CURVE SMOOTH",
"127 555 OFFCURVE",
"226 672 OFFCURVE",
"399 672 CURVE SMOOTH",
"489 672 OFFCURVE",
"557 644 OFFCURVE",
"618 582 CURVE",
"639 618 LINE",
"582 680 OFFCURVE",
"499 713 OFFCURVE",
"402 713 CURVE SMOOTH",
"200 713 OFFCURVE",
"83 579 OFFCURVE",
"83 353 CURVE SMOOTH",
"83 121 OFFCURVE",
"203 -8 OFFCURVE",
"418 -8 CURVE SMOOTH"
);
}
);
width = 735;
}
);
leftKerningGroup = O;
leftMetricsKey = O;
rightKerningGroup = G;
unicode = 0047;
userData = {
anchors = (
);
b = {
};
com.typemytype.robofont.layerData = {
b = {
anchors = (
);
components = (
);
contours = (
{
points = (
{
segmentType = curve;
smooth = 1;
x = 783;
y = "-22";
},
{
smooth = 0;
x = 965;
y = "-22";
},
{
smooth = 0;
x = 1086;
y = 34;
},
{
segmentType = curve;
smooth = 1;
x = 1166;
y = 86;
},
{
smooth = 0;
x = 1270;
y = 154;
},
{
smooth = 0;
x = 1186;
y = 258;
},
{
segmentType = curve;
smooth = 1;
x = 1112;
y = 214;
},
{
smooth = 0;
x = 1024;
y = 162;
},
{
smooth = 0;
x = 939;
y = 120;
},
{
segmentType = curve;
smooth = 1;
x = 806;
y = 120;
},
{
smooth = 0;
x = 446;
y = 120;
},
{
smooth = 0;
x = 316;
y = 406;
},
{
segmentType = curve;
smooth = 1;
x = 316;
y = 706;
},
{
smooth = 0;
x = 316;
y = 1005;
},
{
smooth = 0;
x = 450;
y = 1296;
},
{
segmentType = curve;
smooth = 1;
x = 801;
y = 1296;
},
{
smooth = 0;
x = 980;
y = 1296;
},
{
smooth = 0;
x = 1053;
y = 1246;
},
{
segmentType = curve;
smooth = 1;
x = 1094;
y = 1225;
},
{
smooth = 0;
x = 1174;
y = 1184;
},
{
smooth = 0;
x = 1231;
y = 1300;
},
{
segmentType = curve;
smooth = 1;
x = 1156;
y = 1343;
},
{
smooth = 0;
x = 1106;
y = 1372;
},
{
smooth = 0;
x = 995;
y = 1438;
},
{
segmentType = curve;
smooth = 1;
x = 797;
y = 1438;
},
{
smooth = 0;
x = 359;
y = 1438;
},
{
smooth = 0;
x = 128;
y = 1093;
},
{
segmentType = curve;
smooth = 1;
x = 128;
y = 704;
},
{
smooth = 0;
x = 128;
y = 307;
},
{
smooth = 0;
x = 350;
y = "-22";
}
);
}
);
lib = {
};
name = G;
unicodes = (
);
width = 1448;
};
};
components = (
);
contours = (
);
lib = {
};
name = G;
unicodes = (
);
width = 1538;
};
},
{
color = 4;
glyphname = H;
lastChange = "2019-07-24 09:48:12 +0000";
layers = (
{
anchors = (
{
name = bottom;
position = "{376, 0}";
},
{
name = center;
position = "{376, 546}";
},
{
name = top;
position = "{375, 705}";
},
{
name = topleft;
position = "{27, 705}";
}
);
background = {
anchors = (
{
name = bottom;
position = "{376, 0}";
},
{
name = center;
position = "{376, 546}";
},
{
name = top;
position = "{375, 705}";
},
{
name = topleft;
position = "{27, 705}";
}
);
paths = (
{
closed = 1;
nodes = (
"613 377 LINE",
"138 377 LINE",
"138 705 LINE",
"96 705 LINE",
"96 0 LINE",
"138 0 LINE",
"138 338 LINE",
"613 338 LINE",
"613 0 LINE",
"655 0 LINE",
"655 705 LINE",
"613 705 LINE"
);
}
);
};
layerId = "F1F93986-3ED8-4AAE-84C4-CA3EEECDDFA0";
paths = (
{
closed = 1;
nodes = (
"613 377 LINE",
"138 377 LINE",
"138 705 LINE",
"96 705 LINE",
"96 0 LINE",
"138 0 LINE",
"138 338 LINE",
"613 338 LINE",
"613 0 LINE",
"655 0 LINE",
"655 705 LINE",
"613 705 LINE"
);
}
);
width = 751;
},
{
anchors = (
{
name = bottom;
position = "{392, 0}";
},
{
name = center;
position = "{392, 546}";
},
{
name = top;
position = "{391, 705}";
},
{
name = topleft;
position = "{43, 705}";
}
);
background = {
anchors = (
{
name = bottom;
position = "{376, 0}";
},
{
name = center;
position = "{376, 546}";
},
{
name = top;
position = "{375, 705}";
},
{
name = topleft;
position = "{27, 705}";
}
);
paths = (
{
closed = 1;
nodes = (
"613 377 LINE",
"138 377 LINE",
"138 705 LINE",
"96 705 LINE",
"96 0 LINE",
"138 0 LINE",
"138 338 LINE",
"613 338 LINE",
"613 0 LINE",
"655 0 LINE",
"655 705 LINE",
"613 705 LINE"
);
}
);
};
layerId = "B0DFB0A8-5D2F-4351-A1F8-6629D0DA694C";
paths = (
{
closed = 1;
nodes = (
"623 382 LINE",
"160 382 LINE",
"160 705 LINE",
"112 705 LINE",
"112 0 LINE",
"160 0 LINE",
"160 336 LINE",
"623 336 LINE",
"623 0 LINE",
"671 0 LINE",
"671 705 LINE",
"623 705 LINE"
);
}
);
width = 783;
}
);
leftKerningGroup = H;
rightKerningGroup = H;
rightMetricsKey = "=|";
unicode = 0048;
userData = {
anchors = (
);
b = {
};
com.typemytype.robofont.layerData = {
b = {
anchors = (
);
components = (
);
contours = (
);
lib = {
};
name = H;
unicodes = (
);
width = 1464;
};
};
components = (
);
contours = (
);
lib = {
};
name = H;
unicodes = (
);
width = 1524;
};
},
{
color = 3;
glyphname = I;
lastChange = "2019-07-24 09:48:34 +0000";
layers = (
{
anchors = (
{
name = bottom;
position = "{117, 0}";
},
{
name = ogonek;
position = "{138, 0}";
},
{
name = top;
position = "{117, 705}";
},
{
name = topleft;
position = "{28, 705}";
}
);
background = {
anchors = (
{
name = bottom;
position = "{117, 0}";
},
{
name = ogonek;
position = "{138, 0}";
},
{
name = top;
position = "{117, 705}";
},
{
name = topleft;
position = "{28, 705}";
}
);
paths = (
{
closed = 1;
nodes = (
"138 0 LINE",
"138 705 LINE",
"96 705 LINE",
"96 0 LINE"
);
}
);
};
layerId = "F1F93986-3ED8-4AAE-84C4-CA3EEECDDFA0";
paths = (
{
closed = 1;
nodes = (
"138 0 LINE",
"138 705 LINE",
"96 705 LINE",
"96 0 LINE"
);
}
);
width = 234;
},
{
anchors = (
{
name = bottom;
position = "{133, 0}";
},
{
name = ogonek;
position = "{154, 0}";
},
{
name = top;
position = "{133, 705}";
},
{
name = topleft;
position = "{44, 705}";
}
);
background = {
anchors = (
{
name = bottom;
position = "{133, 0}";
},
{
name = ogonek;
position = "{154, 0}";
},
{
name = top;
position = "{133, 705}";
},
{
name = topleft;
position = "{44, 705}";
}
);
paths = (
{
closed = 1;
nodes = (
"154 0 LINE",
"154 705 LINE",
"112 705 LINE",
"112 0 LINE"
);
}
);
};
layerId = "B0DFB0A8-5D2F-4351-A1F8-6629D0DA694C";
paths = (
{
closed = 1;
nodes = (
"154 0 LINE",
"154 705 LINE",
"112 705 LINE",
"112 0 LINE"
);
}
);
width = 266;
}
);
leftKerningGroup = H;
leftMetricsKey = H;
rightKerningGroup = H;
rightMetricsKey = H;
unicode = 0049;
userData = {
anchors = (
);
b = {
};
com.typemytype.robofont.layerData = {
b = {
anchors = (
);
components = (
);
contours = (
);
lib = {
};
name = I;
unicodes = (
);
width = 592;
};
};
components = (
);
contours = (
);
lib = {
};
name = I;
unicodes = (
);
width = 637;
};
},
{
color = 3;
glyphname = J;
lastChange = "2019-07-24 09:48:34 +0000";
layers = (
{
anchors = (
{
name = bottom;
position = "{181, 0}";
},
{
name = top;
position = "{180, 705}";
}
);
background = {
anchors = (
{
name = bottom;
position = "{181, 0}";
},
{
name = top;
position = "{180, 705}";
}
);
paths = (
{
closed = 1;
nodes = (
"44 -2 LINE SMOOTH",
"145 5 OFFCURVE",
"201 70 OFFCURVE",
"201 177 CURVE SMOOTH",
"201 705 LINE",
"159 705 LINE",
"159 179 LINE SMOOTH",
"159 96 OFFCURVE",
"116 42 OFFCURVE",
"41 36 CURVE SMOOTH",
"-10 32 LINE",
"-6 -6 LINE"
);
}
);
};
layerId = "F1F93986-3ED8-4AAE-84C4-CA3EEECDDFA0";
paths = (
{
closed = 1;
nodes = (
"44 -2 LINE SMOOTH",
"145 5 OFFCURVE",
"201 70 OFFCURVE",
"201 177 CURVE SMOOTH",
"201 705 LINE",
"159 705 LINE",
"159 179 LINE SMOOTH",
"159 96 OFFCURVE",
"116 42 OFFCURVE",
"41 36 CURVE SMOOTH",
"-10 32 LINE",
"-6 -6 LINE"
);
}
);
width = 297;
},
{
anchors = (
{
name = bottom;
position = "{181, 0}";
},
{
name = top;
position = "{180, 705}";
}
);
background = {
anchors = (
{
name = bottom;
position = "{181, 0}";
},
{
name = top;
position = "{180, 705}";
}
);
paths = (
{
closed = 1;
nodes = (
"44 -2 LINE SMOOTH",
"145 5 OFFCURVE",
"201 70 OFFCURVE",
"201 177 CURVE SMOOTH",
"201 705 LINE",
"159 705 LINE",
"159 179 LINE SMOOTH",
"159 96 OFFCURVE",
"116 42 OFFCURVE",
"41 36 CURVE SMOOTH",
"-10 32 LINE",
"-6 -6 LINE"
);
}
);
};
layerId = "B0DFB0A8-5D2F-4351-A1F8-6629D0DA694C";
paths = (
{
closed = 1;
nodes = (
"44 -2 LINE SMOOTH",
"145 5 OFFCURVE",
"201 70 OFFCURVE",
"201 177 CURVE SMOOTH",
"201 705 LINE",
"159 705 LINE",
"159 179 LINE SMOOTH",
"159 96 OFFCURVE",
"116 42 OFFCURVE",
"41 36 CURVE SMOOTH",
"-10 32 LINE",
"-6 -6 LINE"
);
}
);
width = 313;
}
);
leftKerningGroup = J;
rightKerningGroup = J;
rightMetricsKey = H;
unicode = 004A;
userData = {
anchors = (
);
b = {
};
com.typemytype.robofont.layerData = {
b = {
anchors = (
);
components = (
);
contours = (
);
lib = {
};
name = J;
unicodes = (
);
width = 1003;
};
};
components = (
);
contours = (
);
lib = {
};
name = J;
unicodes = (
);
width = 1126;
};
},
{
color = 3;
glyphname = K;
lastChange = "2019-07-24 09:48:34 +0000";
layers = (
{
anchors = (
{
name = bottom;
position = "{302, 0}";
},
{
name = top;
position = "{301, 705}";
},
{
name = topleft;
position = "{27, 705}";
}
);
background = {
anchors = (
{
name = bottom;
position = "{302, 0}";
},
{
name = top;
position = "{301, 705}";
},
{
name = topleft;
position = "{27, 705}";
}
);
paths = (
{
closed = 1;
nodes = (
"158 376 LINE",
"158 341 LINE",
"569 705 LINE",
"509 705 LINE",
"138 375 LINE",
"138 705 LINE",
"96 705 LINE",
"96 0 LINE",
"138 0 LINE",
"138 340 LINE",
"530 0 LINE",
"592 0 LINE"
);
}
);
};
layerId = "F1F93986-3ED8-4AAE-84C4-CA3EEECDDFA0";
paths = (
{
closed = 1;
nodes = (
"158 376 LINE",
"158 341 LINE",
"569 705 LINE",
"509 705 LINE",
"140 377 LINE",
"138 377 LINE",
"138 705 LINE",
"96 705 LINE",
"96 0 LINE",
"138 0 LINE",
"138 338 LINE",
"140 338 LINE",
"530 0 LINE",
"592 0 LINE"
);
}
);
width = 590;
},
{
anchors = (
{
name = bottom;
position = "{318, 0}";
},
{
name = top;
position = "{317, 705}";
},
{
name = topleft;
position = "{43, 705}";
}
);
background = {
anchors = (
{
name = bottom;
position = "{318, 0}";
},
{
name = top;
position = "{317, 705}";
},
{
name = topleft;
position = "{43, 705}";
}
);
paths = (
{
closed = 1;
nodes = (
"174 376 LINE",
"174 341 LINE",
"585 705 LINE",
"525 705 LINE",
"154 375 LINE",
"154 705 LINE",
"112 705 LINE",
"112 0 LINE",
"154 0 LINE",
"154 340 LINE",
"546 0 LINE",
"608 0 LINE"
);
}
);
};
layerId = "B0DFB0A8-5D2F-4351-A1F8-6629D0DA694C";
paths = (
{
closed = 1;
nodes = (
"174 376 LINE",
"174 341 LINE",
"585 705 LINE",
"525 705 LINE",
"156 377 LINE",
"154 377 LINE",
"154 705 LINE",
"112 705 LINE",
"112 0 LINE",
"154 0 LINE",
"154 338 LINE",
"156 338 LINE",
"546 0 LINE",
"608 0 LINE"
);
}
);
width = 606;
}
);
leftKerningGroup = H;
leftMetricsKey = H;
rightKerningGroup = K;
unicode = 004B;
userData = {
anchors = (
);
b = {
};
com.typemytype.robofont.layerData = {
b = {
anchors = (
);
components = (
);
contours = (
);
lib = {
};
name = K;
unicodes = (
);
width = 1210;
};
};
components = (
);
contours = (
);
lib = {
};
name = K;
unicodes = (
);
width = 1329;
};
},
{
color = 3;
glyphname = L;
lastChange = "2019-07-24 09:48:34 +0000";
layers = (
{
anchors = (
{
name = bottom;
position = "{306, 0}";
},
{
name = center;
position = "{161, 387}";
},
{
name = dot;
position = "{379, 386}";
},
{
name = top;
position = "{117, 705}";
},
{
name = topright;
position = "{260, 705}";
}
);
background = {
anchors = (
{
name = bottom;
position = "{306, 0}";
},
{
name = center;
position = "{161, 387}";
},
{
name = dot;
position = "{379, 386}";
},
{
name = top;
position = "{117, 705}";
},
{
name = topright;
position = "{260, 705}";
}
);
paths = (
{
closed = 1;
nodes = (
"512 0 LINE",
"512 40 LINE",
"138 40 LINE",
"138 705 LINE",
"96 705 LINE",
"96 0 LINE"
);
}
);
};
layerId = "F1F93986-3ED8-4AAE-84C4-CA3EEECDDFA0";
paths = (
{
closed = 1;
nodes = (
"512 0 LINE",
"512 40 LINE",
"138 40 LINE",
"138 705 LINE",
"96 705 LINE",
"96 0 LINE"
);
}
);
width = 527;
},
{
anchors = (
{
name = bottom;
position = "{322, 0}";
},
{
name = center;
position = "{177, 387}";
},
{
name = dot;
position = "{395, 386}";
},
{
name = top;
position = "{133, 705}";
},
{
name = topright;
position = "{276, 705}";
}
);
background = {
anchors = (
{
name = bottom;
position = "{322, 0}";
},
{
name = center;
position = "{177, 387}";
},
{
name = dot;
position = "{395, 386}";
},
{
name = top;
position = "{133, 705}";
},
{
name = topright;
position = "{276, 705}";
}
);
paths = (
{
closed = 1;
nodes = (
"528 0 LINE",
"528 40 LINE",
"154 40 LINE",
"154 705 LINE",
"112 705 LINE",
"112 0 LINE"
);
}
);
};
layerId = "B0DFB0A8-5D2F-4351-A1F8-6629D0DA694C";
paths = (
{
closed = 1;
nodes = (
"528 0 LINE",
"528 40 LINE",
"154 40 LINE",
"154 705 LINE",
"112 705 LINE",
"112 0 LINE"
);
}
);
width = 543;
}
);
leftKerningGroup = H;
leftMetricsKey = H;
rightKerningGroup = L;
unicode = 004C;
userData = {
anchors = (
);
b = {
};
com.typemytype.robofont.layerData = {
b = {
anchors = (
);
components = (
);
contours = (
{
points = (
{
segmentType = curve;
smooth = 1;
x = 266;
y = 0;
},
{
segmentType = line;
smooth = 1;
x = 1035;
y = 0;
},
{
smooth = 0;
x = 1084;
y = 0;
},
{
smooth = 0;
x = 1108;
y = 34;
},
{
segmentType = curve;
smooth = 1;
x = 1108;
y = 71;
},
{
smooth = 0;
x = 1108;
y = 107;
},
{
smooth = 0;
x = 1084;
y = 141;
},
{
segmentType = curve;
smooth = 1;
x = 1035;
y = 141;
},
{
segmentType = line;
smooth = 0;
x = 356;
y = 141;
},
{
segmentType = line;
smooth = 0;
x = 356;
y = 665;
},
{
segmentType = line;
smooth = 1;
x = 975;
y = 665;
},
{
smooth = 0;
x = 1024;
y = 665;
},
{
smooth = 0;
x = 1049;
y = 698;
},
{
segmentType = curve;
smooth = 1;
x = 1049;
y = 734;
},
{
smooth = 0;
x = 1049;
y = 770;
},
{
smooth = 0;
x = 1026;
y = 803;
},
{
segmentType = curve;
smooth = 1;
x = 975;
y = 803;
},
{
segmentType = line;
smooth = 0;
x = 356;
y = 803;
},
{
segmentType = line;
smooth = 0;
x = 356;
y = 1285;
},
{
segmentType = line;
smooth = 1;
x = 1007;
y = 1285;
},
{
smooth = 0;
x = 1056;
y = 1285;
},
{
smooth = 0;
x = 1080;
y = 1319;
},
{
segmentType = curve;
smooth = 1;
x = 1080;
y = 1356;
},
{
smooth = 0;
x = 1080;
y = 1392;
},
{
smooth = 0;
x = 1056;
y = 1426;
},
{
segmentType = curve;
smooth = 1;
x = 1007;
y = 1426;
},
{
segmentType = line;
smooth = 1;
x = 261;
y = 1426;
},
{
smooth = 0;
x = 213;
y = 1426;
},
{
smooth = 0;
x = 178;
y = 1383;
},
{
segmentType = curve;
smooth = 1;
x = 178;
y = 1340;
},
{
segmentType = line;
smooth = 1;
x = 178;
y = 86;
},
{
smooth = 0;
x = 178;
y = 41;
},
{
smooth = 0;
x = 222;
y = 0;
}
);
}
);
lib = {
};
name = L;
unicodes = (
);
width = 1095;
};
};
components = (
);
contours = (
);
lib = {
};
name = L;
unicodes = (
);
width = 1169;
};
},
{
color = 3;
glyphname = M;
lastChange = "2019-07-24 09:48:34 +0000";
layers = (
{
anchors = (
{
name = bottom;
position = "{422, 0}";
},
{
name = top;
position = "{422, 705}";
}
);
background = {
anchors = (
{
name = bottom;
position = "{422, 0}";
},
{
name = top;
position = "{422, 705}";
}
);
paths = (
{
closed = 1;
nodes = (
"137 0 LINE",
"137 666 LINE",
"112 666 LINE",
"406 110 LINE",
"441 110 LINE",
"731 665 LINE",
"707 665 LINE",
"707 0 LINE",
"746 0 LINE",
"746 705 LINE",
"710 705 LINE",
"409 127 LINE",
"437 127 LINE",
"134 705 LINE",
"98 705 LINE",
"98 0 LINE"
);
}
);
};
layerId = "F1F93986-3ED8-4AAE-84C4-CA3EEECDDFA0";
paths = (
{
closed = 1;
nodes = (
"137 0 LINE",
"137 666 LINE",
"112 666 LINE",
"406 110 LINE",
"441 110 LINE",
"731 665 LINE",
"707 665 LINE",
"707 0 LINE",
"746 0 LINE",
"746 705 LINE",
"710 705 LINE",
"409 127 LINE",
"437 127 LINE",
"134 705 LINE",
"98 705 LINE",
"98 0 LINE"
);
}
);
width = 844;
},
{
anchors = (
{
name = bottom;
position = "{438, 0}";
},
{
name = top;
position = "{438, 705}";
}
);
background = {
anchors = (
{
name = bottom;
position = "{438, 0}";
},
{
name = top;
position = "{438, 705}";
}
);
paths = (
{
closed = 1;
nodes = (
"153 0 LINE",
"153 666 LINE",
"128 666 LINE",
"422 110 LINE",
"457 110 LINE",
"747 665 LINE",
"723 665 LINE",
"723 0 LINE",
"762 0 LINE",
"762 705 LINE",
"726 705 LINE",
"425 127 LINE",
"453 127 LINE",
"150 705 LINE",
"114 705 LINE",
"114 0 LINE"
);
}
);
};
layerId = "B0DFB0A8-5D2F-4351-A1F8-6629D0DA694C";
paths = (
{
closed = 1;
nodes = (
"153 0 LINE",
"153 666 LINE",
"128 666 LINE",
"422 110 LINE",
"457 110 LINE",
"747 665 LINE",
"723 665 LINE",
"723 0 LINE",
"762 0 LINE",
"762 705 LINE",
"726 705 LINE",
"425 127 LINE",
"453 127 LINE",
"150 705 LINE",
"114 705 LINE",
"114 0 LINE"
);
}
);
width = 876;
}
);
leftKerningGroup = H;
leftMetricsKey = "=H+2";
rightKerningGroup = H;
rightMetricsKey = "=H+2";
unicode = 004D;
userData = {
anchors = (
);
b = {
};
com.typemytype.robofont.layerData = {
b = {
anchors = (
);
components = (
);
contours = (
);
lib = {
};
name = M;
unicodes = (
);
width = 1899;
};
};
components = (
);
contours = (
);
lib = {
};
name = M;
unicodes = (
);
width = 1984;
};
},
{
color = 3;
glyphname = N;
lastChange = "2019-07-24 09:48:34 +0000";
layers = (
{
anchors = (
{
name = bottom;
position = "{366, 0}";
},
{
name = top;
position = "{366, 705}";
}
);
background = {
anchors = (
{
name = bottom;
position = "{366, 0}";
},
{
name = top;
position = "{366, 705}";
}
);
paths = (
{
closed = 1;
nodes = (
"135 0 LINE",
"135 663 LINE",
"114 663 LINE",
"602 0 LINE",
"636 0 LINE",
"636 705 LINE",
"597 705 LINE",
"597 42 LINE",
"619 42 LINE",
"131 705 LINE",
"96 705 LINE",
"96 0 LINE"
);
}
);
};
layerId = "F1F93986-3ED8-4AAE-84C4-CA3EEECDDFA0";
paths = (
{
closed = 1;
nodes = (
"135 0 LINE",
"135 663 LINE",
"114 663 LINE",
"602 0 LINE",
"636 0 LINE",
"636 705 LINE",
"597 705 LINE",
"597 42 LINE",
"619 42 LINE",
"131 705 LINE",
"96 705 LINE",
"96 0 LINE"
);
}
);
width = 732;
},
{
anchors = (
{
name = bottom;
position = "{382, 0}";
},
{
name = top;
position = "{382, 705}";
}
);
background = {
anchors = (
{
name = bottom;
position = "{382, 0}";
},
{
name = top;
position = "{382, 705}";
}
);
paths = (
{
closed = 1;
nodes = (
"151 0 LINE",
"151 663 LINE",
"130 663 LINE",
"618 0 LINE",
"652 0 LINE",
"652 705 LINE",
"613 705 LINE",
"613 42 LINE",
"635 42 LINE",
"147 705 LINE",
"112 705 LINE",
"112 0 LINE"
);
}
);
};
layerId = "B0DFB0A8-5D2F-4351-A1F8-6629D0DA694C";
paths = (
{
closed = 1;
nodes = (
"151 0 LINE",
"151 663 LINE",
"130 663 LINE",
"618 0 LINE",
"652 0 LINE",
"652 705 LINE",
"613 705 LINE",
"613 42 LINE",
"635 42 LINE",
"147 705 LINE",
"112 705 LINE",
"112 0 LINE"
);
}
);
width = 764;
}
);
leftKerningGroup = H;
leftMetricsKey = H;
rightKerningGroup = H;
rightMetricsKey = H;
unicode = 004E;
userData = {
anchors = (
);
b = {
};
com.typemytype.robofont.layerData = {
b = {
anchors = (
);
components = (
);
contours = (
);
lib = {
};
name = N;
unicodes = (
);
width = 1499;
};
};
components = (
);
contours = (
);
lib = {
};
name = N;
unicodes = (
);
width = 1557;
};
},
{
color = 3;
glyphname = Eng;
lastChange = "2019-07-24 09:48:34 +0000";
layers = (
{
anchors = (
{
name = bottom;
position = "{366, 0}";
},
{
name = top;
position = "{366, 705}";
}
);
background = {
anchors = (
{
name = bottom;
position = "{366, 0}";
},
{
name = top;
position = "{366, 705}";
}
);
paths = (
{
closed = 1;
nodes = (
"636 705 LINE",
"597 705 LINE",
"597 42 LINE",
"619 42 LINE",
"131 705 LINE",
"96 705 LINE",
"96 0 LINE",
"135 0 LINE",
"135 663 LINE",
"114 663 LINE",
"602 0 LINE",
"597 25 LINE",
"597 -22 LINE SMOOTH",
"597 -102 OFFCURVE",
"559 -147 OFFCURVE",
"489 -152 CURVE SMOOTH",
"448 -155 LINE",
"451 -193 LINE",
"494 -190 LINE SMOOTH",
"584 -184 OFFCURVE",
"636 -124 OFFCURVE",
"636 -21 CURVE SMOOTH"
);
}
);
};
layerId = "F1F93986-3ED8-4AAE-84C4-CA3EEECDDFA0";
paths = (
{
closed = 1;
nodes = (
"636 705 LINE",
"597 705 LINE",
"597 42 LINE",
"619 42 LINE",
"131 705 LINE",
"96 705 LINE",
"96 0 LINE",
"135 0 LINE",
"135 663 LINE",
"114 663 LINE",
"602 0 LINE",
"597 25 LINE",
"597 -22 LINE SMOOTH",
"597 -102 OFFCURVE",
"559 -147 OFFCURVE",
"489 -152 CURVE SMOOTH",
"448 -155 LINE",
"451 -193 LINE",
"494 -190 LINE SMOOTH",
"584 -184 OFFCURVE",
"636 -124 OFFCURVE",
"636 -21 CURVE SMOOTH"
);
}
);
width = 732;
},
{
anchors = (
{
name = bottom;
position = "{382, 0}";
},
{
name = top;
position = "{382, 705}";
}
);
background = {
anchors = (
{
name = bottom;
position = "{382, 0}";
},
{
name = top;
position = "{382, 705}";
}
);
paths = (
{
closed = 1;
nodes = (
"652 705 LINE",
"613 705 LINE",
"613 42 LINE",
"635 42 LINE",
"147 705 LINE",
"112 705 LINE",
"112 0 LINE",
"151 0 LINE",
"151 663 LINE",
"130 663 LINE",
"618 0 LINE",
"613 25 LINE",
"613 -22 LINE SMOOTH",
"613 -102 OFFCURVE",
"575 -147 OFFCURVE",
"505 -152 CURVE SMOOTH",
"464 -155 LINE",
"467 -193 LINE",
"510 -190 LINE SMOOTH",
"600 -184 OFFCURVE",
"652 -124 OFFCURVE",
"652 -21 CURVE SMOOTH"
);
}
);
};
layerId = "B0DFB0A8-5D2F-4351-A1F8-6629D0DA694C";
paths = (
{
closed = 1;
nodes = (
"652 705 LINE",
"613 705 LINE",
"613 42 LINE",
"635 42 LINE",
"147 705 LINE",
"112 705 LINE",
"112 0 LINE",
"151 0 LINE",
"151 663 LINE",
"130 663 LINE",
"618 0 LINE",
"613 25 LINE",
"613 -22 LINE SMOOTH",
"613 -102 OFFCURVE",
"575 -147 OFFCURVE",
"505 -152 CURVE SMOOTH",
"464 -155 LINE",
"467 -193 LINE",
"510 -190 LINE SMOOTH",
"600 -184 OFFCURVE",
"652 -124 OFFCURVE",
"652 -21 CURVE SMOOTH"
);
}
);
width = 764;
}
);
leftKerningGroup = H;
leftMetricsKey = N;
widthMetricsKey = N;
rightKerningGroup = H;
unicode = 014A;
userData = {
com.typemytype.robofont.layerData = {
b = {
anchors = (
);
components = (
);
contours = (
);
lib = {
};
name = Eng;
unicodes = (
);
width = 1495;
};
};
};
},
{
color = 4;
glyphname = O;
lastChange = "2019-07-24 09:48:12 +0000";
layers = (
{
anchors = (
{
name = Qtail;
position = "{375, -8}";
},
{
name = bottom;
position = "{375, 0}";
},
{
name = center;
position = "{376, 353}";
},
{
name = ogonek;
position = "{430, 0}";
},
{
name = top;
position = "{375, 705}";
},
{
name = topleft;
position = "{26, 705}";
},
{
name = topright;
position = "{449, 705}";
}
);
background = {
anchors = (
{
name = Qtail;
position = "{375, -8}";
},
{
name = bottom;
position = "{375, 0}";
},
{
name = center;
position = "{376, 353}";
},
{
name = ogonek;
position = "{430, 0}";
},
{
name = top;
position = "{375, 705}";
},
{
name = topleft;
position = "{26, 705}";
},
{
name = topright;
position = "{449, 705}";
}
);
paths = (
{
closed = 1;
nodes = (
"566 -8 OFFCURVE",
"684 130 OFFCURVE",
"684 353 CURVE SMOOTH",
"684 576 OFFCURVE",
"567 713 OFFCURVE",
"375 713 CURVE SMOOTH",
"183 713 OFFCURVE",
"67 576 OFFCURVE",
"67 352 CURVE SMOOTH",
"67 130 OFFCURVE",
"185 -8 OFFCURVE",
"375 -8 CURVE SMOOTH"
);
},
{
closed = 1;
nodes = (
"208 33 OFFCURVE",
"112 151 OFFCURVE",
"112 353 CURVE SMOOTH",
"112 555 OFFCURVE",
"208 672 OFFCURVE",
"375 672 CURVE SMOOTH",
"544 672 OFFCURVE",
"639 556 OFFCURVE",
"639 353 CURVE SMOOTH",
"639 150 OFFCURVE",
"543 33 OFFCURVE",
"375 33 CURVE SMOOTH"
);
}
);
};
layerId = "F1F93986-3ED8-4AAE-84C4-CA3EEECDDFA0";
paths = (
{
closed = 1;
nodes = (
"566 -8 OFFCURVE",
"684 130 OFFCURVE",
"684 353 CURVE SMOOTH",
"684 576 OFFCURVE",
"567 713 OFFCURVE",
"375 713 CURVE SMOOTH",
"183 713 OFFCURVE",
"67 576 OFFCURVE",
"67 352 CURVE SMOOTH",
"67 130 OFFCURVE",
"185 -8 OFFCURVE",
"375 -8 CURVE SMOOTH"
);
},
{
closed = 1;
nodes = (
"208 33 OFFCURVE",
"112 151 OFFCURVE",
"112 353 CURVE SMOOTH",
"112 555 OFFCURVE",
"208 672 OFFCURVE",
"375 672 CURVE SMOOTH",
"544 672 OFFCURVE",
"639 556 OFFCURVE",
"639 353 CURVE SMOOTH",
"639 150 OFFCURVE",
"543 33 OFFCURVE",
"375 33 CURVE SMOOTH"
);
}
);
width = 751;
},
{
anchors = (
{
name = Qtail;
position = "{405, -8}";
},
{
name = bottom;
position = "{394, 0}";
},
{
name = center;
position = "{406, 359}";
},
{
name = ogonek;
position = "{449, 0}";
},
{
name = top;
position = "{394, 705}";
},
{
name = topleft;
position = "{28, 705}";
},
{
name = topright;
position = "{485, 705}";
}
);
background = {
anchors = (
{
name = Qtail;
position = "{375, -8}";
},
{
name = bottom;
position = "{375, 0}";
},
{
name = center;
position = "{376, 353}";
},
{
name = ogonek;
position = "{430, 0}";
},
{
name = top;
position = "{375, 705}";
},
{
name = topleft;
position = "{26, 705}";
},
{
name = topright;
position = "{449, 705}";
}
);
paths = (
{
closed = 1;
nodes = (
"566 -8 OFFCURVE",
"684 130 OFFCURVE",
"684 353 CURVE SMOOTH",
"684 576 OFFCURVE",
"567 713 OFFCURVE",
"375 713 CURVE SMOOTH",
"183 713 OFFCURVE",
"67 576 OFFCURVE",
"67 352 CURVE SMOOTH",
"67 130 OFFCURVE",
"185 -8 OFFCURVE",
"375 -8 CURVE SMOOTH"
);
},
{
closed = 1;
nodes = (
"208 33 OFFCURVE",
"112 151 OFFCURVE",
"112 353 CURVE SMOOTH",
"112 555 OFFCURVE",
"208 672 OFFCURVE",
"375 672 CURVE SMOOTH",
"544 672 OFFCURVE",
"639 556 OFFCURVE",
"639 353 CURVE SMOOTH",
"639 150 OFFCURVE",
"543 33 OFFCURVE",
"375 33 CURVE SMOOTH"
);
}
);
};
layerId = "B0DFB0A8-5D2F-4351-A1F8-6629D0DA694C";
paths = (
{
closed = 1;
nodes = (
"593 -8 OFFCURVE",
"706 126 OFFCURVE",
"706 353 CURVE SMOOTH",
"706 579 OFFCURVE",
"594 713 OFFCURVE",
"394 713 CURVE SMOOTH",
"194 713 OFFCURVE",
"83 579 OFFCURVE",
"83 352 CURVE SMOOTH",
"83 126 OFFCURVE",
"196 -8 OFFCURVE",
"394 -8 CURVE SMOOTH"
);
},
{
closed = 1;
nodes = (
"220 38 OFFCURVE",
"132 148 OFFCURVE",
"132 353 CURVE SMOOTH",
"132 558 OFFCURVE",
"220 667 OFFCURVE",
"394 667 CURVE SMOOTH",
"570 667 OFFCURVE",
"657 559 OFFCURVE",
"657 353 CURVE SMOOTH",
"657 147 OFFCURVE",
"569 38 OFFCURVE",
"394 38 CURVE SMOOTH"
);
}
);
width = 789;
}
);
leftKerningGroup = O;
rightKerningGroup = O;
rightMetricsKey = "=|";
unicode = 004F;
userData = {
anchors = (
);
b = {
};
com.typemytype.robofont.guides = (
);
com.typemytype.robofont.layerData = {
b = {
anchors = (
);
components = (
);
contours = (
);
lib = {
};
name = O;
unicodes = (
);
width = 1597;
};
};
components = (
);
contours = (
);
lib = {
};
name = O;
unicodes = (
);
width = 1604;
};
},
{
color = 3;
glyphname = OE;
lastChange = "2019-07-24 09:48:34 +0000";
layers = (
{
anchors = (
{
name = bottom;
position = "{587, 0}";
},
{
name = top;
position = "{587, 705}";
}
);
background = {
anchors = (
{
name = bottom;
position = "{587, 0}";
},
{
name = top;
position = "{587, 705}";
}
);
paths = (
{
closed = 1;
nodes = (
"989 705 LINE",
"425 705 LINE SMOOTH",
"189 705 OFFCURVE",
"67 580 OFFCURVE",
"67 353 CURVE SMOOTH",
"67 127 OFFCURVE",
"190 0 OFFCURVE",
"425 0 CURVE SMOOTH",
"989 0 LINE",
"989 39 LINE",
"607 39 LINE",
"607 338 LINE",
"969 338 LINE",
"969 377 LINE",
"607 377 LINE",
"607 666 LINE",
"989 666 LINE"
);
},
{
closed = 1;
nodes = (
"423 39 LINE SMOOTH",
"213 39 OFFCURVE",
"112 145 OFFCURVE",
"112 353 CURVE SMOOTH",
"112 562 OFFCURVE",
"212 666 OFFCURVE",
"423 666 CURVE SMOOTH",
"565 666 LINE",
"565 39 LINE"
);
}
);
};
layerId = "F1F93986-3ED8-4AAE-84C4-CA3EEECDDFA0";
paths = (
{
closed = 1;
nodes = (
"989 705 LINE",
"425 705 LINE SMOOTH",
"189 705 OFFCURVE",
"67 580 OFFCURVE",
"67 353 CURVE SMOOTH",
"67 127 OFFCURVE",
"190 0 OFFCURVE",
"425 0 CURVE SMOOTH",
"989 0 LINE",
"989 39 LINE",
"607 39 LINE",
"607 338 LINE",
"969 338 LINE",
"969 377 LINE",
"607 377 LINE",
"607 666 LINE",
"989 666 LINE"
);
},
{
closed = 1;
nodes = (
"423 39 LINE SMOOTH",
"213 39 OFFCURVE",
"112 145 OFFCURVE",
"112 353 CURVE SMOOTH",
"112 562 OFFCURVE",
"212 666 OFFCURVE",
"423 666 CURVE SMOOTH",
"565 666 LINE",
"565 39 LINE"
);
}
);
width = 1039;
},
{
anchors = (
{
name = bottom;
position = "{603, 0}";
},
{
name = top;
position = "{603, 705}";
}
);
background = {
anchors = (
{
name = bottom;
position = "{603, 0}";
},
{
name = top;
position = "{603, 705}";
}
);
paths = (
{
closed = 1;
nodes = (
"1005 705 LINE",
"441 705 LINE SMOOTH",
"205 705 OFFCURVE",
"83 580 OFFCURVE",
"83 353 CURVE SMOOTH",
"83 127 OFFCURVE",
"206 0 OFFCURVE",
"441 0 CURVE SMOOTH",
"1005 0 LINE",
"1005 39 LINE",
"623 39 LINE",
"623 338 LINE",
"985 338 LINE",
"985 377 LINE",
"623 377 LINE",
"623 666 LINE",
"1005 666 LINE"
);
},
{
closed = 1;
nodes = (
"439 39 LINE SMOOTH",
"229 39 OFFCURVE",
"128 145 OFFCURVE",
"128 353 CURVE SMOOTH",
"128 562 OFFCURVE",
"228 666 OFFCURVE",
"439 666 CURVE SMOOTH",
"581 666 LINE",
"581 39 LINE"
);
}
);
};
layerId = "B0DFB0A8-5D2F-4351-A1F8-6629D0DA694C";
paths = (
{
closed = 1;
nodes = (
"1005 705 LINE",
"441 705 LINE SMOOTH",
"205 705 OFFCURVE",
"83 580 OFFCURVE",
"83 353 CURVE SMOOTH",
"83 127 OFFCURVE",
"206 0 OFFCURVE",
"441 0 CURVE SMOOTH",
"1005 0 LINE",
"1005 39 LINE",
"623 39 LINE",
"623 338 LINE",
"985 338 LINE",
"985 377 LINE",
"623 377 LINE",
"623 666 LINE",
"1005 666 LINE"
);
},
{
closed = 1;
nodes = (
"439 39 LINE SMOOTH",
"229 39 OFFCURVE",
"128 145 OFFCURVE",
"128 353 CURVE SMOOTH",
"128 562 OFFCURVE",
"228 666 OFFCURVE",
"439 666 CURVE SMOOTH",
"581 666 LINE",
"581 39 LINE"
);
}
);
width = 1055;
}
);
leftKerningGroup = O;
leftMetricsKey = O;
rightKerningGroup = E;
rightMetricsKey = E;
unicode = 0152;
},
{
color = 3;
glyphname = P;
lastChange = "2019-07-24 09:48:34 +0000";
layers = (
{
anchors = (
{
name = bottom;
position = "{316, 0}";
},
{
name = top;
position = "{316, 705}";
}
);
background = {
anchors = (
{
name = bottom;
position = "{316, 0}";
},
{
name = top;
position = "{316, 705}";
}
);
paths = (
{
closed = 1;
nodes = (
"96 705 LINE",
"96 0 LINE",
"138 0 LINE",
"138 303 LINE",
"350 303 LINE SMOOTH",
"497 303 OFFCURVE",
"579 376 OFFCURVE",
"579 505 CURVE SMOOTH",
"579 634 OFFCURVE",
"498 705 OFFCURVE",
"350 705 CURVE SMOOTH"
);
},
{
closed = 1;
nodes = (
"138 342 LINE",
"138 666 LINE",
"349 666 LINE SMOOTH",
"473 666 OFFCURVE",
"535 611 OFFCURVE",
"535 505 CURVE SMOOTH",
"535 399 OFFCURVE",
"473 342 OFFCURVE",
"349 342 CURVE SMOOTH"
);
}
);
};
layerId = "F1F93986-3ED8-4AAE-84C4-CA3EEECDDFA0";
paths = (
{
closed = 1;
nodes = (
"96 705 LINE",
"96 0 LINE",
"138 0 LINE",
"138 303 LINE",
"350 303 LINE SMOOTH",
"497 303 OFFCURVE",
"579 376 OFFCURVE",
"579 505 CURVE SMOOTH",
"579 634 OFFCURVE",
"498 705 OFFCURVE",
"350 705 CURVE SMOOTH"
);
},
{
closed = 1;
nodes = (
"138 342 LINE",
"138 666 LINE",
"349 666 LINE SMOOTH",
"473 666 OFFCURVE",
"535 611 OFFCURVE",
"535 505 CURVE SMOOTH",
"535 399 OFFCURVE",
"473 342 OFFCURVE",
"349 342 CURVE SMOOTH"
);
}
);
width = 630;
},
{
anchors = (
{
name = bottom;
position = "{332, 0}";
},
{
name = top;
position = "{332, 705}";
}
);
background = {
anchors = (
{
name = bottom;
position = "{332, 0}";
},
{
name = top;
position = "{332, 705}";
}
);
paths = (
{
closed = 1;
nodes = (
"112 705 LINE",
"112 0 LINE",
"154 0 LINE",
"154 303 LINE",
"366 303 LINE SMOOTH",
"513 303 OFFCURVE",
"595 376 OFFCURVE",
"595 505 CURVE SMOOTH",
"595 634 OFFCURVE",
"514 705 OFFCURVE",
"366 705 CURVE SMOOTH"
);
},
{
closed = 1;
nodes = (
"154 342 LINE",
"154 666 LINE",
"365 666 LINE SMOOTH",
"489 666 OFFCURVE",
"551 611 OFFCURVE",
"551 505 CURVE SMOOTH",
"551 399 OFFCURVE",
"489 342 OFFCURVE",
"365 342 CURVE SMOOTH"
);
}
);
};
layerId = "B0DFB0A8-5D2F-4351-A1F8-6629D0DA694C";
paths = (
{
closed = 1;
nodes = (
"112 705 LINE",
"112 0 LINE",
"154 0 LINE",
"154 303 LINE",
"366 303 LINE SMOOTH",
"513 303 OFFCURVE",
"595 376 OFFCURVE",
"595 505 CURVE SMOOTH",
"595 634 OFFCURVE",
"514 705 OFFCURVE",
"366 705 CURVE SMOOTH"
);
},
{
closed = 1;
nodes = (
"154 342 LINE",
"154 666 LINE",
"365 666 LINE SMOOTH",
"489 666 OFFCURVE",
"551 611 OFFCURVE",
"551 505 CURVE SMOOTH",
"551 399 OFFCURVE",
"489 342 OFFCURVE",
"365 342 CURVE SMOOTH"
);
}
);
width = 646;
}
);
leftKerningGroup = H;
leftMetricsKey = H;
rightKerningGroup = P;
unicode = 0050;
userData = {
anchors = (
);
b = {
};
com.typemytype.robofont.layerData = {
b = {
anchors = (
);
components = (
);
contours = (
{
points = (
{
segmentType = curve;
smooth = 1;
x = 266;
y = 0;
},
{
segmentType = line;
smooth = 1;
x = 1035;
y = 0;
},
{
smooth = 0;
x = 1084;
y = 0;
},
{
smooth = 0;
x = 1108;
y = 34;
},
{
segmentType = curve;
smooth = 1;
x = 1108;
y = 71;
},
{
smooth = 0;
x = 1108;
y = 107;
},
{
smooth = 0;
x = 1084;
y = 141;
},
{
segmentType = curve;
smooth = 1;
x = 1035;
y = 141;
},
{
segmentType = line;
smooth = 0;
x = 356;
y = 141;
},
{
segmentType = line;
smooth = 0;
x = 356;
y = 665;
},
{
segmentType = line;
smooth = 1;
x = 975;
y = 665;
},
{
smooth = 0;
x = 1024;
y = 665;
},
{
smooth = 0;
x = 1049;
y = 698;
},
{
segmentType = curve;
smooth = 1;
x = 1049;
y = 734;
},
{
smooth = 0;
x = 1049;
y = 770;
},
{
smooth = 0;
x = 1026;
y = 803;
},
{
segmentType = curve;
smooth = 1;
x = 975;
y = 803;
},
{
segmentType = line;
smooth = 0;
x = 356;
y = 803;
},
{
segmentType = line;
smooth = 0;
x = 356;
y = 1285;
},
{
segmentType = line;
smooth = 1;
x = 1007;
y = 1285;
},
{
smooth = 0;
x = 1056;
y = 1285;
},
{
smooth = 0;
x = 1080;
y = 1319;
},
{
segmentType = curve;
smooth = 1;
x = 1080;
y = 1356;
},
{
smooth = 0;
x = 1080;
y = 1392;
},
{
smooth = 0;
x = 1056;
y = 1426;
},
{
segmentType = curve;
smooth = 1;
x = 1007;
y = 1426;
},
{
segmentType = line;
smooth = 1;
x = 261;
y = 1426;
},
{
smooth = 0;
x = 213;
y = 1426;
},
{
smooth = 0;
x = 178;
y = 1383;
},
{
segmentType = curve;
smooth = 1;
x = 178;
y = 1340;
},
{
segmentType = line;
smooth = 1;
x = 178;
y = 86;
},
{
smooth = 0;
x = 178;
y = 41;
},
{
smooth = 0;
x = 222;
y = 0;
}
);
}
);
lib = {
};
name = P;
unicodes = (
);
width = 1201;
};
};
components = (
);
contours = (
);
lib = {
};
name = P;
unicodes = (
);
width = 1319;
};
},
{
color = 3;
glyphname = Thorn;
lastChange = "2019-07-24 09:48:34 +0000";
layers = (
{
anchors = (
{
name = bottom;
position = "{316, 0}";
},
{
name = top;
position = "{316, 705}";
}
);
background = {
anchors = (
{
name = bottom;
position = "{316, 0}";
},
{
name = top;
position = "{316, 705}";
}
);
paths = (
{
closed = 1;
nodes = (
"138 566 LINE",
"138 705 LINE",
"96 705 LINE",
"96 0 LINE",
"138 0 LINE",
"138 164 LINE",
"350 164 LINE SMOOTH",
"497 164 OFFCURVE",
"579 237 OFFCURVE",
"579 366 CURVE SMOOTH",
"579 495 OFFCURVE",
"498 566 OFFCURVE",
"350 566 CURVE SMOOTH"
);
},
{
closed = 1;
nodes = (
"138 203 LINE",
"138 527 LINE",
"349 527 LINE SMOOTH",
"473 527 OFFCURVE",
"535 472 OFFCURVE",
"535 366 CURVE SMOOTH",
"535 260 OFFCURVE",
"473 203 OFFCURVE",
"349 203 CURVE SMOOTH"
);
}
);
};
layerId = "F1F93986-3ED8-4AAE-84C4-CA3EEECDDFA0";
paths = (
{
closed = 1;
nodes = (
"138 566 LINE",
"138 705 LINE",
"96 705 LINE",
"96 0 LINE",
"138 0 LINE",
"138 164 LINE",
"350 164 LINE SMOOTH",
"497 164 OFFCURVE",
"579 237 OFFCURVE",
"579 366 CURVE SMOOTH",
"579 495 OFFCURVE",
"498 566 OFFCURVE",
"350 566 CURVE SMOOTH"
);
},
{
closed = 1;
nodes = (
"138 203 LINE",
"138 527 LINE",
"349 527 LINE SMOOTH",
"473 527 OFFCURVE",
"535 472 OFFCURVE",
"535 366 CURVE SMOOTH",
"535 260 OFFCURVE",
"473 203 OFFCURVE",
"349 203 CURVE SMOOTH"
);
}
);
width = 630;
},
{
anchors = (
{
name = bottom;
position = "{332, 0}";
},
{
name = top;
position = "{332, 705}";
}
);
background = {
anchors = (
{
name = bottom;
position = "{332, 0}";
},
{
name = top;
position = "{332, 705}";
}
);
paths = (
{
closed = 1;
nodes = (
"154 566 LINE",
"154 705 LINE",
"112 705 LINE",
"112 0 LINE",
"154 0 LINE",
"154 164 LINE",
"366 164 LINE SMOOTH",
"513 164 OFFCURVE",
"595 237 OFFCURVE",
"595 366 CURVE SMOOTH",
"595 495 OFFCURVE",
"514 566 OFFCURVE",
"366 566 CURVE SMOOTH"
);
},
{
closed = 1;
nodes = (
"154 203 LINE",
"154 527 LINE",
"365 527 LINE SMOOTH",
"489 527 OFFCURVE",
"551 472 OFFCURVE",
"551 366 CURVE SMOOTH",
"551 260 OFFCURVE",
"489 203 OFFCURVE",
"365 203 CURVE SMOOTH"
);
}
);
};
layerId = "B0DFB0A8-5D2F-4351-A1F8-6629D0DA694C";
paths = (
{
closed = 1;
nodes = (
"154 566 LINE",
"154 705 LINE",
"112 705 LINE",
"112 0 LINE",
"154 0 LINE",
"154 164 LINE",
"366 164 LINE SMOOTH",
"513 164 OFFCURVE",
"595 237 OFFCURVE",
"595 366 CURVE SMOOTH",
"595 495 OFFCURVE",
"514 566 OFFCURVE",
"366 566 CURVE SMOOTH"
);
},
{
closed = 1;
nodes = (
"154 203 LINE",
"154 527 LINE",
"365 527 LINE SMOOTH",
"489 527 OFFCURVE",
"551 472 OFFCURVE",
"551 366 CURVE SMOOTH",
"551 260 OFFCURVE",
"489 203 OFFCURVE",
"365 203 CURVE SMOOTH"
);
}
);
width = 646;
}
);
leftKerningGroup = H;
leftMetricsKey = H;
rightKerningGroup = THORN;
unicode = 00DE;
},
{
color = 3;
glyphname = R;
lastChange = "2019-07-24 09:48:34 +0000";
layers = (
{
anchors = (
{
name = bottom;
position = "{334, 0}";
},
{
name = top;
position = "{334, 705}";
}
);
background = {
anchors = (
{
name = bottom;
position = "{334, 0}";
},
{
name = top;
position = "{334, 705}";
}
);
paths = (
{
closed = 1;
nodes = (
"138 0 LINE",
"138 312 LINE",
"300 312 LINE SMOOTH",
"378 312 OFFCURVE",
"419 295 OFFCURVE",
"455 226 CURVE SMOOTH",
"574 0 LINE",
"620 0 LINE",
"492 242 LINE SMOOTH",
"460 302 OFFCURVE",
"423 326 OFFCURVE",
"371 326 CURVE SMOOTH",
"367 326 LINE",
"367 318 LINE",
"511 318 OFFCURVE",
"596 387 OFFCURVE",
"596 510 CURVE SMOOTH",
"596 639 OFFCURVE",
"512 705 OFFCURVE",
"368 705 CURVE SMOOTH",
"96 705 LINE",
"96 0 LINE"
);
},
{
closed = 1;
nodes = (
"138 666 LINE",
"369 666 LINE SMOOTH",
"493 666 OFFCURVE",
"552 615 OFFCURVE",
"552 511 CURVE SMOOTH",
"552 405 OFFCURVE",
"490 351 OFFCURVE",
"369 351 CURVE SMOOTH",
"138 351 LINE"
);
}
);
};
layerId = "F1F93986-3ED8-4AAE-84C4-CA3EEECDDFA0";
paths = (
{
closed = 1;
nodes = (
"138 0 LINE",
"138 312 LINE",
"300 312 LINE SMOOTH",
"378 312 OFFCURVE",
"419 295 OFFCURVE",
"455 226 CURVE SMOOTH",
"574 0 LINE",
"620 0 LINE",
"492 242 LINE SMOOTH",
"460 302 OFFCURVE",
"423 326 OFFCURVE",
"371 326 CURVE SMOOTH",
"367 326 LINE",
"367 318 LINE",
"511 318 OFFCURVE",
"596 387 OFFCURVE",
"596 510 CURVE SMOOTH",
"596 639 OFFCURVE",
"512 705 OFFCURVE",
"368 705 CURVE SMOOTH",
"96 705 LINE",
"96 0 LINE"
);
},
{
closed = 1;
nodes = (
"138 666 LINE",
"369 666 LINE SMOOTH",
"493 666 OFFCURVE",
"552 615 OFFCURVE",
"552 511 CURVE SMOOTH",
"552 405 OFFCURVE",
"490 351 OFFCURVE",
"369 351 CURVE SMOOTH",
"138 351 LINE"
);
}
);
width = 671;
},
{
anchors = (
{
name = bottom;
position = "{350, 0}";
},
{
name = top;
position = "{350, 705}";
}
);
background = {
anchors = (
{
name = bottom;
position = "{350, 0}";
},
{
name = top;
position = "{350, 705}";
}
);
paths = (
{
closed = 1;
nodes = (
"154 0 LINE",
"154 312 LINE",
"316 312 LINE SMOOTH",
"394 312 OFFCURVE",
"435 295 OFFCURVE",
"471 226 CURVE SMOOTH",
"590 0 LINE",
"636 0 LINE",
"508 242 LINE SMOOTH",
"476 302 OFFCURVE",
"439 326 OFFCURVE",
"387 326 CURVE SMOOTH",
"383 326 LINE",
"383 318 LINE",
"527 318 OFFCURVE",
"612 387 OFFCURVE",
"612 510 CURVE SMOOTH",
"612 639 OFFCURVE",
"528 705 OFFCURVE",
"384 705 CURVE SMOOTH",
"112 705 LINE",
"112 0 LINE"
);
},
{
closed = 1;
nodes = (
"154 666 LINE",
"385 666 LINE SMOOTH",
"509 666 OFFCURVE",
"568 615 OFFCURVE",
"568 511 CURVE SMOOTH",
"568 405 OFFCURVE",
"506 351 OFFCURVE",
"385 351 CURVE SMOOTH",
"154 351 LINE"
);
}
);
};
layerId = "B0DFB0A8-5D2F-4351-A1F8-6629D0DA694C";
paths = (
{
closed = 1;
nodes = (
"154 0 LINE",
"154 312 LINE",
"316 312 LINE SMOOTH",
"394 312 OFFCURVE",
"435 295 OFFCURVE",
"471 226 CURVE SMOOTH",
"590 0 LINE",
"636 0 LINE",
"508 242 LINE SMOOTH",
"476 302 OFFCURVE",
"439 326 OFFCURVE",
"387 326 CURVE SMOOTH",
"383 326 LINE",
"383 318 LINE",
"527 318 OFFCURVE",
"612 387 OFFCURVE",
"612 510 CURVE SMOOTH",
"612 639 OFFCURVE",
"528 705 OFFCURVE",
"384 705 CURVE SMOOTH",
"112 705 LINE",
"112 0 LINE"
);
},
{
closed = 1;
nodes = (
"154 666 LINE",
"385 666 LINE SMOOTH",
"509 666 OFFCURVE",
"568 615 OFFCURVE",
"568 511 CURVE SMOOTH",
"568 405 OFFCURVE",
"506 351 OFFCURVE",
"385 351 CURVE SMOOTH",
"154 351 LINE"
);
}
);
width = 687;
}
);
leftKerningGroup = H;
leftMetricsKey = H;
rightKerningGroup = R;
unicode = 0052;
userData = {
anchors = (
);
b = {
};
com.typemytype.robofont.guides = (
);
com.typemytype.robofont.layerData = {
b = {
anchors = (
);
components = (
);
contours = (
{
points = (
{
segmentType = curve;
smooth = 1;
x = 267;
y = 0;
},
{
smooth = 0;
x = 311;
y = 0;
},
{
smooth = 0;
x = 356;
y = 27;
},
{
segmentType = curve;
smooth = 1;
x = 356;
y = 84;
},
{
segmentType = line;
smooth = 0;
x = 356;
y = 628;
},
{
segmentType = line;
smooth = 1;
x = 669;
y = 628;
},
{
smooth = 0;
x = 962;
y = 628;
},
{
smooth = 0;
x = 1182;
y = 722;
},
{
segmentType = curve;
smooth = 1;
x = 1182;
y = 1026;
},
{
smooth = 0;
x = 1182;
y = 1324;
},
{
smooth = 0;
x = 993;
y = 1426;
},
{
segmentType = curve;
smooth = 1;
x = 684;
y = 1426;
},
{
segmentType = line;
smooth = 1;
x = 268;
y = 1426;
},
{
smooth = 0;
x = 217;
y = 1426;
},
{
smooth = 0;
x = 178;
y = 1387;
},
{
segmentType = curve;
smooth = 1;
x = 178;
y = 1339;
},
{
segmentType = line;
smooth = 1;
x = 178;
y = 84;
},
{
smooth = 0;
x = 178;
y = 28;
},
{
smooth = 0;
x = 222;
y = 0;
}
);
},
{
points = (
{
segmentType = line;
smooth = 0;
x = 356;
y = 764;
},
{
segmentType = line;
smooth = 0;
x = 356;
y = 1285;
},
{
segmentType = line;
smooth = 1;
x = 684;
y = 1285;
},
{
smooth = 0;
x = 914;
y = 1285;
},
{
smooth = 0;
x = 1008;
y = 1210;
},
{
segmentType = curve;
smooth = 1;
x = 1008;
y = 1026;
},
{
smooth = 0;
x = 1008;
y = 838;
},
{
smooth = 0;
x = 901;
y = 764;
},
{
segmentType = curve;
smooth = 1;
x = 670;
y = 764;
}
);
}
);
lib = {
};
name = R;
unicodes = (
);
width = 1363;
};
};
components = (
);
contours = (
);
lib = {
};
name = R;
unicodes = (
);
width = 1408;
};
},
{
color = 3;
glyphname = S;
lastChange = "2019-07-23 14:13:44 +0000";
layers = (
{
anchors = (
{
name = bottom;
position = "{305, 0}";
},
{
name = top;
position = "{299, 705}";
}
);
background = {
anchors = (
{
name = bottom;
position = "{305, 0}";
},
{
name = top;
position = "{299, 705}";
}
);
paths = (
{
closed = 1;
nodes = (
"453 -8 OFFCURVE",
"549 68 OFFCURVE",
"549 183 CURVE SMOOTH",
"549 273 OFFCURVE",
"498 325 OFFCURVE",
"360 355 CURVE SMOOTH",
"251 379 LINE SMOOTH",
"149 401 OFFCURVE",
"106 444 OFFCURVE",
"106 517 CURVE SMOOTH",
"106 614 OFFCURVE",
"180 672 OFFCURVE",
"307 672 CURVE SMOOTH",
"391 672 OFFCURVE",
"464 646 OFFCURVE",
"522 583 CURVE",
"546 619 LINE",
"488 682 OFFCURVE",
"402 713 OFFCURVE",
"307 713 CURVE SMOOTH",
"157 713 OFFCURVE",
"64 637 OFFCURVE",
"64 519 CURVE SMOOTH",
"64 429 OFFCURVE",
"112 367 OFFCURVE",
"238 339 CURVE SMOOTH",
"348 315 LINE SMOOTH",
"460 291 OFFCURVE",
"507 255 OFFCURVE",
"507 182 CURVE SMOOTH",
"507 88 OFFCURVE",
"434 33 OFFCURVE",
"308 33 CURVE SMOOTH",
"205 33 OFFCURVE",
"143 57 OFFCURVE",
"72 122 CURVE",
"49 87 LINE",
"111 26 OFFCURVE",
"196 -8 OFFCURVE",
"308 -8 CURVE SMOOTH"
);
}
);
};
layerId = "F1F93986-3ED8-4AAE-84C4-CA3EEECDDFA0";
paths = (
{
closed = 1;
nodes = (
"453 -8 OFFCURVE",
"549 68 OFFCURVE",
"549 183 CURVE SMOOTH",
"549 273 OFFCURVE",
"498 325 OFFCURVE",
"360 355 CURVE SMOOTH",
"251 379 LINE SMOOTH",
"149 401 OFFCURVE",
"106 444 OFFCURVE",
"106 517 CURVE SMOOTH",
"106 614 OFFCURVE",
"180 672 OFFCURVE",
"307 672 CURVE SMOOTH",
"391 672 OFFCURVE",
"464 646 OFFCURVE",
"522 583 CURVE",
"546 619 LINE",
"488 682 OFFCURVE",
"402 713 OFFCURVE",
"307 713 CURVE SMOOTH",
"157 713 OFFCURVE",
"64 637 OFFCURVE",
"64 519 CURVE SMOOTH",
"64 429 OFFCURVE",
"112 367 OFFCURVE",
"238 339 CURVE SMOOTH",
"348 315 LINE SMOOTH",
"460 291 OFFCURVE",
"507 255 OFFCURVE",
"507 182 CURVE SMOOTH",
"507 88 OFFCURVE",
"434 33 OFFCURVE",
"308 33 CURVE SMOOTH",
"205 33 OFFCURVE",
"143 57 OFFCURVE",
"72 122 CURVE",
"49 87 LINE",
"111 26 OFFCURVE",
"196 -8 OFFCURVE",
"308 -8 CURVE SMOOTH"
);
}
);
width = 598;
},
{
anchors = (
{
name = bottom;
position = "{305, 0}";
},
{
name = top;
position = "{299, 705}";
}
);
background = {
anchors = (
{
name = bottom;
position = "{305, 0}";
},
{
name = top;
position = "{299, 705}";
}
);
paths = (
{
closed = 1;
nodes = (
"453 -8 OFFCURVE",
"549 68 OFFCURVE",
"549 183 CURVE SMOOTH",
"549 273 OFFCURVE",
"498 325 OFFCURVE",
"360 355 CURVE SMOOTH",
"251 379 LINE SMOOTH",
"149 401 OFFCURVE",
"106 444 OFFCURVE",
"106 517 CURVE SMOOTH",
"106 614 OFFCURVE",
"180 672 OFFCURVE",
"307 672 CURVE SMOOTH",
"391 672 OFFCURVE",
"464 646 OFFCURVE",
"522 583 CURVE",
"546 619 LINE",
"488 682 OFFCURVE",
"402 713 OFFCURVE",
"307 713 CURVE SMOOTH",
"157 713 OFFCURVE",
"64 637 OFFCURVE",
"64 519 CURVE SMOOTH",
"64 429 OFFCURVE",
"112 367 OFFCURVE",
"238 339 CURVE SMOOTH",
"348 315 LINE SMOOTH",
"460 291 OFFCURVE",
"507 255 OFFCURVE",
"507 182 CURVE SMOOTH",
"507 88 OFFCURVE",
"434 33 OFFCURVE",
"308 33 CURVE SMOOTH",
"205 33 OFFCURVE",
"143 57 OFFCURVE",
"72 122 CURVE",
"49 87 LINE",
"111 26 OFFCURVE",
"196 -8 OFFCURVE",
"308 -8 CURVE SMOOTH"
);
}
);
};
layerId = "B0DFB0A8-5D2F-4351-A1F8-6629D0DA694C";
paths = (
{
closed = 1;
nodes = (
"453 -8 OFFCURVE",
"549 68 OFFCURVE",
"549 183 CURVE SMOOTH",
"549 273 OFFCURVE",
"498 325 OFFCURVE",
"360 355 CURVE SMOOTH",
"251 379 LINE SMOOTH",
"149 401 OFFCURVE",
"106 444 OFFCURVE",
"106 517 CURVE SMOOTH",
"106 614 OFFCURVE",
"180 672 OFFCURVE",
"307 672 CURVE SMOOTH",
"391 672 OFFCURVE",
"464 646 OFFCURVE",
"522 583 CURVE",
"546 619 LINE",
"488 682 OFFCURVE",
"402 713 OFFCURVE",
"307 713 CURVE SMOOTH",
"157 713 OFFCURVE",
"64 637 OFFCURVE",
"64 519 CURVE SMOOTH",
"64 429 OFFCURVE",
"112 367 OFFCURVE",
"238 339 CURVE SMOOTH",
"348 315 LINE SMOOTH",
"460 291 OFFCURVE",
"507 255 OFFCURVE",
"507 182 CURVE SMOOTH",
"507 88 OFFCURVE",
"434 33 OFFCURVE",
"308 33 CURVE SMOOTH",
"205 33 OFFCURVE",
"143 57 OFFCURVE",
"72 122 CURVE",
"49 87 LINE",
"111 26 OFFCURVE",
"196 -8 OFFCURVE",
"308 -8 CURVE SMOOTH"
);
}
);
width = 598;
}
);
leftKerningGroup = S;
rightKerningGroup = S;
unicode = 0053;
userData = {
anchors = (
);
b = {
};
com.typemytype.robofont.layerData = {
b = {
anchors = (
);
components = (
);
contours = (
);
lib = {
};
name = S;
unicodes = (
);
width = 1274;
};
};
components = (
);
contours = (
);
lib = {
};
name = S;
unicodes = (
);
width = 1317;
};
},
{
color = 3;
glyphname = Germandbls;
lastChange = "2019-07-24 09:48:34 +0000";
layers = (
{
background = {
paths = (
{
closed = 1;
nodes = (
"138 0 LINE",
"138 457 LINE SMOOTH",
"138 604 OFFCURVE",
"218 672 OFFCURVE",
"357 672 CURVE SMOOTH",
"474 672 OFFCURVE",
"543 619 OFFCURVE",
"543 529 CURVE SMOOTH",
"543 430 OFFCURVE",
"477 377 OFFCURVE",
"375 377 CURVE SMOOTH",
"255 377 LINE",
"255 338 LINE",
"402 338 LINE SMOOTH",
"522 338 OFFCURVE",
"588 288 OFFCURVE",
"588 192 CURVE SMOOTH",
"588 96 OFFCURVE",
"523 33 OFFCURVE",
"413 33 CURVE SMOOTH",
"343 33 OFFCURVE",
"290 50 OFFCURVE",
"238 97 CURVE",
"216 62 LINE",
"262 16 OFFCURVE",
"332 -7 OFFCURVE",
"410 -7 CURVE SMOOTH",
"547 -7 OFFCURVE",
"626 72 OFFCURVE",
"626 191 CURVE SMOOTH",
"626 290 OFFCURVE",
"571 353 OFFCURVE",
"454 371 CURVE",
"454 358 LINE",
"532 375 OFFCURVE",
"585 440 OFFCURVE",
"585 529 CURVE SMOOTH",
"585 643 OFFCURVE",
"494 713 OFFCURVE",
"356 713 CURVE SMOOTH",
"194 713 OFFCURVE",
"96 630 OFFCURVE",
"96 464 CURVE SMOOTH",
"96 0 LINE"
);
}
);
};
layerId = "F1F93986-3ED8-4AAE-84C4-CA3EEECDDFA0";
paths = (
{
closed = 1;
nodes = (
"138 0 LINE",
"138 457 LINE SMOOTH",
"138 604 OFFCURVE",
"218 672 OFFCURVE",
"357 672 CURVE SMOOTH",
"474 672 OFFCURVE",
"543 619 OFFCURVE",
"543 529 CURVE SMOOTH",
"543 430 OFFCURVE",
"477 377 OFFCURVE",
"375 377 CURVE SMOOTH",
"255 377 LINE",
"255 338 LINE",
"402 338 LINE SMOOTH",
"522 338 OFFCURVE",
"588 288 OFFCURVE",
"588 192 CURVE SMOOTH",
"588 96 OFFCURVE",
"523 33 OFFCURVE",
"413 33 CURVE SMOOTH",
"343 33 OFFCURVE",
"290 50 OFFCURVE",
"238 97 CURVE",
"216 62 LINE",
"262 16 OFFCURVE",
"332 -7 OFFCURVE",
"410 -7 CURVE SMOOTH",
"547 -7 OFFCURVE",
"626 72 OFFCURVE",
"626 191 CURVE SMOOTH",
"626 290 OFFCURVE",
"571 353 OFFCURVE",
"454 371 CURVE",
"454 358 LINE",
"532 375 OFFCURVE",
"585 440 OFFCURVE",
"585 529 CURVE SMOOTH",
"585 643 OFFCURVE",
"494 713 OFFCURVE",
"356 713 CURVE SMOOTH",
"194 713 OFFCURVE",
"96 630 OFFCURVE",
"96 464 CURVE SMOOTH",
"96 0 LINE"
);
}
);
width = 697;
},
{
background = {
paths = (
{
closed = 1;
nodes = (
"154 0 LINE",
"154 457 LINE SMOOTH",
"154 604 OFFCURVE",
"234 672 OFFCURVE",
"373 672 CURVE SMOOTH",
"490 672 OFFCURVE",
"559 619 OFFCURVE",
"559 529 CURVE SMOOTH",
"559 430 OFFCURVE",
"493 377 OFFCURVE",
"391 377 CURVE SMOOTH",
"271 377 LINE",
"271 338 LINE",
"418 338 LINE SMOOTH",
"538 338 OFFCURVE",
"604 288 OFFCURVE",
"604 192 CURVE SMOOTH",
"604 96 OFFCURVE",
"539 33 OFFCURVE",
"429 33 CURVE SMOOTH",
"359 33 OFFCURVE",
"306 50 OFFCURVE",
"254 97 CURVE",
"232 62 LINE",
"278 16 OFFCURVE",
"348 -7 OFFCURVE",
"426 -7 CURVE SMOOTH",
"563 -7 OFFCURVE",
"642 72 OFFCURVE",
"642 191 CURVE SMOOTH",
"642 290 OFFCURVE",
"587 353 OFFCURVE",
"470 371 CURVE",
"470 358 LINE",
"548 375 OFFCURVE",
"601 440 OFFCURVE",
"601 529 CURVE SMOOTH",
"601 643 OFFCURVE",
"510 713 OFFCURVE",
"372 713 CURVE SMOOTH",
"210 713 OFFCURVE",
"112 630 OFFCURVE",
"112 464 CURVE SMOOTH",
"112 0 LINE"
);
}
);
};
layerId = "B0DFB0A8-5D2F-4351-A1F8-6629D0DA694C";
paths = (
{
closed = 1;
nodes = (
"154 0 LINE",
"154 457 LINE SMOOTH",
"154 604 OFFCURVE",
"234 672 OFFCURVE",
"373 672 CURVE SMOOTH",
"490 672 OFFCURVE",
"559 619 OFFCURVE",
"559 529 CURVE SMOOTH",
"559 430 OFFCURVE",
"493 377 OFFCURVE",
"391 377 CURVE SMOOTH",
"271 377 LINE",
"271 338 LINE",
"418 338 LINE SMOOTH",
"538 338 OFFCURVE",
"604 288 OFFCURVE",
"604 192 CURVE SMOOTH",
"604 96 OFFCURVE",
"539 33 OFFCURVE",
"429 33 CURVE SMOOTH",
"359 33 OFFCURVE",
"306 50 OFFCURVE",
"254 97 CURVE",
"232 62 LINE",
"278 16 OFFCURVE",
"348 -7 OFFCURVE",
"426 -7 CURVE SMOOTH",
"563 -7 OFFCURVE",
"642 72 OFFCURVE",
"642 191 CURVE SMOOTH",
"642 290 OFFCURVE",
"587 353 OFFCURVE",
"470 371 CURVE",
"470 358 LINE",
"548 375 OFFCURVE",
"601 440 OFFCURVE",
"601 529 CURVE SMOOTH",
"601 643 OFFCURVE",
"510 713 OFFCURVE",
"372 713 CURVE SMOOTH",
"210 713 OFFCURVE",
"112 630 OFFCURVE",
"112 464 CURVE SMOOTH",
"112 0 LINE"
);
}
);
width = 713;
}
);
leftKerningGroup = H;
leftMetricsKey = H;
rightKerningGroup = Germandbls;
rightMetricsKey = B;
unicode = 1E9E;
},
{
color = 3;
glyphname = Schwa;
lastChange = "2019-07-24 09:48:34 +0000";
layers = (
{
anchors = (
{
name = bottom;
position = "{364, 0}";
},
{
name = top;
position = "{364, 705}";
}
);
background = {
anchors = (
{
name = bottom;
position = "{364, 0}";
},
{
name = top;
position = "{364, 705}";
}
);
paths = (
{
closed = 1;
nodes = (
"547 -8 OFFCURVE",
"661 129 OFFCURVE",
"661 353 CURVE SMOOTH",
"661 577 OFFCURVE",
"540 713 OFFCURVE",
"342 713 CURVE SMOOTH",
"245 713 OFFCURVE",
"152 678 OFFCURVE",
"93 618 CURVE",
"114 583 LINE",
"180 644 OFFCURVE",
"254 673 OFFCURVE",
"344 673 CURVE SMOOTH",
"517 673 OFFCURVE",
"617 556 OFFCURVE",
"617 353 CURVE SMOOTH",
"617 151 OFFCURVE",
"523 33 OFFCURVE",
"363 33 CURVE SMOOTH",
"205 33 OFFCURVE",
"111 146 OFFCURVE",
"111 353 CURVE",
"99 337 LINE",
"644 337 LINE",
"644 376 LINE",
"67 376 LINE",
"67 348 LINE SMOOTH",
"67 128 OFFCURVE",
"181 -8 OFFCURVE",
"363 -8 CURVE SMOOTH"
);
}
);
};
layerId = "F1F93986-3ED8-4AAE-84C4-CA3EEECDDFA0";
paths = (
{
closed = 1;
nodes = (
"547 -8 OFFCURVE",
"661 129 OFFCURVE",
"661 353 CURVE SMOOTH",
"661 577 OFFCURVE",
"540 713 OFFCURVE",
"342 713 CURVE SMOOTH",
"245 713 OFFCURVE",
"152 678 OFFCURVE",
"93 618 CURVE",
"114 583 LINE",
"180 644 OFFCURVE",
"254 673 OFFCURVE",
"344 673 CURVE SMOOTH",
"517 673 OFFCURVE",
"617 556 OFFCURVE",
"617 353 CURVE SMOOTH",
"617 151 OFFCURVE",
"523 33 OFFCURVE",
"363 33 CURVE SMOOTH",
"205 33 OFFCURVE",
"111 146 OFFCURVE",
"111 353 CURVE",
"99 337 LINE",
"644 337 LINE",
"644 376 LINE",
"67 376 LINE",
"67 348 LINE SMOOTH",
"67 128 OFFCURVE",
"181 -8 OFFCURVE",
"363 -8 CURVE SMOOTH"
);
}
);
width = 728;
},
{
anchors = (
{
name = bottom;
position = "{380, 0}";
},
{
name = top;
position = "{380, 705}";
}
);
background = {
anchors = (
{
name = bottom;
position = "{380, 0}";
},
{
name = top;
position = "{380, 705}";
}
);
paths = (
{
closed = 1;
nodes = (
"563 -8 OFFCURVE",
"677 129 OFFCURVE",
"677 353 CURVE SMOOTH",
"677 577 OFFCURVE",
"556 713 OFFCURVE",
"358 713 CURVE SMOOTH",
"261 713 OFFCURVE",
"168 678 OFFCURVE",
"109 618 CURVE",
"130 583 LINE",
"196 644 OFFCURVE",
"270 673 OFFCURVE",
"360 673 CURVE SMOOTH",
"533 673 OFFCURVE",
"633 556 OFFCURVE",
"633 353 CURVE SMOOTH",
"633 151 OFFCURVE",
"539 33 OFFCURVE",
"379 33 CURVE SMOOTH",
"221 33 OFFCURVE",
"127 146 OFFCURVE",
"127 353 CURVE",
"115 337 LINE",
"660 337 LINE",
"660 376 LINE",
"83 376 LINE",
"83 348 LINE SMOOTH",
"83 128 OFFCURVE",
"197 -8 OFFCURVE",
"379 -8 CURVE SMOOTH"
);
}
);
};
layerId = "B0DFB0A8-5D2F-4351-A1F8-6629D0DA694C";
paths = (
{
closed = 1;
nodes = (
"563 -8 OFFCURVE",
"677 129 OFFCURVE",
"677 353 CURVE SMOOTH",
"677 577 OFFCURVE",
"556 713 OFFCURVE",
"358 713 CURVE SMOOTH",
"261 713 OFFCURVE",
"168 678 OFFCURVE",
"109 618 CURVE",
"130 583 LINE",
"196 644 OFFCURVE",
"270 673 OFFCURVE",
"360 673 CURVE SMOOTH",
"533 673 OFFCURVE",
"633 556 OFFCURVE",
"633 353 CURVE SMOOTH",
"633 151 OFFCURVE",
"539 33 OFFCURVE",
"379 33 CURVE SMOOTH",
"221 33 OFFCURVE",
"127 146 OFFCURVE",
"127 353 CURVE",
"115 337 LINE",
"660 337 LINE",
"660 376 LINE",
"83 376 LINE",
"83 348 LINE SMOOTH",
"83 128 OFFCURVE",
"197 -8 OFFCURVE",
"379 -8 CURVE SMOOTH"
);
}
);
width = 760;
}
);
leftKerningGroup = O;
leftMetricsKey = O;
rightKerningGroup = O;
rightMetricsKey = O;
unicode = 018F;
},
{
color = 3;
glyphname = T;
lastChange = "2019-07-23 14:13:44 +0000";
layers = (
{
anchors = (
{
name = bottom;
position = "{290, 0}";
},
{
name = center;
position = "{290, 358}";
},
{
name = top;
position = "{290, 705}";
}
);
background = {
anchors = (
{
name = bottom;
position = "{290, 0}";
},
{
name = center;
position = "{290, 358}";
},
{
name = top;
position = "{290, 705}";
}
);
paths = (
{
closed = 1;
nodes = (
"311 0 LINE",
"311 666 LINE",
"570 666 LINE",
"570 705 LINE",
"10 705 LINE",
"10 666 LINE",
"269 666 LINE",
"269 0 LINE"
);
}
);
};
layerId = "F1F93986-3ED8-4AAE-84C4-CA3EEECDDFA0";
paths = (
{
closed = 1;
nodes = (
"311 0 LINE",
"311 666 LINE",
"570 666 LINE",
"570 705 LINE",
"10 705 LINE",
"10 666 LINE",
"269 666 LINE",
"269 0 LINE"
);
}
);
width = 580;
},
{
anchors = (
{
name = bottom;
position = "{290, 0}";
},
{
name = center;
position = "{290, 358}";
},
{
name = top;
position = "{290, 705}";
}
);
background = {
anchors = (
{
name = bottom;
position = "{290, 0}";
},
{
name = center;
position = "{290, 358}";
},
{
name = top;
position = "{290, 705}";
}
);
paths = (
{
closed = 1;
nodes = (
"311 0 LINE",
"311 666 LINE",
"570 666 LINE",
"570 705 LINE",
"10 705 LINE",
"10 666 LINE",
"269 666 LINE",
"269 0 LINE"
);
}
);
};
layerId = "B0DFB0A8-5D2F-4351-A1F8-6629D0DA694C";
paths = (
{
closed = 1;
nodes = (
"311 0 LINE",
"311 666 LINE",
"570 666 LINE",
"570 705 LINE",
"10 705 LINE",
"10 666 LINE",
"269 666 LINE",
"269 0 LINE"
);
}
);
width = 580;
}
);
leftKerningGroup = T;
rightKerningGroup = T;
unicode = 0054;
userData = {
anchors = (
);
b = {
};
com.typemytype.robofont.layerData = {
b = {
anchors = (
);
components = (
);
contours = (
{
points = (
{
segmentType = curve;
smooth = 1;
x = 581;
y = 0;
},
{
segmentType = line;
smooth = 1;
x = 1350;
y = 0;
},
{
smooth = 0;
x = 1399;
y = 0;
},
{
smooth = 0;
x = 1423;
y = 34;
},
{
segmentType = curve;
smooth = 1;
x = 1423;
y = 71;
},
{
smooth = 0;
x = 1423;
y = 107;
},
{
smooth = 0;
x = 1399;
y = 141;
},
{
segmentType = curve;
smooth = 1;
x = 1350;
y = 141;
},
{
segmentType = line;
smooth = 0;
x = 671;
y = 141;
},
{
segmentType = line;
smooth = 0;
x = 671;
y = 665;
},
{
segmentType = line;
smooth = 1;
x = 1290;
y = 665;
},
{
smooth = 0;
x = 1339;
y = 665;
},
{
smooth = 0;
x = 1364;
y = 698;
},
{
segmentType = curve;
smooth = 1;
x = 1364;
y = 734;
},
{
smooth = 0;
x = 1364;
y = 770;
},
{
smooth = 0;
x = 1341;
y = 803;
},
{
segmentType = curve;
smooth = 1;
x = 1290;
y = 803;
},
{
segmentType = line;
smooth = 0;
x = 671;
y = 803;
},
{
segmentType = line;
smooth = 0;
x = 671;
y = 1285;
},
{
segmentType = line;
smooth = 1;
x = 1322;
y = 1285;
},
{
smooth = 0;
x = 1371;
y = 1285;
},
{
smooth = 0;
x = 1395;
y = 1319;
},
{
segmentType = curve;
smooth = 1;
x = 1395;
y = 1356;
},
{
smooth = 0;
x = 1395;
y = 1392;
},
{
smooth = 0;
x = 1371;
y = 1426;
},
{
segmentType = curve;
smooth = 1;
x = 1322;
y = 1426;
},
{
segmentType = line;
smooth = 1;
x = 576;
y = 1426;
},
{
smooth = 0;
x = 528;
y = 1426;
},
{
smooth = 0;
x = 493;
y = 1383;
},
{
segmentType = curve;
smooth = 1;
x = 493;
y = 1340;
},
{
segmentType = line;
smooth = 1;
x = 493;
y = 86;
},
{
smooth = 0;
x = 493;
y = 41;
},
{
smooth = 0;
x = 537;
y = 0;
}
);
}
);
lib = {
};
name = T;
unicodes = (
);
width = 1158;
};
};
components = (
);
contours = (
);
lib = {
};
name = T;
unicodes = (
);
width = 1199;
};
},
{
color = 3;
glyphname = U;
lastChange = "2019-07-23 14:13:44 +0000";
layers = (
{
anchors = (
{
name = bottom;
position = "{358, 0}";
},
{
name = ogonek;
position = "{415, 0}";
},
{
name = top;
position = "{358, 705}";
},
{
name = topright;
position = "{584, 705}";
}
);
background = {
anchors = (
{
name = bottom;
position = "{358, 0}";
},
{
name = ogonek;
position = "{415, 0}";
},
{
name = top;
position = "{358, 705}";
},
{
name = topright;
position = "{584, 705}";
}
);
paths = (
{
closed = 1;
nodes = (
"533 -8 OFFCURVE",
"625 86 OFFCURVE",
"625 267 CURVE SMOOTH",
"625 705 LINE",
"583 705 LINE",
"583 260 LINE SMOOTH",
"583 109 OFFCURVE",
"506 33 OFFCURVE",
"358 33 CURVE SMOOTH",
"208 33 OFFCURVE",
"133 109 OFFCURVE",
"133 260 CURVE SMOOTH",
"133 705 LINE",
"91 705 LINE",
"91 267 LINE SMOOTH",
"91 86 OFFCURVE",
"182 -8 OFFCURVE",
"358 -8 CURVE SMOOTH"
);
}
);
};
layerId = "F1F93986-3ED8-4AAE-84C4-CA3EEECDDFA0";
paths = (
{
closed = 1;
nodes = (
"533 -8 OFFCURVE",
"625 86 OFFCURVE",
"625 267 CURVE SMOOTH",
"625 705 LINE",
"583 705 LINE",
"583 260 LINE SMOOTH",
"583 109 OFFCURVE",
"506 33 OFFCURVE",
"358 33 CURVE SMOOTH",
"208 33 OFFCURVE",
"133 109 OFFCURVE",
"133 260 CURVE SMOOTH",
"133 705 LINE",
"91 705 LINE",
"91 267 LINE SMOOTH",
"91 86 OFFCURVE",
"182 -8 OFFCURVE",
"358 -8 CURVE SMOOTH"
);
}
);
width = 716;
},
{
anchors = (
{
name = bottom;
position = "{358, 0}";
},
{
name = ogonek;
position = "{415, 0}";
},
{
name = top;
position = "{358, 705}";
},
{
name = topright;
position = "{584, 705}";
}
);
background = {
anchors = (
{
name = bottom;
position = "{358, 0}";
},
{
name = ogonek;
position = "{415, 0}";
},
{
name = top;
position = "{358, 705}";
},
{
name = topright;
position = "{584, 705}";
}
);
paths = (
{
closed = 1;
nodes = (
"533 -8 OFFCURVE",
"625 86 OFFCURVE",
"625 267 CURVE SMOOTH",
"625 705 LINE",
"583 705 LINE",
"583 260 LINE SMOOTH",
"583 109 OFFCURVE",
"506 33 OFFCURVE",
"358 33 CURVE SMOOTH",
"208 33 OFFCURVE",
"133 109 OFFCURVE",
"133 260 CURVE SMOOTH",
"133 705 LINE",
"91 705 LINE",
"91 267 LINE SMOOTH",
"91 86 OFFCURVE",
"182 -8 OFFCURVE",
"358 -8 CURVE SMOOTH"
);
}
);
};
layerId = "B0DFB0A8-5D2F-4351-A1F8-6629D0DA694C";
paths = (
{
closed = 1;
nodes = (
"533 -8 OFFCURVE",
"625 86 OFFCURVE",
"625 267 CURVE SMOOTH",
"625 705 LINE",
"583 705 LINE",
"583 260 LINE SMOOTH",
"583 109 OFFCURVE",
"506 33 OFFCURVE",
"358 33 CURVE SMOOTH",
"208 33 OFFCURVE",
"133 109 OFFCURVE",
"133 260 CURVE SMOOTH",
"133 705 LINE",
"91 705 LINE",
"91 267 LINE SMOOTH",
"91 86 OFFCURVE",
"182 -8 OFFCURVE",
"358 -8 CURVE SMOOTH"
);
}
);
width = 716;
}
);
leftKerningGroup = U;
rightKerningGroup = U;
unicode = 0055;
userData = {
anchors = (
);
b = {
};
com.typemytype.robofont.layerData = {
b = {
anchors = (
);
components = (
);
contours = (
);
lib = {
};
name = U;
unicodes = (
);
width = 1490;
};
};
components = (
);
contours = (
);
lib = {
};
name = U;
unicodes = (
);
width = 1513;
};
},
{
color = 3;
glyphname = V;
lastChange = "2019-07-23 14:13:44 +0000";
layers = (
{
anchors = (
{
name = bottom;
position = "{334, 0}";
},
{
name = top;
position = "{333, 705}";
}
);
background = {
anchors = (
{
name = bottom;
position = "{334, 0}";
},
{
name = top;
position = "{333, 705}";
}
);
paths = (
{
closed = 1;
nodes = (
"355 0 LINE",
"659 705 LINE",
"613 705 LINE",
"321 24 LINE",
"345 24 LINE",
"53 705 LINE",
"8 705 LINE",
"310 0 LINE"
);
}
);
};
layerId = "F1F93986-3ED8-4AAE-84C4-CA3EEECDDFA0";
paths = (
{
closed = 1;
nodes = (
"355 0 LINE",
"659 705 LINE",
"613 705 LINE",
"321 24 LINE",
"345 24 LINE",
"53 705 LINE",
"8 705 LINE",
"310 0 LINE"
);
}
);
width = 666;
},
{
anchors = (
{
name = bottom;
position = "{334, 0}";
},
{
name = top;
position = "{333, 705}";
}
);
background = {
anchors = (
{
name = bottom;
position = "{334, 0}";
},
{
name = top;
position = "{333, 705}";
}
);
paths = (
{
closed = 1;
nodes = (
"355 0 LINE",
"659 705 LINE",
"613 705 LINE",
"321 24 LINE",
"345 24 LINE",
"53 705 LINE",
"8 705 LINE",
"310 0 LINE"
);
}
);
};
layerId = "B0DFB0A8-5D2F-4351-A1F8-6629D0DA694C";
paths = (
{
closed = 1;
nodes = (
"355 0 LINE",
"659 705 LINE",
"613 705 LINE",
"321 24 LINE",
"345 24 LINE",
"53 705 LINE",
"8 705 LINE",
"310 0 LINE"
);
}
);
width = 666;
}
);
leftKerningGroup = V;
rightKerningGroup = V;
unicode = 0056;
userData = {
anchors = (
);
b = {
};
com.typemytype.robofont.guides = (
);
com.typemytype.robofont.layerData = {
b = {
anchors = (
);
components = (
);
contours = (
{
points = (
{
segmentType = curve;
smooth = 1;
x = 644;
y = "-5";
},
{
smooth = 0;
x = 712;
y = "-5";
},
{
smooth = 0;
x = 764;
y = 38;
},
{
segmentType = curve;
smooth = 1;
x = 793;
y = 117;
},
{
segmentType = line;
smooth = 1;
x = 1243;
y = 1324;
},
{
smooth = 0;
x = 1247;
y = 1335;
},
{
smooth = 0;
x = 1248;
y = 1342;
},
{
segmentType = curve;
smooth = 1;
x = 1248;
y = 1351;
},
{
smooth = 0;
x = 1248;
y = 1395;
},
{
smooth = 0;
x = 1203;
y = 1427;
},
{
segmentType = curve;
smooth = 1;
x = 1160;
y = 1427;
},
{
smooth = 0;
x = 1125;
y = 1427;
},
{
smooth = 0;
x = 1090;
y = 1408;
},
{
segmentType = curve;
smooth = 1;
x = 1076;
y = 1369;
},
{
segmentType = line;
smooth = 0;
x = 651;
y = 192;
},
{
segmentType = line;
smooth = 0;
x = 650;
y = 190;
},
{
segmentType = line;
smooth = 1;
x = 214;
y = 1370;
},
{
smooth = 0;
x = 200;
y = 1407;
},
{
smooth = 0;
x = 170;
y = 1427;
},
{
segmentType = curve;
smooth = 1;
x = 135;
y = 1427;
},
{
smooth = 0;
x = 90;
y = 1427;
},
{
smooth = 0;
x = 43;
y = 1392;
},
{
segmentType = curve;
smooth = 1;
x = 43;
y = 1344;
},
{
smooth = 0;
x = 43;
y = 1336;
},
{
smooth = 0;
x = 44;
y = 1326;
},
{
segmentType = curve;
smooth = 0;
x = 48;
y = 1318;
},
{
segmentType = line;
smooth = 1;
x = 501;
y = 117;
},
{
smooth = 0;
x = 532;
y = 35;
},
{
smooth = 0;
x = 581;
y = "-5";
}
);
}
);
lib = {
};
name = V;
unicodes = (
);
width = 1289;
};
};
components = (
);
contours = (
);
lib = {
};
name = V;
unicodes = (
);
width = 1365;
};
},
{
color = 3;
glyphname = W;
lastChange = "2019-07-23 14:13:44 +0000";
layers = (
{
anchors = (
{
name = bottom;
position = "{546, 0}";
},
{
name = top;
position = "{545, 705}";
}
);
background = {
anchors = (
{
name = bottom;
position = "{546, 0}";
},
{
name = top;
position = "{545, 705}";
}
);
paths = (
{
closed = 1;
nodes = (
"323 0 LINE",
"555 671 LINE",
"535 671 LINE",
"766 0 LINE",
"809 0 LINE",
"1053 705 LINE",
"1010 705 LINE",
"773 19 LINE",
"801 19 LINE",
"564 705 LINE",
"525 705 LINE",
"288 19 LINE",
"318 19 LINE",
"82 705 LINE",
"38 705 LINE",
"282 0 LINE"
);
}
);
};
layerId = "F1F93986-3ED8-4AAE-84C4-CA3EEECDDFA0";
paths = (
{
closed = 1;
nodes = (
"323 0 LINE",
"555 671 LINE",
"535 671 LINE",
"766 0 LINE",
"809 0 LINE",
"1053 705 LINE",
"1010 705 LINE",
"773 19 LINE",
"801 19 LINE",
"564 705 LINE",
"525 705 LINE",
"288 19 LINE",
"318 19 LINE",
"82 705 LINE",
"38 705 LINE",
"282 0 LINE"
);
}
);
width = 1091;
},
{
anchors = (
{
name = bottom;
position = "{546, 0}";
},
{
name = top;
position = "{545, 705}";
}
);
background = {
anchors = (
{
name = bottom;
position = "{546, 0}";
},
{
name = top;
position = "{545, 705}";
}
);
paths = (
{
closed = 1;
nodes = (
"323 0 LINE",
"555 671 LINE",
"535 671 LINE",
"766 0 LINE",
"809 0 LINE",
"1053 705 LINE",
"1010 705 LINE",
"773 19 LINE",
"801 19 LINE",
"564 705 LINE",
"525 705 LINE",
"288 19 LINE",
"318 19 LINE",
"82 705 LINE",
"38 705 LINE",
"282 0 LINE"
);
}
);
};
layerId = "B0DFB0A8-5D2F-4351-A1F8-6629D0DA694C";
paths = (
{
closed = 1;
nodes = (
"323 0 LINE",
"555 671 LINE",
"535 671 LINE",
"766 0 LINE",
"809 0 LINE",
"1053 705 LINE",
"1010 705 LINE",
"773 19 LINE",
"801 19 LINE",
"564 705 LINE",
"525 705 LINE",
"288 19 LINE",
"318 19 LINE",
"82 705 LINE",
"38 705 LINE",
"282 0 LINE"
);
}
);
width = 1091;
}
);
leftKerningGroup = V;
rightKerningGroup = V;
unicode = 0057;
userData = {
anchors = (
);
b = {
};
com.typemytype.robofont.layerData = {
b = {
anchors = (
);
components = (
);
contours = (
);
lib = {
};
name = W;
unicodes = (
);
width = 2126;
};
};
components = (
);
contours = (
);
lib = {
};
name = W;
unicodes = (
);
width = 2070;
};
},
{
color = 3;
glyphname = X;
lastChange = "2019-07-23 14:13:44 +0000";
layers = (
{
anchors = (
{
name = bottom;
position = "{316, 0}";
},
{
name = top;
position = "{316, 705}";
}
);
background = {
anchors = (
{
name = bottom;
position = "{316, 0}";
},
{
name = top;
position = "{316, 705}";
}
);
paths = (
{
closed = 1;
nodes = (
"591 705 LINE",
"543 705 LINE",
"311 387 LINE",
"323 387 LINE",
"89 705 LINE",
"40 705 LINE",
"296 357 LINE",
"296 368 LINE",
"24 0 LINE",
"74 0 LINE",
"325 342 LINE",
"306 342 LINE",
"557 0 LINE",
"606 0 LINE",
"333 371 LINE",
"333 352 LINE"
);
}
);
};
layerId = "F1F93986-3ED8-4AAE-84C4-CA3EEECDDFA0";
paths = (
{
closed = 1;
nodes = (
"591 705 LINE",
"543 705 LINE",
"311 387 LINE",
"323 387 LINE",
"89 705 LINE",
"40 705 LINE",
"296 357 LINE",
"296 368 LINE",
"24 0 LINE",
"74 0 LINE",
"325 342 LINE",
"306 342 LINE",
"557 0 LINE",
"606 0 LINE",
"333 371 LINE",
"333 352 LINE"
);
}
);
width = 630;
},
{
anchors = (
{
name = bottom;
position = "{316, 0}";
},
{
name = top;
position = "{316, 705}";
}
);
background = {
anchors = (
{
name = bottom;
position = "{316, 0}";
},
{
name = top;
position = "{316, 705}";
}
);
paths = (
{
closed = 1;
nodes = (
"591 705 LINE",
"543 705 LINE",
"311 387 LINE",
"323 387 LINE",
"89 705 LINE",
"40 705 LINE",
"296 357 LINE",
"296 368 LINE",
"24 0 LINE",
"74 0 LINE",
"325 342 LINE",
"306 342 LINE",
"557 0 LINE",
"606 0 LINE",
"333 371 LINE",
"333 352 LINE"
);
}
);
};
layerId = "B0DFB0A8-5D2F-4351-A1F8-6629D0DA694C";
paths = (
{
closed = 1;
nodes = (
"591 705 LINE",
"543 705 LINE",
"311 387 LINE",
"323 387 LINE",
"89 705 LINE",
"40 705 LINE",
"296 357 LINE",
"296 368 LINE",
"24 0 LINE",
"74 0 LINE",
"325 342 LINE",
"306 342 LINE",
"557 0 LINE",
"606 0 LINE",
"333 371 LINE",
"333 352 LINE"
);
}
);
width = 630;
}
);
leftKerningGroup = X;
rightKerningGroup = X;
unicode = 0058;
userData = {
anchors = (
);
b = {
};
com.typemytype.robofont.layerData = {
b = {
anchors = (
);
components = (
);
contours = (
{
points = (
{
segmentType = curve;
smooth = 1;
x = 151;
y = 0;
},
{
smooth = 0;
x = 176;
y = 0;
},
{
smooth = 0;
x = 201;
y = 12;
},
{
segmentType = curve;
smooth = 1;
x = 222;
y = 41;
},
{
segmentType = line;
smooth = 0;
x = 641;
y = 616;
},
{
segmentType = line;
smooth = 0;
x = 746;
y = 734;
},
{
segmentType = line;
smooth = 1;
x = 1175;
y = 1310;
},
{
smooth = 0;
x = 1186;
y = 1325;
},
{
smooth = 0;
x = 1190;
y = 1338;
},
{
segmentType = curve;
smooth = 1;
x = 1190;
y = 1353;
},
{
smooth = 0;
x = 1190;
y = 1393;
},
{
smooth = 0;
x = 1153;
y = 1426;
},
{
segmentType = curve;
smooth = 1;
x = 1110;
y = 1426;
},
{
smooth = 0;
x = 1083;
y = 1426;
},
{
smooth = 0;
x = 1058;
y = 1414;
},
{
segmentType = curve;
smooth = 1;
x = 1037;
y = 1385;
},
{
segmentType = line;
smooth = 0;
x = 648;
y = 844;
},
{
segmentType = line;
smooth = 0;
x = 542;
y = 732;
},
{
segmentType = line;
smooth = 1;
x = 84;
y = 121;
},
{
smooth = 0;
x = 73;
y = 106;
},
{
smooth = 0;
x = 68;
y = 91;
},
{
segmentType = curve;
smooth = 1;
x = 68;
y = 76;
},
{
smooth = 0;
x = 68;
y = 35;
},
{
smooth = 0;
x = 108;
y = 0;
}
);
},
{
points = (
{
segmentType = curve;
smooth = 1;
x = 1104;
y = 0;
},
{
smooth = 0;
x = 1151;
y = 0;
},
{
smooth = 0;
x = 1200;
y = 40;
},
{
segmentType = curve;
smooth = 1;
x = 1200;
y = 85;
},
{
smooth = 0;
x = 1200;
y = 98;
},
{
smooth = 0;
x = 1195;
y = 113;
},
{
segmentType = curve;
smooth = 0;
x = 1186;
y = 126;
},
{
segmentType = line;
smooth = 0;
x = 272;
y = 1385;
},
{
smooth = 0;
x = 252;
y = 1414;
},
{
smooth = 0;
x = 225;
y = 1426;
},
{
segmentType = curve;
smooth = 1;
x = 197;
y = 1426;
},
{
smooth = 0;
x = 149;
y = 1426;
},
{
smooth = 0;
x = 100;
y = 1388;
},
{
segmentType = curve;
smooth = 1;
x = 100;
y = 1343;
},
{
smooth = 0;
x = 100;
y = 1328;
},
{
smooth = 0;
x = 105;
y = 1315;
},
{
segmentType = curve;
smooth = 0;
x = 114;
y = 1303;
},
{
segmentType = line;
smooth = 0;
x = 1033;
y = 40;
},
{
smooth = 0;
x = 1052;
y = 13;
},
{
smooth = 0;
x = 1076;
y = 0;
}
);
}
);
lib = {
};
name = X;
unicodes = (
);
width = 1274;
};
};
components = (
);
contours = (
);
lib = {
};
name = X;
unicodes = (
);
width = 1322;
};
},
{
color = 3;
glyphname = Y;
lastChange = "2019-07-23 14:13:44 +0000";
layers = (
{
anchors = (
{
name = bottom;
position = "{288, 0}";
},
{
name = top;
position = "{288, 705}";
},
{
name = topleft;
position = "{17, 705}";
}
);
background = {
anchors = (
{
name = bottom;
position = "{288, 0}";
},
{
name = top;
position = "{288, 705}";
},
{
name = topleft;
position = "{17, 705}";
}
);
paths = (
{
closed = 1;
nodes = (
"309 0 LINE",
"309 367 LINE",
"299 328 LINE",
"577 705 LINE",
"530 705 LINE",
"282 368 LINE",
"297 368 LINE",
"48 705 LINE",
"-1 705 LINE",
"278 328 LINE",
"267 367 LINE",
"267 0 LINE"
);
}
);
};
layerId = "F1F93986-3ED8-4AAE-84C4-CA3EEECDDFA0";
paths = (
{
closed = 1;
nodes = (
"309 0 LINE",
"309 367 LINE",
"299 328 LINE",
"577 705 LINE",
"530 705 LINE",
"282 368 LINE",
"297 368 LINE",
"48 705 LINE",
"-1 705 LINE",
"278 328 LINE",
"267 367 LINE",
"267 0 LINE"
);
}
);
width = 577;
},
{
anchors = (
{
name = bottom;
position = "{288, 0}";
},
{
name = top;
position = "{288, 705}";
},
{
name = topleft;
position = "{17, 705}";
}
);
background = {
anchors = (
{
name = bottom;
position = "{288, 0}";
},
{
name = top;
position = "{288, 705}";
},
{
name = topleft;
position = "{17, 705}";
}
);
paths = (
{
closed = 1;
nodes = (
"309 0 LINE",
"309 367 LINE",
"299 328 LINE",
"577 705 LINE",
"530 705 LINE",
"282 368 LINE",
"297 368 LINE",
"48 705 LINE",
"-1 705 LINE",
"278 328 LINE",
"267 367 LINE",
"267 0 LINE"
);
}
);
};
layerId = "B0DFB0A8-5D2F-4351-A1F8-6629D0DA694C";
paths = (
{
closed = 1;
nodes = (
"309 0 LINE",
"309 367 LINE",
"299 328 LINE",
"577 705 LINE",
"530 705 LINE",
"282 368 LINE",
"297 368 LINE",
"48 705 LINE",
"-1 705 LINE",
"278 328 LINE",
"267 367 LINE",
"267 0 LINE"
);
}
);
width = 577;
}
);
leftKerningGroup = Y;
rightKerningGroup = Y;
unicode = 0059;
userData = {
anchors = (
);
b = {
};
com.typemytype.robofont.guides = (
);
com.typemytype.robofont.layerData = {
b = {
anchors = (
);
components = (
);
contours = (
{
points = (
{
segmentType = curve;
smooth = 1;
x = 641;
y = 0;
},
{
smooth = 0;
x = 685;
y = 0;
},
{
smooth = 0;
x = 730;
y = 29;
},
{
segmentType = curve;
smooth = 1;
x = 730;
y = 85;
},
{
segmentType = line;
smooth = 0;
x = 730;
y = 1285;
},
{
segmentType = line;
smooth = 1;
x = 1115;
y = 1285;
},
{
smooth = 0;
x = 1164;
y = 1285;
},
{
smooth = 0;
x = 1190;
y = 1319;
},
{
segmentType = curve;
smooth = 1;
x = 1190;
y = 1355;
},
{
smooth = 0;
x = 1190;
y = 1392;
},
{
smooth = 0;
x = 1166;
y = 1426;
},
{
segmentType = curve;
smooth = 1;
x = 1115;
y = 1426;
},
{
segmentType = line;
smooth = 1;
x = 160;
y = 1426;
},
{
smooth = 0;
x = 111;
y = 1426;
},
{
smooth = 0;
x = 86;
y = 1392;
},
{
segmentType = curve;
smooth = 1;
x = 86;
y = 1355;
},
{
smooth = 0;
x = 86;
y = 1319;
},
{
smooth = 0;
x = 111;
y = 1285;
},
{
segmentType = curve;
smooth = 1;
x = 160;
y = 1285;
},
{
segmentType = line;
smooth = 0;
x = 552;
y = 1285;
},
{
segmentType = line;
smooth = 1;
x = 552;
y = 85;
},
{
smooth = 0;
x = 552;
y = 29;
},
{
smooth = 0;
x = 596;
y = 0;
}
);
}
);
lib = {
};
name = Y;
unicodes = (
);
width = 1278;
};
};
components = (
);
contours = (
);
lib = {
};
name = Y;
unicodes = (
);
width = 1321;
};
},
{
color = 3;
glyphname = Z;
lastChange = "2019-07-23 14:13:44 +0000";
layers = (
{
anchors = (
{
name = bottom;
position = "{295, 0}";
},
{
name = top;
position = "{286, 705}";
}
);
background = {
anchors = (
{
name = bottom;
position = "{295, 0}";
},
{
name = top;
position = "{286, 705}";
}
);
paths = (
{
closed = 1;
nodes = (
"539 0 LINE",
"539 39 LINE",
"79 39 LINE",
"79 16 LINE",
"529 674 LINE",
"529 705 LINE",
"40 705 LINE",
"40 666 LINE",
"490 666 LINE",
"490 689 LINE",
"40 31 LINE",
"40 0 LINE"
);
}
);
};
layerId = "F1F93986-3ED8-4AAE-84C4-CA3EEECDDFA0";
paths = (
{
closed = 1;
nodes = (
"539 0 LINE",
"539 39 LINE",
"79 39 LINE",
"79 16 LINE",
"529 674 LINE",
"529 705 LINE",
"40 705 LINE",
"40 666 LINE",
"490 666 LINE",
"490 689 LINE",
"40 31 LINE",
"40 0 LINE"
);
}
);
width = 575;
},
{
anchors = (
{
name = bottom;
position = "{295, 0}";
},
{
name = top;
position = "{286, 705}";
}
);
background = {
anchors = (
{
name = bottom;
position = "{295, 0}";
},
{
name = top;
position = "{286, 705}";
}
);
paths = (
{
closed = 1;
nodes = (
"539 0 LINE",
"539 39 LINE",
"79 39 LINE",
"79 16 LINE",
"529 674 LINE",
"529 705 LINE",
"40 705 LINE",
"40 666 LINE",
"490 666 LINE",
"490 689 LINE",
"40 31 LINE",
"40 0 LINE"
);
}
);
};
layerId = "B0DFB0A8-5D2F-4351-A1F8-6629D0DA694C";
paths = (
{
closed = 1;
nodes = (
"539 0 LINE",
"539 39 LINE",
"79 39 LINE",
"79 16 LINE",
"529 674 LINE",
"529 705 LINE",
"40 705 LINE",
"40 666 LINE",
"490 666 LINE",
"490 689 LINE",
"40 31 LINE",
"40 0 LINE"
);
}
);
width = 575;
}
);
leftKerningGroup = Z;
rightKerningGroup = Z;
unicode = 005A;
userData = {
anchors = (
);
b = {
};
com.typemytype.robofont.layerData = {
b = {
anchors = (
);
components = (
);
contours = (
{
points = (
{
segmentType = curve;
smooth = 1;
x = 266;
y = 0;
},
{
segmentType = line;
smooth = 1;
x = 1035;
y = 0;
},
{
smooth = 0;
x = 1084;
y = 0;
},
{
smooth = 0;
x = 1108;
y = 34;
},
{
segmentType = curve;
smooth = 1;
x = 1108;
y = 71;
},
{
smooth = 0;
x = 1108;
y = 107;
},
{
smooth = 0;
x = 1084;
y = 141;
},
{
segmentType = curve;
smooth = 1;
x = 1035;
y = 141;
},
{
segmentType = line;
smooth = 0;
x = 356;
y = 141;
},
{
segmentType = line;
smooth = 0;
x = 356;
y = 665;
},
{
segmentType = line;
smooth = 1;
x = 975;
y = 665;
},
{
smooth = 0;
x = 1024;
y = 665;
},
{
smooth = 0;
x = 1049;
y = 698;
},
{
segmentType = curve;
smooth = 1;
x = 1049;
y = 734;
},
{
smooth = 0;
x = 1049;
y = 770;
},
{
smooth = 0;
x = 1026;
y = 803;
},
{
segmentType = curve;
smooth = 1;
x = 975;
y = 803;
},
{
segmentType = line;
smooth = 0;
x = 356;
y = 803;
},
{
segmentType = line;
smooth = 0;
x = 356;
y = 1285;
},
{
segmentType = line;
smooth = 1;
x = 1007;
y = 1285;
},
{
smooth = 0;
x = 1056;
y = 1285;
},
{
smooth = 0;
x = 1080;
y = 1319;
},
{
segmentType = curve;
smooth = 1;
x = 1080;
y = 1356;
},
{
smooth = 0;
x = 1080;
y = 1392;
},
{
smooth = 0;
x = 1056;
y = 1426;
},
{
segmentType = curve;
smooth = 1;
x = 1007;
y = 1426;
},
{
segmentType = line;
smooth = 1;
x = 261;
y = 1426;
},
{
smooth = 0;
x = 213;
y = 1426;
},
{
smooth = 0;
x = 178;
y = 1383;
},
{
segmentType = curve;
smooth = 1;
x = 178;
y = 1340;
},
{
segmentType = line;
smooth = 1;
x = 178;
y = 86;
},
{
smooth = 0;
x = 178;
y = 41;
},
{
smooth = 0;
x = 222;
y = 0;
}
);
}
);
lib = {
};
name = Z;
unicodes = (
);
width = 1165;
};
};
components = (
);
contours = (
);
lib = {
};
name = Z;
unicodes = (
);
width = 1222;
};
},
{
color = 4;
glyphname = a;
lastChange = "2019-07-24 09:48:12 +0000";
layers = (
{
anchors = (
{
name = bottom;
position = "{262, 0}";
},
{
name = ogonek;
position = "{431, 0}";
},
{
name = top;
position = "{265, 484}";
}
);
background = {
anchors = (
{
name = bottom;
position = "{262, 0}";
},
{
name = ogonek;
position = "{431, 0}";
},
{
name = top;
position = "{265, 484}";
}
);
paths = (
{
closed = 1;
nodes = (
"316 -7 OFFCURVE",
"380 42 OFFCURVE",
"401 122 CURVE",
"390 122 LINE",
"390 0 LINE",
"431 0 LINE",
"431 319 LINE SMOOTH",
"431 440 OFFCURVE",
"379 496 OFFCURVE",
"269 496 CURVE SMOOTH",
"205 496 OFFCURVE",
"135 474 OFFCURVE",
"84 438 CURVE",
"104 401 LINE",
"161 440 OFFCURVE",
"211 455 OFFCURVE",
"271 455 CURVE SMOOTH",
"353 455 OFFCURVE",
"389 413 OFFCURVE",
"389 319 CURVE SMOOTH",
"389 202 LINE SMOOTH",
"389 104 OFFCURVE",
"325 34 OFFCURVE",
"234 34 CURVE SMOOTH",
"158 34 OFFCURVE",
"110 78 OFFCURVE",
"110 140 CURVE SMOOTH",
"110 217 OFFCURVE",
"163 238 OFFCURVE",
"361 238 CURVE SMOOTH",
"400 238 LINE",
"400 277 LINE",
"359 277 LINE SMOOTH",
"133 277 OFFCURVE",
"64 243 OFFCURVE",
"64 136 CURVE SMOOTH",
"64 56 OFFCURVE",
"137 -7 OFFCURVE",
"231 -7 CURVE SMOOTH"
);
}
);
};
layerId = "F1F93986-3ED8-4AAE-84C4-CA3EEECDDFA0";
paths = (
{
closed = 1;
nodes = (
"316 -7 OFFCURVE",
"380 42 OFFCURVE",
"401 122 CURVE",
"390 122 LINE",
"390 0 LINE",
"431 0 LINE",
"431 319 LINE SMOOTH",
"431 440 OFFCURVE",
"379 496 OFFCURVE",
"269 496 CURVE SMOOTH",
"205 496 OFFCURVE",
"135 474 OFFCURVE",
"84 438 CURVE",
"104 401 LINE",
"161 440 OFFCURVE",
"211 455 OFFCURVE",
"271 455 CURVE SMOOTH",
"353 455 OFFCURVE",
"389 413 OFFCURVE",
"389 319 CURVE SMOOTH",
"389 202 LINE SMOOTH",
"389 104 OFFCURVE",
"325 34 OFFCURVE",
"234 34 CURVE SMOOTH",
"158 34 OFFCURVE",
"110 78 OFFCURVE",
"110 140 CURVE SMOOTH",
"110 217 OFFCURVE",
"163 238 OFFCURVE",
"361 238 CURVE SMOOTH",
"400 238 LINE",
"400 277 LINE",
"359 277 LINE SMOOTH",
"133 277 OFFCURVE",
"64 243 OFFCURVE",
"64 136 CURVE SMOOTH",
"64 56 OFFCURVE",
"137 -7 OFFCURVE",
"231 -7 CURVE SMOOTH"
);
}
);
width = 514;
},
{
anchors = (
{
name = bottom;
position = "{286, 0}";
},
{
name = ogonek;
position = "{463, 0}";
},
{
name = top;
position = "{295, 484}";
}
);
background = {
paths = (
{
closed = 1;
nodes = (
"327 -7 OFFCURVE",
"393 43 OFFCURVE",
"415 124 CURVE",
"404 124 LINE",
"404 0 LINE",
"447 0 LINE",
"447 324 LINE SMOOTH",
"447 447 OFFCURVE",
"392 504 OFFCURVE",
"278 504 CURVE SMOOTH",
"211 504 OFFCURVE",
"138 482 OFFCURVE",
"85 445 CURVE",
"106 408 LINE",
"165 447 OFFCURVE",
"217 462 OFFCURVE",
"280 462 CURVE SMOOTH",
"365 462 OFFCURVE",
"403 420 OFFCURVE",
"403 324 CURVE SMOOTH",
"403 205 LINE SMOOTH",
"403 106 OFFCURVE",
"336 35 OFFCURVE",
"241 35 CURVE SMOOTH",
"162 35 OFFCURVE",
"111 79 OFFCURVE",
"111 142 CURVE SMOOTH",
"111 221 OFFCURVE",
"167 240 OFFCURVE",
"373 240 CURVE SMOOTH",
"414 240 LINE",
"414 282 LINE",
"371 282 LINE SMOOTH",
"136 282 OFFCURVE",
"64 247 OFFCURVE",
"64 138 CURVE SMOOTH",
"64 57 OFFCURVE",
"140 -7 OFFCURVE",
"238 -7 CURVE SMOOTH"
);
}
);
};
layerId = "B0DFB0A8-5D2F-4351-A1F8-6629D0DA694C";
paths = (
{
closed = 1;
nodes = (
"342 -10 OFFCURVE",
"419 57 OFFCURVE",
"438 102 CURVE",
"443 102 LINE",
"443 0 LINE",
"487 0 LINE",
"487 324 LINE SMOOTH",
"487 447 OFFCURVE",
"419 504 OFFCURVE",
"301 504 CURVE SMOOTH",
"231 504 OFFCURVE",
"156 482 OFFCURVE",
"101 445 CURVE",
"123 405 LINE",
"184 444 OFFCURVE",
"239 459 OFFCURVE",
"303 459 CURVE SMOOTH",
"402 459 OFFCURVE",
"440 409 OFFCURVE",
"440 324 CURVE SMOOTH",
"440 205 LINE SMOOTH",
"440 120 OFFCURVE",
"350 35 OFFCURVE",
"253 35 CURVE SMOOTH",
"171 35 OFFCURVE",
"128 79 OFFCURVE",
"128 142 CURVE SMOOTH",
"128 222 OFFCURVE",
"216 238 OFFCURVE",
"369 238 CURVE SMOOTH",
"452 238 LINE",
"452 281 LINE",
"367 281 LINE SMOOTH",
"183 281 OFFCURVE",
"80 258 OFFCURVE",
"80 138 CURVE SMOOTH",
"80 57 OFFCURVE",
"149 -10 OFFCURVE",
"250 -10 CURVE SMOOTH"
);
}
);
width = 586;
}
);
leftKerningGroup = a;
rightKerningGroup = n;
rightMetricsKey = n;
unicode = 0061;
userData = {
anchors = (
);
b = {
};
com.typemytype.robofont.layerData = {
b = {
anchors = (
);
components = (
);
contours = (
);
lib = {
};
name = a;
unicodes = (
);
width = 1040;
};
};
components = (
);
contours = (
);
lib = {
};
name = a;
unicodes = (
);
width = 1101;
};
},
{
color = 3;
glyphname = ae;
lastChange = "2019-07-24 09:48:34 +0000";
layers = (
{
anchors = (
{
name = bottom;
position = "{416, 0}";
},
{
name = top;
position = "{416, 484}";
}
);
background = {
anchors = (
{
name = bottom;
position = "{416, 0}";
},
{
name = top;
position = "{416, 484}";
}
);
paths = (
{
closed = 1;
nodes = (
"809 238 LINE",
"809 264 LINE SMOOTH",
"809 410 OFFCURVE",
"737 496 OFFCURVE",
"616 496 CURVE SMOOTH",
"520 496 OFFCURVE",
"449 448 OFFCURVE",
"416 362 CURVE",
"436 362 LINE",
"423 449 OFFCURVE",
"372 496 OFFCURVE",
"271 496 CURVE SMOOTH",
"204 496 OFFCURVE",
"135 474 OFFCURVE",
"84 438 CURVE",
"104 401 LINE",
"161 440 OFFCURVE",
"211 455 OFFCURVE",
"273 455 CURVE SMOOTH",
"355 455 OFFCURVE",
"394 413 OFFCURVE",
"394 314 CURVE SMOOTH",
"394 209 LINE SMOOTH",
"394 106 OFFCURVE",
"331 34 OFFCURVE",
"236 34 CURVE SMOOTH",
"158 34 OFFCURVE",
"110 78 OFFCURVE",
"110 140 CURVE SMOOTH",
"110 218 OFFCURVE",
"163 238 OFFCURVE",
"361 238 CURVE SMOOTH",
"404 238 LINE",
"404 276 LINE",
"359 276 LINE SMOOTH",
"136 276 OFFCURVE",
"64 244 OFFCURVE",
"64 136 CURVE SMOOTH",
"64 56 OFFCURVE",
"137 -7 OFFCURVE",
"233 -7 CURVE SMOOTH",
"335 -7 OFFCURVE",
"406 58 OFFCURVE",
"422 161 CURVE",
"404 161 LINE",
"430 51 OFFCURVE",
"508 -7 OFFCURVE",
"624 -7 CURVE SMOOTH",
"692 -7 OFFCURVE",
"761 19 OFFCURVE",
"801 61 CURVE",
"781 97 LINE",
"729 53 OFFCURVE",
"679 34 OFFCURVE",
"620 34 CURVE SMOOTH",
"502 34 OFFCURVE",
"437 110 OFFCURVE",
"437 244 CURVE SMOOTH",
"437 377 OFFCURVE",
"503 457 OFFCURVE",
"612 457 CURVE SMOOTH",
"717 457 OFFCURVE",
"769 385 OFFCURVE",
"769 264 CURVE",
"786 276 LINE",
"428 276 LINE",
"428 238 LINE"
);
}
);
};
layerId = "F1F93986-3ED8-4AAE-84C4-CA3EEECDDFA0";
paths = (
{
closed = 1;
nodes = (
"809 238 LINE",
"809 264 LINE SMOOTH",
"809 410 OFFCURVE",
"737 496 OFFCURVE",
"616 496 CURVE SMOOTH",
"520 496 OFFCURVE",
"449 448 OFFCURVE",
"416 362 CURVE",
"436 362 LINE",
"423 449 OFFCURVE",
"372 496 OFFCURVE",
"271 496 CURVE SMOOTH",
"204 496 OFFCURVE",
"135 474 OFFCURVE",
"84 438 CURVE",
"104 401 LINE",
"161 440 OFFCURVE",
"211 455 OFFCURVE",
"273 455 CURVE SMOOTH",
"355 455 OFFCURVE",
"394 413 OFFCURVE",
"394 314 CURVE SMOOTH",
"394 209 LINE SMOOTH",
"394 106 OFFCURVE",
"331 34 OFFCURVE",
"236 34 CURVE SMOOTH",
"158 34 OFFCURVE",
"110 78 OFFCURVE",
"110 140 CURVE SMOOTH",
"110 218 OFFCURVE",
"163 238 OFFCURVE",
"361 238 CURVE SMOOTH",
"404 238 LINE",
"404 276 LINE",
"359 276 LINE SMOOTH",
"136 276 OFFCURVE",
"64 244 OFFCURVE",
"64 136 CURVE SMOOTH",
"64 56 OFFCURVE",
"137 -7 OFFCURVE",
"233 -7 CURVE SMOOTH",
"335 -7 OFFCURVE",
"406 58 OFFCURVE",
"422 161 CURVE",
"404 161 LINE",
"430 51 OFFCURVE",
"508 -7 OFFCURVE",
"624 -7 CURVE SMOOTH",
"692 -7 OFFCURVE",
"761 19 OFFCURVE",
"801 61 CURVE",
"781 97 LINE",
"729 53 OFFCURVE",
"679 34 OFFCURVE",
"620 34 CURVE SMOOTH",
"502 34 OFFCURVE",
"437 110 OFFCURVE",
"437 244 CURVE SMOOTH",
"437 377 OFFCURVE",
"503 457 OFFCURVE",
"612 457 CURVE SMOOTH",
"717 457 OFFCURVE",
"769 385 OFFCURVE",
"769 264 CURVE",
"786 276 LINE",
"428 276 LINE",
"428 238 LINE"
);
}
);
width = 857;
},
{
anchors = (
{
name = bottom;
position = "{432, 0}";
},
{
name = top;
position = "{432, 484}";
}
);
background = {
anchors = (
{
name = bottom;
position = "{432, 0}";
},
{
name = top;
position = "{432, 484}";
}
);
paths = (
{
closed = 1;
nodes = (
"825 238 LINE",
"825 264 LINE SMOOTH",
"825 410 OFFCURVE",
"753 496 OFFCURVE",
"632 496 CURVE SMOOTH",
"536 496 OFFCURVE",
"465 448 OFFCURVE",
"432 362 CURVE",
"452 362 LINE",
"439 449 OFFCURVE",
"388 496 OFFCURVE",
"287 496 CURVE SMOOTH",
"220 496 OFFCURVE",
"151 474 OFFCURVE",
"100 438 CURVE",
"120 401 LINE",
"177 440 OFFCURVE",
"227 455 OFFCURVE",
"289 455 CURVE SMOOTH",
"371 455 OFFCURVE",
"410 413 OFFCURVE",
"410 314 CURVE SMOOTH",
"410 209 LINE SMOOTH",
"410 106 OFFCURVE",
"347 34 OFFCURVE",
"252 34 CURVE SMOOTH",
"174 34 OFFCURVE",
"126 78 OFFCURVE",
"126 140 CURVE SMOOTH",
"126 218 OFFCURVE",
"179 238 OFFCURVE",
"377 238 CURVE SMOOTH",
"420 238 LINE",
"420 276 LINE",
"375 276 LINE SMOOTH",
"152 276 OFFCURVE",
"80 244 OFFCURVE",
"80 136 CURVE SMOOTH",
"80 56 OFFCURVE",
"153 -7 OFFCURVE",
"249 -7 CURVE SMOOTH",
"351 -7 OFFCURVE",
"422 58 OFFCURVE",
"438 161 CURVE",
"420 161 LINE",
"446 51 OFFCURVE",
"524 -7 OFFCURVE",
"640 -7 CURVE SMOOTH",
"708 -7 OFFCURVE",
"777 19 OFFCURVE",
"817 61 CURVE",
"797 97 LINE",
"745 53 OFFCURVE",
"695 34 OFFCURVE",
"636 34 CURVE SMOOTH",
"518 34 OFFCURVE",
"453 110 OFFCURVE",
"453 244 CURVE SMOOTH",
"453 377 OFFCURVE",
"519 457 OFFCURVE",
"628 457 CURVE SMOOTH",
"733 457 OFFCURVE",
"785 385 OFFCURVE",
"785 264 CURVE",
"802 276 LINE",
"444 276 LINE",
"444 238 LINE"
);
}
);
};
layerId = "B0DFB0A8-5D2F-4351-A1F8-6629D0DA694C";
paths = (
{
closed = 1;
nodes = (
"825 238 LINE",
"825 264 LINE SMOOTH",
"825 410 OFFCURVE",
"753 496 OFFCURVE",
"632 496 CURVE SMOOTH",
"536 496 OFFCURVE",
"465 448 OFFCURVE",
"432 362 CURVE",
"452 362 LINE",
"439 449 OFFCURVE",
"388 496 OFFCURVE",
"287 496 CURVE SMOOTH",
"220 496 OFFCURVE",
"151 474 OFFCURVE",
"100 438 CURVE",
"120 401 LINE",
"177 440 OFFCURVE",
"227 455 OFFCURVE",
"289 455 CURVE SMOOTH",
"371 455 OFFCURVE",
"410 413 OFFCURVE",
"410 314 CURVE SMOOTH",
"410 209 LINE SMOOTH",
"410 106 OFFCURVE",
"347 34 OFFCURVE",
"252 34 CURVE SMOOTH",
"174 34 OFFCURVE",
"126 78 OFFCURVE",
"126 140 CURVE SMOOTH",
"126 218 OFFCURVE",
"179 238 OFFCURVE",
"377 238 CURVE SMOOTH",
"420 238 LINE",
"420 276 LINE",
"375 276 LINE SMOOTH",
"152 276 OFFCURVE",
"80 244 OFFCURVE",
"80 136 CURVE SMOOTH",
"80 56 OFFCURVE",
"153 -7 OFFCURVE",
"249 -7 CURVE SMOOTH",
"351 -7 OFFCURVE",
"422 58 OFFCURVE",
"438 161 CURVE",
"420 161 LINE",
"446 51 OFFCURVE",
"524 -7 OFFCURVE",
"640 -7 CURVE SMOOTH",
"708 -7 OFFCURVE",
"777 19 OFFCURVE",
"817 61 CURVE",
"797 97 LINE",
"745 53 OFFCURVE",
"695 34 OFFCURVE",
"636 34 CURVE SMOOTH",
"518 34 OFFCURVE",
"453 110 OFFCURVE",
"453 244 CURVE SMOOTH",
"453 377 OFFCURVE",
"519 457 OFFCURVE",
"628 457 CURVE SMOOTH",
"733 457 OFFCURVE",
"785 385 OFFCURVE",
"785 264 CURVE",
"802 276 LINE",
"444 276 LINE",
"444 238 LINE"
);
}
);
width = 889;
}
);
leftKerningGroup = a;
leftMetricsKey = a;
rightKerningGroup = e;
rightMetricsKey = e;
unicode = 00E6;
userData = {
com.typemytype.robofont.layerData = {
b = {
anchors = (
);
components = (
);
contours = (
);
lib = {
};
name = ae;
unicodes = (
);
width = 1734;
};
};
};
},
{
color = 3;
glyphname = a.ss01;
lastChange = "2019-07-24 09:48:34 +0000";
layers = (
{
anchors = (
{
name = bottom;
position = "{279, 0}";
},
{
name = ogonek;
position = "{481, 0}";
},
{
name = top;
position = "{279, 484}";
}
);
background = {
anchors = (
{
name = bottom;
position = "{279, 0}";
},
{
name = ogonek;
position = "{481, 0}";
},
{
name = top;
position = "{279, 484}";
}
);
paths = (
{
closed = 1;
nodes = (
"363 -7 OFFCURVE",
"428 42 OFFCURVE",
"450 131 CURVE",
"439 131 LINE",
"439 0 LINE",
"481 0 LINE",
"481 484 LINE",
"439 484 LINE",
"439 360 LINE",
"450 360 LINE",
"428 447 OFFCURVE",
"363 496 OFFCURVE",
"269 496 CURVE SMOOTH",
"139 496 OFFCURVE",
"53 395 OFFCURVE",
"53 243 CURVE SMOOTH",
"53 92 OFFCURVE",
"138 -7 OFFCURVE",
"269 -7 CURVE SMOOTH"
);
},
{
closed = 1;
nodes = (
"161 34 OFFCURVE",
"98 111 OFFCURVE",
"98 243 CURVE SMOOTH",
"98 376 OFFCURVE",
"162 455 OFFCURVE",
"269 455 CURVE SMOOTH",
"378 455 OFFCURVE",
"439 380 OFFCURVE",
"439 245 CURVE SMOOTH",
"439 111 OFFCURVE",
"378 34 OFFCURVE",
"270 34 CURVE SMOOTH"
);
}
);
};
layerId = "F1F93986-3ED8-4AAE-84C4-CA3EEECDDFA0";
paths = (
{
closed = 1;
nodes = (
"363 -7 OFFCURVE",
"428 42 OFFCURVE",
"450 131 CURVE",
"439 131 LINE",
"439 0 LINE",
"481 0 LINE",
"481 484 LINE",
"439 484 LINE",
"439 360 LINE",
"450 360 LINE",
"428 447 OFFCURVE",
"363 496 OFFCURVE",
"269 496 CURVE SMOOTH",
"139 496 OFFCURVE",
"53 395 OFFCURVE",
"53 243 CURVE SMOOTH",
"53 92 OFFCURVE",
"138 -7 OFFCURVE",
"269 -7 CURVE SMOOTH"
);
},
{
closed = 1;
nodes = (
"161 34 OFFCURVE",
"98 111 OFFCURVE",
"98 243 CURVE SMOOTH",
"98 376 OFFCURVE",
"162 455 OFFCURVE",
"269 455 CURVE SMOOTH",
"378 455 OFFCURVE",
"439 380 OFFCURVE",
"439 245 CURVE SMOOTH",
"439 111 OFFCURVE",
"378 34 OFFCURVE",
"270 34 CURVE SMOOTH"
);
}
);
width = 566;
},
{
anchors = (
{
name = bottom;
position = "{295, 0}";
},
{
name = ogonek;
position = "{497, 0}";
},
{
name = top;
position = "{295, 484}";
}
);
background = {
anchors = (
{
name = bottom;
position = "{295, 0}";
},
{
name = ogonek;
position = "{497, 0}";
},
{
name = top;
position = "{295, 484}";
}
);
paths = (
{
closed = 1;
nodes = (
"379 -7 OFFCURVE",
"444 42 OFFCURVE",
"466 131 CURVE",
"455 131 LINE",
"455 0 LINE",
"497 0 LINE",
"497 484 LINE",
"455 484 LINE",
"455 360 LINE",
"466 360 LINE",
"444 447 OFFCURVE",
"379 496 OFFCURVE",
"285 496 CURVE SMOOTH",
"155 496 OFFCURVE",
"69 395 OFFCURVE",
"69 243 CURVE SMOOTH",
"69 92 OFFCURVE",
"154 -7 OFFCURVE",
"285 -7 CURVE SMOOTH"
);
},
{
closed = 1;
nodes = (
"177 34 OFFCURVE",
"114 111 OFFCURVE",
"114 243 CURVE SMOOTH",
"114 376 OFFCURVE",
"178 455 OFFCURVE",
"285 455 CURVE SMOOTH",
"394 455 OFFCURVE",
"455 380 OFFCURVE",
"455 245 CURVE SMOOTH",
"455 111 OFFCURVE",
"394 34 OFFCURVE",
"286 34 CURVE SMOOTH"
);
}
);
};
layerId = "B0DFB0A8-5D2F-4351-A1F8-6629D0DA694C";
paths = (
{
closed = 1;
nodes = (
"379 -7 OFFCURVE",
"444 42 OFFCURVE",
"466 131 CURVE",
"455 131 LINE",
"455 0 LINE",
"497 0 LINE",
"497 484 LINE",
"455 484 LINE",
"455 360 LINE",
"466 360 LINE",
"444 447 OFFCURVE",
"379 496 OFFCURVE",
"285 496 CURVE SMOOTH",
"155 496 OFFCURVE",
"69 395 OFFCURVE",
"69 243 CURVE SMOOTH",
"69 92 OFFCURVE",
"154 -7 OFFCURVE",
"285 -7 CURVE SMOOTH"
);
},
{
closed = 1;
nodes = (
"177 34 OFFCURVE",
"114 111 OFFCURVE",
"114 243 CURVE SMOOTH",
"114 376 OFFCURVE",
"178 455 OFFCURVE",
"285 455 CURVE SMOOTH",
"394 455 OFFCURVE",
"455 380 OFFCURVE",
"455 245 CURVE SMOOTH",
"455 111 OFFCURVE",
"394 34 OFFCURVE",
"286 34 CURVE SMOOTH"
);
}
);
width = 598;
}
);
leftKerningGroup = o;
leftMetricsKey = o;
rightKerningGroup = u;
rightMetricsKey = "=|n";
userData = {
anchors = (
);
b = {
};
com.typemytype.robofont.layerData = {
b = {
anchors = (
);
components = (
);
contours = (
);
lib = {
};
name = p;
unicodes = (
);
width = 1181;
};
};
components = (
);
contours = (
);
lib = {
};
name = p;
unicodes = (
);
width = 1207;
};
},
{
color = 4;
glyphname = b;
lastChange = "2019-07-24 09:48:12 +0000";
layers = (
{
anchors = (
{
name = bottom;
position = "{308, 0}";
},
{
name = top;
position = "{365, 484}";
}
);
background = {
anchors = (
{
name = bottom;
position = "{308, 0}";
},
{
name = top;
position = "{365, 484}";
}
);
paths = (
{
closed = 1;
nodes = (
"204 496 OFFCURVE",
"139 448 OFFCURVE",
"116 361 CURVE",
"127 361 LINE",
"127 705 LINE",
"85 705 LINE",
"85 0 LINE",
"127 0 LINE",
"127 128 LINE",
"116 128 LINE",
"140 41 OFFCURVE",
"204 -7 OFFCURVE",
"297 -7 CURVE SMOOTH",
"426 -7 OFFCURVE",
"513 94 OFFCURVE",
"513 247 CURVE SMOOTH",
"513 398 OFFCURVE",
"427 496 OFFCURVE",
"297 496 CURVE SMOOTH"
);
},
{
closed = 1;
nodes = (
"187 34 OFFCURVE",
"127 111 OFFCURVE",
"127 245 CURVE SMOOTH",
"127 378 OFFCURVE",
"187 455 OFFCURVE",
"296 455 CURVE SMOOTH",
"405 455 OFFCURVE",
"468 379 OFFCURVE",
"468 247 CURVE SMOOTH",
"468 113 OFFCURVE",
"405 34 OFFCURVE",
"298 34 CURVE SMOOTH"
);
}
);
};
layerId = "F1F93986-3ED8-4AAE-84C4-CA3EEECDDFA0";
paths = (
{
closed = 1;
nodes = (
"204 496 OFFCURVE",
"139 448 OFFCURVE",
"116 361 CURVE",
"127 361 LINE",
"127 705 LINE",
"85 705 LINE",
"85 0 LINE",
"127 0 LINE",
"127 128 LINE",
"116 128 LINE",
"140 41 OFFCURVE",
"204 -7 OFFCURVE",
"297 -7 CURVE SMOOTH",
"426 -7 OFFCURVE",
"513 94 OFFCURVE",
"513 247 CURVE SMOOTH",
"513 398 OFFCURVE",
"427 496 OFFCURVE",
"297 496 CURVE SMOOTH"
);
},
{
closed = 1;
nodes = (
"187 34 OFFCURVE",
"127 111 OFFCURVE",
"127 245 CURVE SMOOTH",
"127 378 OFFCURVE",
"187 455 OFFCURVE",
"296 455 CURVE SMOOTH",
"405 455 OFFCURVE",
"468 379 OFFCURVE",
"468 247 CURVE SMOOTH",
"468 113 OFFCURVE",
"405 34 OFFCURVE",
"298 34 CURVE SMOOTH"
);
}
);
width = 566;
},
{
anchors = (
{
name = bottom;
position = "{334, 0}";
},
{
name = top;
position = "{322, 484}";
}
);
background = {
paths = (
{
closed = 1;
nodes = (
"210 504 OFFCURVE",
"142 455 OFFCURVE",
"118 367 CURVE",
"130 367 LINE",
"130 705 LINE",
"86 705 LINE",
"86 0 LINE",
"130 0 LINE",
"130 130 LINE",
"118 130 LINE",
"143 42 OFFCURVE",
"210 -7 OFFCURVE",
"307 -7 CURVE SMOOTH",
"441 -7 OFFCURVE",
"532 96 OFFCURVE",
"532 251 CURVE SMOOTH",
"532 404 OFFCURVE",
"442 504 OFFCURVE",
"307 504 CURVE SMOOTH"
);
},
{
closed = 1;
nodes = (
"192 35 OFFCURVE",
"130 113 OFFCURVE",
"130 249 CURVE SMOOTH",
"130 384 OFFCURVE",
"192 462 OFFCURVE",
"306 462 CURVE SMOOTH",
"419 462 OFFCURVE",
"485 385 OFFCURVE",
"485 251 CURVE SMOOTH",
"485 115 OFFCURVE",
"419 35 OFFCURVE",
"308 35 CURVE SMOOTH"
);
}
);
};
layerId = "B0DFB0A8-5D2F-4351-A1F8-6629D0DA694C";
paths = (
{
closed = 1;
nodes = (
"243 504 OFFCURVE",
"182 451 OFFCURVE",
"152 398 CURVE",
"147 398 LINE",
"147 705 LINE",
"101 705 LINE",
"101 0 LINE",
"146 0 LINE",
"146 102 LINE",
"151 102 LINE",
"181 42 OFFCURVE",
"244 -10 OFFCURVE",
"341 -10 CURVE SMOOTH",
"479 -10 OFFCURVE",
"573 96 OFFCURVE",
"573 251 CURVE SMOOTH",
"573 404 OFFCURVE",
"480 504 OFFCURVE",
"341 504 CURVE SMOOTH"
);
},
{
closed = 1;
nodes = (
"222 35 OFFCURVE",
"147 112 OFFCURVE",
"147 249 CURVE SMOOTH",
"147 389 OFFCURVE",
"222 459 OFFCURVE",
"340 459 CURVE SMOOTH",
"456 459 OFFCURVE",
"525 385 OFFCURVE",
"525 251 CURVE SMOOTH",
"525 115 OFFCURVE",
"456 35 OFFCURVE",
"342 35 CURVE SMOOTH"
);
}
);
width = 642;
}
);
leftKerningGroup = h;
leftMetricsKey = n;
rightKerningGroup = o;
rightMetricsKey = o;
unicode = 0062;
userData = {
anchors = (
);
b = {
};
com.typemytype.robofont.layerData = {
b = {
anchors = (
);
components = (
);
contours = (
{
points = (
{
segmentType = curve;
smooth = 1;
x = 238;
y = 1425;
},
{
smooth = 0;
x = 198;
y = 1425;
},
{
smooth = 0;
x = 158;
y = 1400;
},
{
segmentType = curve;
smooth = 1;
x = 158;
y = 1351;
},
{
segmentType = line;
smooth = 1;
x = 158;
y = 76;
},
{
smooth = 0;
x = 158;
y = 27;
},
{
smooth = 0;
x = 197;
y = 3;
},
{
segmentType = curve;
smooth = 1;
x = 237;
y = 3;
},
{
smooth = 0;
x = 297;
y = 3;
},
{
smooth = 0;
x = 318;
y = 38;
},
{
segmentType = curve;
smooth = 1;
x = 318;
y = 76;
},
{
segmentType = line;
smooth = 0;
x = 318;
y = 183;
},
{
smooth = 0;
x = 384;
y = 46;
},
{
smooth = 0;
x = 516;
y = "-20";
},
{
segmentType = curve;
smooth = 1;
x = 666;
y = "-20";
},
{
smooth = 0;
x = 957;
y = "-20";
},
{
smooth = 0;
x = 1095;
y = 225;
},
{
segmentType = curve;
smooth = 1;
x = 1095;
y = 502;
},
{
smooth = 0;
x = 1095;
y = 777;
},
{
smooth = 0;
x = 939;
y = 1013;
},
{
segmentType = curve;
smooth = 1;
x = 650;
y = 1013;
},
{
smooth = 0;
x = 503;
y = 1013;
},
{
smooth = 0;
x = 376;
y = 942;
},
{
segmentType = curve;
smooth = 0;
x = 318;
y = 814;
},
{
segmentType = line;
smooth = 1;
x = 318;
y = 1351;
},
{
smooth = 0;
x = 318;
y = 1400;
},
{
smooth = 0;
x = 278;
y = 1425;
}
);
},
{
points = (
{
segmentType = curve;
smooth = 1;
x = 632;
y = 903;
},
{
smooth = 0;
x = 859;
y = 903;
},
{
smooth = 0;
x = 935;
y = 685;
},
{
segmentType = curve;
smooth = 1;
x = 935;
y = 496;
},
{
smooth = 0;
x = 935;
y = 316;
},
{
smooth = 0;
x = 869;
y = 93;
},
{
segmentType = curve;
smooth = 0;
x = 645;
y = 90;
},
{
smooth = 0;
x = 395;
y = 90;
},
{
smooth = 0;
x = 319;
y = 279;
},
{
segmentType = curve;
smooth = 1;
x = 319;
y = 501;
},
{
smooth = 0;
x = 319;
y = 701;
},
{
smooth = 0;
x = 407;
y = 903;
}
);
}
);
lib = {
};
name = b;
unicodes = (
);
width = 1181;
};
};
components = (
);
contours = (
);
lib = {
};
name = b;
unicodes = (
);
width = 1203;
};
},
{
color = 3;
glyphname = c;
lastChange = "2019-07-24 09:48:34 +0000";
layers = (
{
anchors = (
{
name = bottom;
position = "{273, 0}";
},
{
name = top;
position = "{273, 484}";
}
);
background = {
anchors = (
{
name = bottom;
position = "{273, 0}";
},
{
name = top;
position = "{273, 484}";
}
);
paths = (
{
closed = 1;
nodes = (
"338 -7 OFFCURVE",
"402 18 OFFCURVE",
"441 59 CURVE",
"421 94 LINE",
"374 51 OFFCURVE",
"327 34 OFFCURVE",
"276 34 CURVE SMOOTH",
"165 34 OFFCURVE",
"98 111 OFFCURVE",
"98 242 CURVE SMOOTH",
"98 375 OFFCURVE",
"166 455 OFFCURVE",
"277 455 CURVE SMOOTH",
"327 455 OFFCURVE",
"375 439 OFFCURVE",
"421 395 CURVE",
"441 431 LINE",
"404 471 OFFCURVE",
"341 496 OFFCURVE",
"276 496 CURVE SMOOTH",
"140 496 OFFCURVE",
"53 394 OFFCURVE",
"53 243 CURVE SMOOTH",
"53 93 OFFCURVE",
"140 -7 OFFCURVE",
"275 -7 CURVE SMOOTH"
);
}
);
};
layerId = "F1F93986-3ED8-4AAE-84C4-CA3EEECDDFA0";
paths = (
{
closed = 1;
nodes = (
"338 -7 OFFCURVE",
"402 18 OFFCURVE",
"441 59 CURVE",
"421 94 LINE",
"374 51 OFFCURVE",
"327 34 OFFCURVE",
"276 34 CURVE SMOOTH",
"165 34 OFFCURVE",
"98 111 OFFCURVE",
"98 242 CURVE SMOOTH",
"98 375 OFFCURVE",
"166 455 OFFCURVE",
"277 455 CURVE SMOOTH",
"327 455 OFFCURVE",
"375 439 OFFCURVE",
"421 395 CURVE",
"441 431 LINE",
"404 471 OFFCURVE",
"341 496 OFFCURVE",
"276 496 CURVE SMOOTH",
"140 496 OFFCURVE",
"53 394 OFFCURVE",
"53 243 CURVE SMOOTH",
"53 93 OFFCURVE",
"140 -7 OFFCURVE",
"275 -7 CURVE SMOOTH"
);
}
);
width = 471;
},
{
anchors = (
{
name = bottom;
position = "{289, 0}";
},
{
name = top;
position = "{289, 484}";
}
);
background = {
anchors = (
{
name = bottom;
position = "{289, 0}";
},
{
name = top;
position = "{289, 484}";
}
);
paths = (
{
closed = 1;
nodes = (
"354 -7 OFFCURVE",
"418 18 OFFCURVE",
"457 59 CURVE",
"437 94 LINE",
"390 51 OFFCURVE",
"343 34 OFFCURVE",
"292 34 CURVE SMOOTH",
"181 34 OFFCURVE",
"114 111 OFFCURVE",
"114 242 CURVE SMOOTH",
"114 375 OFFCURVE",
"182 455 OFFCURVE",
"293 455 CURVE SMOOTH",
"343 455 OFFCURVE",
"391 439 OFFCURVE",
"437 395 CURVE",
"457 431 LINE",
"420 471 OFFCURVE",
"357 496 OFFCURVE",
"292 496 CURVE SMOOTH",
"156 496 OFFCURVE",
"69 394 OFFCURVE",
"69 243 CURVE SMOOTH",
"69 93 OFFCURVE",
"156 -7 OFFCURVE",
"291 -7 CURVE SMOOTH"
);
}
);
};
layerId = "B0DFB0A8-5D2F-4351-A1F8-6629D0DA694C";
paths = (
{
closed = 1;
nodes = (
"354 -7 OFFCURVE",
"418 18 OFFCURVE",
"457 59 CURVE",
"437 94 LINE",
"390 51 OFFCURVE",
"343 34 OFFCURVE",
"292 34 CURVE SMOOTH",
"181 34 OFFCURVE",
"114 111 OFFCURVE",
"114 242 CURVE SMOOTH",
"114 375 OFFCURVE",
"182 455 OFFCURVE",
"293 455 CURVE SMOOTH",
"343 455 OFFCURVE",
"391 439 OFFCURVE",
"437 395 CURVE",
"457 431 LINE",
"420 471 OFFCURVE",
"357 496 OFFCURVE",
"292 496 CURVE SMOOTH",
"156 496 OFFCURVE",
"69 394 OFFCURVE",
"69 243 CURVE SMOOTH",
"69 93 OFFCURVE",
"156 -7 OFFCURVE",
"291 -7 CURVE SMOOTH"
);
}
);
width = 487;
}
);
leftKerningGroup = o;
leftMetricsKey = o;
rightKerningGroup = c;
unicode = 0063;
userData = {
anchors = (
);
b = {
};
com.typemytype.robofont.layerData = {
b = {
anchors = (
);
components = (
);
contours = (
);
lib = {
};
name = c;
unicodes = (
);
width = 956.14099;
};
};
components = (
);
contours = (
);
lib = {
};
name = c;
unicodes = (
);
width = 992;
};
},
{
color = 3;
glyphname = d;
lastChange = "2019-07-24 09:48:34 +0000";
layers = (
{
anchors = (
{
name = bottom;
position = "{286, 0}";
},
{
name = center;
position = "{286, 245}";
},
{
name = stroke;
position = "{409, 580}";
},
{
name = top;
position = "{286, 484}";
},
{
name = topright;
position = "{522, 705}";
}
);
background = {
anchors = (
{
name = bottom;
position = "{286, 0}";
},
{
name = center;
position = "{286, 245}";
},
{
name = stroke;
position = "{409, 580}";
},
{
name = top;
position = "{286, 484}";
},
{
name = topright;
position = "{522, 705}";
}
);
paths = (
{
closed = 1;
nodes = (
"439 361 LINE",
"450 361 LINE",
"427 448 OFFCURVE",
"362 496 OFFCURVE",
"269 496 CURVE SMOOTH",
"139 496 OFFCURVE",
"53 398 OFFCURVE",
"53 247 CURVE SMOOTH",
"53 94 OFFCURVE",
"140 -7 OFFCURVE",
"269 -7 CURVE SMOOTH",
"361 -7 OFFCURVE",
"426 41 OFFCURVE",
"450 128 CURVE",
"439 128 LINE",
"439 0 LINE",
"481 0 LINE",
"481 705 LINE",
"439 705 LINE"
);
},
{
closed = 1;
nodes = (
"162 34 OFFCURVE",
"98 113 OFFCURVE",
"98 247 CURVE SMOOTH",
"98 379 OFFCURVE",
"162 455 OFFCURVE",
"270 455 CURVE SMOOTH",
"378 455 OFFCURVE",
"439 378 OFFCURVE",
"439 245 CURVE SMOOTH",
"439 111 OFFCURVE",
"378 34 OFFCURVE",
"269 34 CURVE SMOOTH"
);
}
);
};
layerId = "F1F93986-3ED8-4AAE-84C4-CA3EEECDDFA0";
paths = (
{
closed = 1;
nodes = (
"439 361 LINE",
"450 361 LINE",
"427 448 OFFCURVE",
"362 496 OFFCURVE",
"269 496 CURVE SMOOTH",
"139 496 OFFCURVE",
"53 398 OFFCURVE",
"53 247 CURVE SMOOTH",
"53 94 OFFCURVE",
"140 -7 OFFCURVE",
"269 -7 CURVE SMOOTH",
"361 -7 OFFCURVE",
"426 41 OFFCURVE",
"450 128 CURVE",
"439 128 LINE",
"439 0 LINE",
"481 0 LINE",
"481 705 LINE",
"439 705 LINE"
);
},
{
closed = 1;
nodes = (
"162 34 OFFCURVE",
"98 113 OFFCURVE",
"98 247 CURVE SMOOTH",
"98 379 OFFCURVE",
"162 455 OFFCURVE",
"270 455 CURVE SMOOTH",
"378 455 OFFCURVE",
"439 378 OFFCURVE",
"439 245 CURVE SMOOTH",
"439 111 OFFCURVE",
"378 34 OFFCURVE",
"269 34 CURVE SMOOTH"
);
}
);
width = 566;
},
{
anchors = (
{
name = bottom;
position = "{302, 0}";
},
{
name = center;
position = "{302, 245}";
},
{
name = stroke;
position = "{425, 580}";
},
{
name = top;
position = "{302, 484}";
},
{
name = topright;
position = "{538, 705}";
}
);
background = {
anchors = (
{
name = bottom;
position = "{302, 0}";
},
{
name = center;
position = "{302, 245}";
},
{
name = stroke;
position = "{425, 580}";
},
{
name = top;
position = "{302, 484}";
},
{
name = topright;
position = "{538, 705}";
}
);
paths = (
{
closed = 1;
nodes = (
"455 361 LINE",
"466 361 LINE",
"443 448 OFFCURVE",
"378 496 OFFCURVE",
"285 496 CURVE SMOOTH",
"155 496 OFFCURVE",
"69 398 OFFCURVE",
"69 247 CURVE SMOOTH",
"69 94 OFFCURVE",
"156 -7 OFFCURVE",
"285 -7 CURVE SMOOTH",
"377 -7 OFFCURVE",
"442 41 OFFCURVE",
"466 128 CURVE",
"455 128 LINE",
"455 0 LINE",
"497 0 LINE",
"497 705 LINE",
"455 705 LINE"
);
},
{
closed = 1;
nodes = (
"178 34 OFFCURVE",
"114 113 OFFCURVE",
"114 247 CURVE SMOOTH",
"114 379 OFFCURVE",
"178 455 OFFCURVE",
"286 455 CURVE SMOOTH",
"394 455 OFFCURVE",
"455 378 OFFCURVE",
"455 245 CURVE SMOOTH",
"455 111 OFFCURVE",
"394 34 OFFCURVE",
"285 34 CURVE SMOOTH"
);
}
);
};
layerId = "B0DFB0A8-5D2F-4351-A1F8-6629D0DA694C";
paths = (
{
closed = 1;
nodes = (
"455 361 LINE",
"466 361 LINE",
"443 448 OFFCURVE",
"378 496 OFFCURVE",
"285 496 CURVE SMOOTH",
"155 496 OFFCURVE",
"69 398 OFFCURVE",
"69 247 CURVE SMOOTH",
"69 94 OFFCURVE",
"156 -7 OFFCURVE",
"285 -7 CURVE SMOOTH",
"377 -7 OFFCURVE",
"442 41 OFFCURVE",
"466 128 CURVE",
"455 128 LINE",
"455 0 LINE",
"497 0 LINE",
"497 705 LINE",
"455 705 LINE"
);
},
{
closed = 1;
nodes = (
"178 34 OFFCURVE",
"114 113 OFFCURVE",
"114 247 CURVE SMOOTH",
"114 379 OFFCURVE",
"178 455 OFFCURVE",
"286 455 CURVE SMOOTH",
"394 455 OFFCURVE",
"455 378 OFFCURVE",
"455 245 CURVE SMOOTH",
"455 111 OFFCURVE",
"394 34 OFFCURVE",
"285 34 CURVE SMOOTH"
);
}
);
width = 598;
}
);
leftKerningGroup = o;
leftMetricsKey = o;
rightKerningGroup = l;
rightMetricsKey = "=|n";
unicode = 0064;
userData = {
anchors = (
);
b = {
};
com.typemytype.robofont.layerData = {
b = {
anchors = (
);
components = (
);
contours = (
);
lib = {
};
name = d;
unicodes = (
);
width = 1181;
};
};
components = (
);
contours = (
);
lib = {
};
name = d;
unicodes = (
);
width = 1207;
};
},
{
color = 3;
glyphname = eth;
lastChange = "2019-07-24 09:48:34 +0000";
layers = (
{
background = {
paths = (
{
closed = 1;
nodes = (
"413 -7 OFFCURVE",
"488 91 OFFCURVE",
"488 282 CURVE SMOOTH",
"488 504 OFFCURVE",
"380 644 OFFCURVE",
"165 710 CURVE",
"153 677 LINE",
"352 618 OFFCURVE",
"448 481 OFFCURVE",
"446 287 CURVE",
"465 287 LINE",
"440 400 OFFCURVE",
"374 455 OFFCURVE",
"272 455 CURVE SMOOTH",
"140 455 OFFCURVE",
"53 364 OFFCURVE",
"53 224 CURVE SMOOTH",
"53 84 OFFCURVE",
"138 -7 OFFCURVE",
"269 -7 CURVE SMOOTH"
);
},
{
closed = 1;
nodes = (
"160 34 OFFCURVE",
"98 102 OFFCURVE",
"98 224 CURVE SMOOTH",
"98 343 OFFCURVE",
"162 414 OFFCURVE",
"269 414 CURVE SMOOTH",
"376 414 OFFCURVE",
"440 343 OFFCURVE",
"440 224 CURVE SMOOTH",
"440 105 OFFCURVE",
"375 34 OFFCURVE",
"268 34 CURVE SMOOTH"
);
},
{
closed = 1;
nodes = (
"436 677 LINE",
"422 710 LINE",
"120 583 LINE",
"134 550 LINE"
);
}
);
};
layerId = "F1F93986-3ED8-4AAE-84C4-CA3EEECDDFA0";
paths = (
{
closed = 1;
nodes = (
"413 -7 OFFCURVE",
"488 91 OFFCURVE",
"488 282 CURVE SMOOTH",
"488 504 OFFCURVE",
"380 644 OFFCURVE",
"165 710 CURVE",
"153 677 LINE",
"352 618 OFFCURVE",
"448 481 OFFCURVE",
"446 287 CURVE",
"465 287 LINE",
"440 400 OFFCURVE",
"374 455 OFFCURVE",
"272 455 CURVE SMOOTH",
"140 455 OFFCURVE",
"53 364 OFFCURVE",
"53 224 CURVE SMOOTH",
"53 84 OFFCURVE",
"138 -7 OFFCURVE",
"269 -7 CURVE SMOOTH"
);
},
{
closed = 1;
nodes = (
"160 34 OFFCURVE",
"98 102 OFFCURVE",
"98 224 CURVE SMOOTH",
"98 343 OFFCURVE",
"162 414 OFFCURVE",
"269 414 CURVE SMOOTH",
"376 414 OFFCURVE",
"440 343 OFFCURVE",
"440 224 CURVE SMOOTH",
"440 105 OFFCURVE",
"375 34 OFFCURVE",
"268 34 CURVE SMOOTH"
);
},
{
closed = 1;
nodes = (
"436 677 LINE",
"422 710 LINE",
"120 583 LINE",
"134 550 LINE"
);
}
);
width = 541;
},
{
background = {
paths = (
{
closed = 1;
nodes = (
"429 -7 OFFCURVE",
"504 91 OFFCURVE",
"504 282 CURVE SMOOTH",
"504 504 OFFCURVE",
"396 644 OFFCURVE",
"181 710 CURVE",
"169 677 LINE",
"368 618 OFFCURVE",
"464 481 OFFCURVE",
"462 287 CURVE",
"481 287 LINE",
"456 400 OFFCURVE",
"390 455 OFFCURVE",
"288 455 CURVE SMOOTH",
"156 455 OFFCURVE",
"69 364 OFFCURVE",
"69 224 CURVE SMOOTH",
"69 84 OFFCURVE",
"154 -7 OFFCURVE",
"285 -7 CURVE SMOOTH"
);
},
{
closed = 1;
nodes = (
"176 34 OFFCURVE",
"114 102 OFFCURVE",
"114 224 CURVE SMOOTH",
"114 343 OFFCURVE",
"178 414 OFFCURVE",
"285 414 CURVE SMOOTH",
"392 414 OFFCURVE",
"456 343 OFFCURVE",
"456 224 CURVE SMOOTH",
"456 105 OFFCURVE",
"391 34 OFFCURVE",
"284 34 CURVE SMOOTH"
);
},
{
closed = 1;
nodes = (
"452 677 LINE",
"438 710 LINE",
"136 583 LINE",
"150 550 LINE"
);
}
);
};
layerId = "B0DFB0A8-5D2F-4351-A1F8-6629D0DA694C";
paths = (
{
closed = 1;
nodes = (
"429 -7 OFFCURVE",
"504 91 OFFCURVE",
"504 282 CURVE SMOOTH",
"504 504 OFFCURVE",
"396 644 OFFCURVE",
"181 710 CURVE",
"169 677 LINE",
"368 618 OFFCURVE",
"464 481 OFFCURVE",
"462 287 CURVE",
"481 287 LINE",
"456 400 OFFCURVE",
"390 455 OFFCURVE",
"288 455 CURVE SMOOTH",
"156 455 OFFCURVE",
"69 364 OFFCURVE",
"69 224 CURVE SMOOTH",
"69 84 OFFCURVE",
"154 -7 OFFCURVE",
"285 -7 CURVE SMOOTH"
);
},
{
closed = 1;
nodes = (
"176 34 OFFCURVE",
"114 102 OFFCURVE",
"114 224 CURVE SMOOTH",
"114 343 OFFCURVE",
"178 414 OFFCURVE",
"285 414 CURVE SMOOTH",
"392 414 OFFCURVE",
"456 343 OFFCURVE",
"456 224 CURVE SMOOTH",
"456 105 OFFCURVE",
"391 34 OFFCURVE",
"284 34 CURVE SMOOTH"
);
},
{
closed = 1;
nodes = (
"452 677 LINE",
"438 710 LINE",
"136 583 LINE",
"150 550 LINE"
);
}
);
width = 557;
}
);
leftKerningGroup = o;
leftMetricsKey = o;
rightKerningGroup = o;
unicode = 00F0;
userData = {
com.typemytype.robofont.layerData = {
b = {
anchors = (
);
components = (
);
contours = (
);
lib = {
};
name = eth;
unicodes = (
);
width = 1230;
};
};
};
},
{
color = 4;
glyphname = e;
lastChange = "2019-07-24 09:48:12 +0000";
layers = (
{
anchors = (
{
name = bottom;
position = "{277, 0}";
},
{
name = ogonek;
position = "{342, 0}";
},
{
name = top;
position = "{277, 484}";
}
);
background = {
anchors = (
{
name = bottom;
position = "{277, 0}";
},
{
name = ogonek;
position = "{342, 0}";
},
{
name = top;
position = "{277, 484}";
}
);
paths = (
{
closed = 1;
nodes = (
"447 97 LINE",
"395 53 OFFCURVE",
"344 34 OFFCURVE",
"284 34 CURVE SMOOTH",
"165 34 OFFCURVE",
"97 110 OFFCURVE",
"97 244 CURVE SMOOTH",
"97 377 OFFCURVE",
"166 457 OFFCURVE",
"276 457 CURVE SMOOTH",
"382 457 OFFCURVE",
"436 383 OFFCURVE",
"436 263 CURVE",
"453 276 LINE",
"80 276 LINE",
"80 238 LINE",
"475 238 LINE",
"475 264 LINE SMOOTH",
"475 409 OFFCURVE",
"402 496 OFFCURVE",
"277 496 CURVE SMOOTH",
"144 496 OFFCURVE",
"53 395 OFFCURVE",
"53 244 CURVE SMOOTH",
"53 87 OFFCURVE",
"142 -7 OFFCURVE",
"286 -7 CURVE SMOOTH",
"355 -7 OFFCURVE",
"426 19 OFFCURVE",
"467 61 CURVE"
);
}
);
};
layerId = "F1F93986-3ED8-4AAE-84C4-CA3EEECDDFA0";
paths = (
{
closed = 1;
nodes = (
"447 97 LINE",
"395 53 OFFCURVE",
"344 34 OFFCURVE",
"284 34 CURVE SMOOTH",
"165 34 OFFCURVE",
"97 110 OFFCURVE",
"97 244 CURVE SMOOTH",
"97 377 OFFCURVE",
"166 457 OFFCURVE",
"276 457 CURVE SMOOTH",
"382 457 OFFCURVE",
"436 383 OFFCURVE",
"436 263 CURVE",
"453 276 LINE",
"80 276 LINE",
"80 238 LINE",
"475 238 LINE",
"475 264 LINE SMOOTH",
"475 409 OFFCURVE",
"402 496 OFFCURVE",
"277 496 CURVE SMOOTH",
"144 496 OFFCURVE",
"53 395 OFFCURVE",
"53 244 CURVE SMOOTH",
"53 87 OFFCURVE",
"142 -7 OFFCURVE",
"286 -7 CURVE SMOOTH",
"355 -7 OFFCURVE",
"426 19 OFFCURVE",
"467 61 CURVE"
);
}
);
width = 523;
},
{
anchors = (
{
name = bottom;
position = "{302, 0}";
},
{
name = ogonek;
position = "{370, 0}";
},
{
name = top;
position = "{302, 484}";
}
);
background = {
anchors = (
{
name = bottom;
position = "{277, 0}";
},
{
name = ogonek;
position = "{342, 0}";
},
{
name = top;
position = "{277, 484}";
}
);
paths = (
{
closed = 1;
nodes = (
"447 97 LINE",
"395 53 OFFCURVE",
"344 34 OFFCURVE",
"284 34 CURVE SMOOTH",
"165 34 OFFCURVE",
"97 110 OFFCURVE",
"97 244 CURVE SMOOTH",
"97 377 OFFCURVE",
"166 457 OFFCURVE",
"276 457 CURVE SMOOTH",
"382 457 OFFCURVE",
"436 383 OFFCURVE",
"436 263 CURVE",
"453 276 LINE",
"80 276 LINE",
"80 238 LINE",
"475 238 LINE",
"475 264 LINE SMOOTH",
"475 409 OFFCURVE",
"402 496 OFFCURVE",
"277 496 CURVE SMOOTH",
"144 496 OFFCURVE",
"53 395 OFFCURVE",
"53 244 CURVE SMOOTH",
"53 87 OFFCURVE",
"142 -7 OFFCURVE",
"286 -7 CURVE SMOOTH",
"355 -7 OFFCURVE",
"426 19 OFFCURVE",
"467 61 CURVE"
);
}
);
};
layerId = "B0DFB0A8-5D2F-4351-A1F8-6629D0DA694C";
paths = (
{
closed = 1;
nodes = (
"493 98 LINE",
"437 53 OFFCURVE",
"381 35 OFFCURVE",
"318 35 CURVE SMOOTH",
"191 35 OFFCURVE",
"116 112 OFFCURVE",
"116 248 CURVE SMOOTH",
"116 383 OFFCURVE",
"192 459 OFFCURVE",
"309 459 CURVE SMOOTH",
"423 459 OFFCURVE",
"479 389 OFFCURVE",
"479 267 CURVE",
"499 281 LINE",
"98 281 LINE",
"98 241 LINE",
"523 241 LINE",
"523 268 LINE SMOOTH",
"523 416 OFFCURVE",
"445 504 OFFCURVE",
"310 504 CURVE SMOOTH",
"167 504 OFFCURVE",
"69 400 OFFCURVE",
"69 248 CURVE SMOOTH",
"69 89 OFFCURVE",
"166 -10 OFFCURVE",
"320 -10 CURVE SMOOTH",
"394 -10 OFFCURVE",
"463 15 OFFCURVE",
"514 60 CURVE"
);
}
);
width = 587;
}
);
leftKerningGroup = o;
leftMetricsKey = o;
rightKerningGroup = e;
unicode = 0065;
userData = {
anchors = (
);
b = {
};
com.typemytype.robofont.layerData = {
b = {
anchors = (
);
components = (
);
contours = (
);
lib = {
};
name = e;
unicodes = (
);
width = 1132;
};
};
components = (
);
contours = (
);
lib = {
};
name = e;
unicodes = (
);
width = 1132;
};
},
{
color = 4;
glyphname = f;
lastChange = "2019-07-24 09:48:12 +0000";
layers = (
{
anchors = (
{
name = bottom;
position = "{126, 0}";
},
{
name = top;
position = "{126, 705}";
}
);
background = {
anchors = (
{
name = bottom;
position = "{126, 0}";
},
{
name = top;
position = "{126, 705}";
}
);
paths = (
{
closed = 1;
nodes = (
"147 611 OFFCURVE",
"186 661 OFFCURVE",
"270 667 CURVE SMOOTH",
"316 670 LINE",
"311 707 LINE",
"280 705 LINE SMOOTH",
"162 698 OFFCURVE",
"105 636 OFFCURVE",
"105 515 CURVE SMOOTH",
"105 473 LINE",
"115 484 LINE",
"8 484 LINE",
"8 448 LINE",
"105 448 LINE",
"105 0 LINE",
"147 0 LINE",
"147 448 LINE",
"293 448 LINE",
"293 484 LINE",
"147 484 LINE",
"147 515 LINE SMOOTH"
);
}
);
};
layerId = "F1F93986-3ED8-4AAE-84C4-CA3EEECDDFA0";
paths = (
{
closed = 1;
nodes = (
"147 610 OFFCURVE",
"189 662 OFFCURVE",
"270 667 CURVE SMOOTH",
"316 670 LINE",
"311 707 LINE",
"280 705 LINE SMOOTH",
"162 697 OFFCURVE",
"105 636 OFFCURVE",
"105 515 CURVE SMOOTH",
"105 473 LINE",
"115 484 LINE",
"8 484 LINE",
"8 448 LINE",
"105 448 LINE",
"105 0 LINE",
"147 0 LINE",
"147 448 LINE",
"293 448 LINE",
"293 484 LINE",
"147 484 LINE",
"147 515 LINE SMOOTH"
);
}
);
width = 306;
},
{
anchors = (
{
name = bottom;
position = "{147, 0}";
},
{
name = top;
position = "{147, 705}";
}
);
background = {
anchors = (
{
name = bottom;
position = "{126, 0}";
},
{
name = top;
position = "{126, 705}";
}
);
paths = (
{
closed = 1;
nodes = (
"147 611 OFFCURVE",
"186 661 OFFCURVE",
"270 667 CURVE SMOOTH",
"316 670 LINE",
"311 707 LINE",
"280 705 LINE SMOOTH",
"162 698 OFFCURVE",
"105 636 OFFCURVE",
"105 515 CURVE SMOOTH",
"105 473 LINE",
"115 484 LINE",
"8 484 LINE",
"8 448 LINE",
"105 448 LINE",
"105 0 LINE",
"147 0 LINE",
"147 448 LINE",
"293 448 LINE",
"293 484 LINE",
"147 484 LINE",
"147 515 LINE SMOOTH"
);
}
);
};
layerId = "B0DFB0A8-5D2F-4351-A1F8-6629D0DA694C";
paths = (
{
closed = 1;
nodes = (
"178 613 OFFCURVE",
"223 655 OFFCURVE",
"315 659 CURVE SMOOTH",
"377 662 LINE",
"372 707 LINE",
"325 705 LINE SMOOTH",
"190 699 OFFCURVE",
"131 631 OFFCURVE",
"131 512 CURVE SMOOTH",
"131 483 LINE",
"142 494 LINE",
"24 494 LINE",
"24 454 LINE",
"131 454 LINE",
"131 0 LINE",
"178 0 LINE",
"178 454 LINE",
"352 454 LINE",
"352 494 LINE",
"178 494 LINE",
"178 512 LINE SMOOTH"
);
}
);
width = 383;
}
);
leftKerningGroup = f;
rightKerningGroup = f;
unicode = 0066;
userData = {
anchors = (
);
b = {
};
com.typemytype.robofont.layerData = {
b = {
anchors = (
);
components = (
);
contours = (
);
lib = {
};
name = f;
unicodes = (
);
width = 696;
};
};
components = (
);
contours = (
);
lib = {
};
name = f;
unicodes = (
);
width = 723;
};
},
{
color = 4;
glyphname = g;
lastChange = "2019-07-24 09:48:12 +0000";
layers = (
{
anchors = (
{
name = top;
position = "{288, 484}";
}
);
background = {
anchors = (
{
name = top;
position = "{288, 484}";
}
);
paths = (
{
closed = 1;
nodes = (
"419 -187 OFFCURVE",
"485 -116 OFFCURVE",
"485 23 CURVE SMOOTH",
"485 484 LINE",
"443 484 LINE",
"443 359 LINE",
"454 359 LINE",
"432 447 OFFCURVE",
"367 496 OFFCURVE",
"271 496 CURVE SMOOTH",
"141 496 OFFCURVE",
"53 399 OFFCURVE",
"53 256 CURVE SMOOTH",
"53 112 OFFCURVE",
"141 15 OFFCURVE",
"271 15 CURVE SMOOTH",
"367 15 OFFCURVE",
"432 64 OFFCURVE",
"454 153 CURVE",
"444 153 LINE",
"444 17 LINE SMOOTH",
"444 -89 OFFCURVE",
"391 -146 OFFCURVE",
"291 -146 CURVE SMOOTH",
"216 -146 OFFCURVE",
"168 -130 OFFCURVE",
"105 -83 CURVE",
"85 -118 LINE",
"141 -164 OFFCURVE",
"210 -187 OFFCURVE",
"290 -187 CURVE SMOOTH"
);
},
{
closed = 1;
nodes = (
"164 56 OFFCURVE",
"98 131 OFFCURVE",
"98 256 CURVE SMOOTH",
"98 380 OFFCURVE",
"164 455 OFFCURVE",
"271 455 CURVE SMOOTH",
"379 455 OFFCURVE",
"443 379 OFFCURVE",
"443 256 CURVE SMOOTH",
"443 132 OFFCURVE",
"379 56 OFFCURVE",
"271 56 CURVE SMOOTH"
);
}
);
};
layerId = "F1F93986-3ED8-4AAE-84C4-CA3EEECDDFA0";
paths = (
{
closed = 1;
nodes = (
"419 -187 OFFCURVE",
"485 -116 OFFCURVE",
"485 23 CURVE SMOOTH",
"485 484 LINE",
"443 484 LINE",
"443 359 LINE",
"454 359 LINE",
"432 447 OFFCURVE",
"367 496 OFFCURVE",
"271 496 CURVE SMOOTH",
"141 496 OFFCURVE",
"53 399 OFFCURVE",
"53 256 CURVE SMOOTH",
"53 112 OFFCURVE",
"141 15 OFFCURVE",
"271 15 CURVE SMOOTH",
"367 15 OFFCURVE",
"432 64 OFFCURVE",
"454 153 CURVE",
"444 153 LINE",
"444 17 LINE SMOOTH",
"444 -89 OFFCURVE",
"391 -146 OFFCURVE",
"291 -146 CURVE SMOOTH",
"216 -146 OFFCURVE",
"168 -130 OFFCURVE",
"105 -83 CURVE",
"85 -118 LINE",
"141 -164 OFFCURVE",
"210 -187 OFFCURVE",
"290 -187 CURVE SMOOTH"
);
},
{
closed = 1;
nodes = (
"164 56 OFFCURVE",
"98 131 OFFCURVE",
"98 256 CURVE SMOOTH",
"98 380 OFFCURVE",
"164 455 OFFCURVE",
"271 455 CURVE SMOOTH",
"379 455 OFFCURVE",
"443 379 OFFCURVE",
"443 256 CURVE SMOOTH",
"443 132 OFFCURVE",
"379 56 OFFCURVE",
"271 56 CURVE SMOOTH"
);
}
);
width = 570;
},
{
anchors = (
{
name = top;
position = "{314, 484}";
}
);
background = {
paths = (
{
closed = 1;
nodes = (
"444 -187 OFFCURVE",
"513 -116 OFFCURVE",
"513 25 CURVE SMOOTH",
"513 494 LINE",
"469 494 LINE",
"469 367 LINE",
"481 367 LINE",
"458 456 OFFCURVE",
"390 504 OFFCURVE",
"290 504 CURVE SMOOTH",
"155 504 OFFCURVE",
"53 407 OFFCURVE",
"53 262 CURVE SMOOTH",
"53 116 OFFCURVE",
"155 17 OFFCURVE",
"290 17 CURVE SMOOTH",
"390 17 OFFCURVE",
"458 67 OFFCURVE",
"481 157 CURVE",
"470 157 LINE",
"470 19 LINE SMOOTH",
"470 -88 OFFCURVE",
"415 -145 OFFCURVE",
"311 -145 CURVE SMOOTH",
"233 -145 OFFCURVE",
"173 -129 OFFCURVE",
"107 -81 CURVE",
"86 -117 LINE",
"145 -164 OFFCURVE",
"227 -187 OFFCURVE",
"310 -187 CURVE SMOOTH"
);
},
{
closed = 1;
nodes = (
"179 60 OFFCURVE",
"100 135 OFFCURVE",
"100 262 CURVE SMOOTH",
"100 388 OFFCURVE",
"179 461 OFFCURVE",
"290 461 CURVE SMOOTH",
"403 461 OFFCURVE",
"469 387 OFFCURVE",
"469 262 CURVE SMOOTH",
"469 136 OFFCURVE",
"403 60 OFFCURVE",
"290 60 CURVE SMOOTH"
);
}
);
};
layerId = "B0DFB0A8-5D2F-4351-A1F8-6629D0DA694C";
paths = (
{
closed = 1;
nodes = (
"463 -187 OFFCURVE",
"545 -116 OFFCURVE",
"545 25 CURVE SMOOTH",
"545 494 LINE",
"499 494 LINE",
"499 400 LINE",
"495 400 LINE",
"465 457 OFFCURVE",
"406 504 OFFCURVE",
"309 504 CURVE SMOOTH",
"170 504 OFFCURVE",
"69 407 OFFCURVE",
"69 262 CURVE SMOOTH",
"69 116 OFFCURVE",
"170 17 OFFCURVE",
"309 17 CURVE SMOOTH",
"410 17 OFFCURVE",
"473 74 OFFCURVE",
"495 126 CURVE",
"501 126 LINE",
"501 19 LINE SMOOTH",
"501 -88 OFFCURVE",
"432 -142 OFFCURVE",
"326 -142 CURVE SMOOTH",
"245 -142 OFFCURVE",
"193 -125 OFFCURVE",
"125 -78 CURVE",
"103 -117 LINE",
"163 -164 OFFCURVE",
"239 -187 OFFCURVE",
"325 -187 CURVE SMOOTH"
);
},
{
closed = 1;
nodes = (
"195 62 OFFCURVE",
"117 135 OFFCURVE",
"117 262 CURVE SMOOTH",
"117 388 OFFCURVE",
"195 459 OFFCURVE",
"309 459 CURVE SMOOTH",
"425 459 OFFCURVE",
"499 387 OFFCURVE",
"499 262 CURVE SMOOTH",
"499 136 OFFCURVE",
"425 62 OFFCURVE",
"309 62 CURVE SMOOTH"
);
}
);
width = 646;
}
);
leftKerningGroup = o;
leftMetricsKey = o;
rightKerningGroup = u;
rightMetricsKey = "=|n";
unicode = 0067;
userData = {
anchors = (
);
b = {
};
com.typemytype.robofont.layerData = {
b = {
anchors = (
);
components = (
);
contours = (
);
lib = {
};
name = g;
unicodes = (
);
width = 1167;
};
};
components = (
);
contours = (
);
lib = {
};
name = g;
unicodes = (
);
width = 1207;
};
},
{
color = 3;
glyphname = h;
lastChange = "2019-07-24 09:48:34 +0000";
layers = (
{
anchors = (
{
name = bottom;
position = "{277, 0}";
},
{
name = center;
position = "{277, 245}";
},
{
name = dot;
position = "{204, 353}";
},
{
name = stroke;
position = "{157, 580}";
},
{
name = top;
position = "{278, 705}";
},
{
name = topright;
position = "{169, 705}";
}
);
background = {
anchors = (
{
name = bottom;
position = "{277, 0}";
},
{
name = center;
position = "{277, 245}";
},
{
name = dot;
position = "{204, 353}";
},
{
name = stroke;
position = "{157, 580}";
},
{
name = top;
position = "{278, 705}";
},
{
name = topright;
position = "{169, 705}";
}
);
paths = (
{
closed = 1;
nodes = (
"209 496 OFFCURVE",
"141 454 OFFCURVE",
"115 370 CURVE",
"127 370 LINE",
"127 705 LINE",
"85 705 LINE",
"85 0 LINE",
"127 0 LINE",
"127 282 LINE SMOOTH",
"127 388 OFFCURVE",
"194 456 OFFCURVE",
"297 456 CURVE SMOOTH",
"389 456 OFFCURVE",
"428 410 OFFCURVE",
"428 308 CURVE SMOOTH",
"428 0 LINE",
"470 0 LINE",
"470 312 LINE SMOOTH",
"470 434 OFFCURVE",
"411 496 OFFCURVE",
"294 496 CURVE SMOOTH"
);
}
);
};
layerId = "F1F93986-3ED8-4AAE-84C4-CA3EEECDDFA0";
paths = (
{
closed = 1;
nodes = (
"209 496 OFFCURVE",
"141 454 OFFCURVE",
"115 370 CURVE",
"127 370 LINE",
"127 705 LINE",
"85 705 LINE",
"85 0 LINE",
"127 0 LINE",
"127 282 LINE SMOOTH",
"127 388 OFFCURVE",
"194 456 OFFCURVE",
"297 456 CURVE SMOOTH",
"389 456 OFFCURVE",
"428 410 OFFCURVE",
"428 308 CURVE SMOOTH",
"428 0 LINE",
"470 0 LINE",
"470 312 LINE SMOOTH",
"470 434 OFFCURVE",
"411 496 OFFCURVE",
"294 496 CURVE SMOOTH"
);
}
);
width = 553;
},
{
anchors = (
{
name = bottom;
position = "{293, 0}";
},
{
name = center;
position = "{293, 245}";
},
{
name = dot;
position = "{220, 353}";
},
{
name = stroke;
position = "{173, 580}";
},
{
name = top;
position = "{294, 705}";
},
{
name = topright;
position = "{185, 705}";
}
);
background = {
anchors = (
{
name = bottom;
position = "{293, 0}";
},
{
name = center;
position = "{293, 245}";
},
{
name = dot;
position = "{220, 353}";
},
{
name = stroke;
position = "{173, 580}";
},
{
name = top;
position = "{294, 705}";
},
{
name = topright;
position = "{185, 705}";
}
);
paths = (
{
closed = 1;
nodes = (
"225 496 OFFCURVE",
"157 454 OFFCURVE",
"131 370 CURVE",
"143 370 LINE",
"143 705 LINE",
"101 705 LINE",
"101 0 LINE",
"143 0 LINE",
"143 282 LINE SMOOTH",
"143 388 OFFCURVE",
"210 456 OFFCURVE",
"313 456 CURVE SMOOTH",
"405 456 OFFCURVE",
"444 410 OFFCURVE",
"444 308 CURVE SMOOTH",
"444 0 LINE",
"486 0 LINE",
"486 312 LINE SMOOTH",
"486 434 OFFCURVE",
"427 496 OFFCURVE",
"310 496 CURVE SMOOTH"
);
}
);
};
layerId = "B0DFB0A8-5D2F-4351-A1F8-6629D0DA694C";
paths = (
{
closed = 1;
nodes = (
"225 496 OFFCURVE",
"157 454 OFFCURVE",
"131 370 CURVE",
"143 370 LINE",
"143 705 LINE",
"101 705 LINE",
"101 0 LINE",
"143 0 LINE",
"143 282 LINE SMOOTH",
"143 388 OFFCURVE",
"210 456 OFFCURVE",
"313 456 CURVE SMOOTH",
"405 456 OFFCURVE",
"444 410 OFFCURVE",
"444 308 CURVE SMOOTH",
"444 0 LINE",
"486 0 LINE",
"486 312 LINE SMOOTH",
"486 434 OFFCURVE",
"427 496 OFFCURVE",
"310 496 CURVE SMOOTH"
);
}
);
width = 585;
}
);
leftKerningGroup = h;
leftMetricsKey = n;
rightKerningGroup = n;
rightMetricsKey = n;
unicode = 0068;
userData = {
anchors = (
);
b = {
};
com.typemytype.robofont.layerData = {
b = {
anchors = (
);
components = (
);
contours = (
);
lib = {
};
name = h;
unicodes = (
);
width = 1148;
};
};
components = (
);
contours = {
};
lib = {
};
name = h;
points = {
};
segmentType = curve;
unicodes = (
);
width = 1195;
x = 137;
y = 113;
};
},
{
color = 4;
glyphname = idotless;
lastChange = "2019-07-24 09:48:12 +0000";
layers = (
{
anchors = (
{
name = bottom;
position = "{106, 0}";
},
{
name = ogonek;
position = "{127, 0}";
},
{
name = top;
position = "{106, 484}";
}
);
background = {
anchors = (
{
name = bottom;
position = "{106, 0}";
},
{
name = ogonek;
position = "{127, 0}";
},
{
name = top;
position = "{106, 484}";
}
);
paths = (
{
closed = 1;
nodes = (
"127 0 LINE",
"127 484 LINE",
"85 484 LINE",
"85 0 LINE"
);
}
);
};
layerId = "F1F93986-3ED8-4AAE-84C4-CA3EEECDDFA0";
paths = (
{
closed = 1;
nodes = (
"127 0 LINE",
"127 484 LINE",
"85 484 LINE",
"85 0 LINE"
);
}
);
width = 212;
},
{
anchors = (
{
name = bottom;
position = "{123, 0}";
},
{
name = ogonek;
position = "{144, 0}";
},
{
name = top;
position = "{123, 484}";
}
);
background = {
anchors = (
{
name = bottom;
position = "{107, 0}";
},
{
name = ogonek;
position = "{128, 0}";
},
{
name = top;
position = "{107, 484}";
}
);
paths = (
{
closed = 1;
nodes = (
"128 0 LINE",
"128 484 LINE",
"86 484 LINE",
"86 0 LINE"
);
}
);
};
layerId = "B0DFB0A8-5D2F-4351-A1F8-6629D0DA694C";
paths = (
{
closed = 1;
nodes = (
"147 0 LINE",
"147 494 LINE",
"101 494 LINE",
"101 0 LINE"
);
}
);
width = 248;
}
);
leftKerningGroup = n;
leftMetricsKey = n;
rightKerningGroup = u;
rightMetricsKey = "=|";
unicode = 0131;
},
{
color = 3;
glyphname = jdotless;
lastChange = "2019-07-23 14:13:44 +0000";
layers = (
{
anchors = (
{
name = bottom;
position = "{109, 0}";
},
{
name = top;
position = "{109, 484}";
}
);
background = {
anchors = (
{
name = bottom;
position = "{109, 0}";
},
{
name = top;
position = "{109, 484}";
}
);
paths = (
{
closed = 1;
nodes = (
"88 484 LINE",
"88 -22 LINE SMOOTH",
"88 -102 OFFCURVE",
"51 -147 OFFCURVE",
"-17 -152 CURVE SMOOTH",
"-58 -155 LINE",
"-55 -193 LINE",
"-12 -190 LINE SMOOTH",
"78 -184 OFFCURVE",
"130 -124 OFFCURVE",
"130 -21 CURVE SMOOTH",
"130 484 LINE"
);
}
);
};
layerId = "F1F93986-3ED8-4AAE-84C4-CA3EEECDDFA0";
paths = (
{
closed = 1;
nodes = (
"88 484 LINE",
"88 -22 LINE SMOOTH",
"88 -102 OFFCURVE",
"51 -147 OFFCURVE",
"-17 -152 CURVE SMOOTH",
"-58 -155 LINE",
"-55 -193 LINE",
"-12 -190 LINE SMOOTH",
"78 -184 OFFCURVE",
"130 -124 OFFCURVE",
"130 -21 CURVE SMOOTH",
"130 484 LINE"
);
}
);
width = 215;
},
{
anchors = (
{
name = bottom;
position = "{109, 0}";
},
{
name = top;
position = "{109, 484}";
}
);
background = {
anchors = (
{
name = bottom;
position = "{109, 0}";
},
{
name = top;
position = "{109, 484}";
}
);
paths = (
{
closed = 1;
nodes = (
"88 484 LINE",
"88 -22 LINE SMOOTH",
"88 -102 OFFCURVE",
"51 -147 OFFCURVE",
"-17 -152 CURVE SMOOTH",
"-58 -155 LINE",
"-55 -193 LINE",
"-12 -190 LINE SMOOTH",
"78 -184 OFFCURVE",
"130 -124 OFFCURVE",
"130 -21 CURVE SMOOTH",
"130 484 LINE"
);
}
);
};
layerId = "B0DFB0A8-5D2F-4351-A1F8-6629D0DA694C";
paths = (
{
closed = 1;
nodes = (
"88 484 LINE",
"88 -22 LINE SMOOTH",
"88 -102 OFFCURVE",
"51 -147 OFFCURVE",
"-17 -152 CURVE SMOOTH",
"-58 -155 LINE",
"-55 -193 LINE",
"-12 -190 LINE SMOOTH",
"78 -184 OFFCURVE",
"130 -124 OFFCURVE",
"130 -21 CURVE SMOOTH",
"130 484 LINE"
);
}
);
width = 215;
}
);
leftKerningGroup = n;
rightKerningGroup = l;
unicode = 0237;
},
{
color = 3;
glyphname = k;
lastChange = "2019-07-23 14:13:44 +0000";
layers = (
{
anchors = (
{
name = bottom;
position = "{234, 0}";
},
{
name = top;
position = "{234, 705}";
}
);
background = {
paths = (
{
closed = 1;
nodes = (
"153 270 LINE",
"153 231 LINE",
"439 484 LINE",
"380 484 LINE",
"127 258 LINE",
"127 705 LINE",
"85 705 LINE",
"85 0 LINE",
"127 0 LINE",
"127 239 LINE",
"408 0 LINE",
"469 0 LINE"
);
}
);
};
layerId = "F1F93986-3ED8-4AAE-84C4-CA3EEECDDFA0";
paths = (
{
closed = 1;
nodes = (
"153 270 LINE",
"153 231 LINE",
"439 484 LINE",
"380 484 LINE",
"129 260 LINE",
"127 260 LINE",
"127 705 LINE",
"85 705 LINE",
"85 0 LINE",
"127 0 LINE",
"127 237 LINE",
"129 237 LINE",
"408 0 LINE",
"469 0 LINE"
);
}
);
width = 468;
},
{
anchors = (
{
name = bottom;
position = "{234, 0}";
},
{
name = top;
position = "{234, 705}";
}
);
background = {
paths = (
{
closed = 1;
nodes = (
"153 270 LINE",
"153 231 LINE",
"439 484 LINE",
"380 484 LINE",
"127 258 LINE",
"127 705 LINE",
"85 705 LINE",
"85 0 LINE",
"127 0 LINE",
"127 239 LINE",
"408 0 LINE",
"469 0 LINE"
);
}
);
};
layerId = "B0DFB0A8-5D2F-4351-A1F8-6629D0DA694C";
paths = (
{
closed = 1;
nodes = (
"153 270 LINE",
"153 231 LINE",
"439 484 LINE",
"380 484 LINE",
"129 260 LINE",
"127 260 LINE",
"127 705 LINE",
"85 705 LINE",
"85 0 LINE",
"127 0 LINE",
"127 237 LINE",
"129 237 LINE",
"408 0 LINE",
"469 0 LINE"
);
}
);
width = 468;
}
);
leftKerningGroup = h;
leftMetricsKey = l;
rightKerningGroup = k;
unicode = 006B;
userData = {
com.typemytype.robofont.layerData = {
b = {
anchors = (
);
components = (
);
contours = (
{
points = (
{
segmentType = line;
smooth = 0;
x = 318;
y = 536;
},
{
segmentType = line;
smooth = 1;
x = 793;
y = 27;
},
{
smooth = 0;
x = 809;
y = 9;
},
{
smooth = 0;
x = 828;
y = 1;
},
{
segmentType = curve;
smooth = 1;
x = 845;
y = 1;
},
{
smooth = 0;
x = 883;
y = 1;
},
{
smooth = 0;
x = 922;
y = 33;
},
{
segmentType = curve;
smooth = 1;
x = 922;
y = 71;
},
{
smooth = 0;
x = 922;
y = 84;
},
{
smooth = 0;
x = 918;
y = 99;
},
{
segmentType = curve;
smooth = 1;
x = 906;
y = 112;
},
{
segmentType = line;
smooth = 0;
x = 492;
y = 554;
},
{
segmentType = line;
smooth = 1;
x = 873;
y = 889;
},
{
smooth = 0;
x = 888;
y = 902;
},
{
smooth = 0;
x = 894;
y = 918;
},
{
segmentType = curve;
smooth = 1;
x = 894;
y = 933;
},
{
smooth = 0;
x = 894;
y = 968;
},
{
smooth = 0;
x = 858;
y = 1002;
},
{
segmentType = curve;
smooth = 1;
x = 821;
y = 1002;
},
{
smooth = 0;
x = 802;
y = 1002;
},
{
smooth = 0;
x = 785;
y = 994;
},
{
segmentType = curve;
smooth = 0;
x = 770;
y = 979;
},
{
segmentType = line;
smooth = 0;
x = 318;
y = 574;
}
);
}
);
lib = {
};
name = k;
unicodes = (
);
width = 984;
};
};
};
},
{
color = 3;
glyphname = kgreenlandic;
lastChange = "2019-07-24 09:48:34 +0000";
layers = (
{
anchors = (
{
name = bottom;
position = "{234, 0}";
},
{
name = top;
position = "{234, 484}";
}
);
background = {
anchors = (
{
name = bottom;
position = "{234, 0}";
},
{
name = top;
position = "{234, 484}";
}
);
paths = (
{
closed = 1;
nodes = (
"153 270 LINE",
"153 231 LINE",
"439 484 LINE",
"380 484 LINE",
"127 258 LINE",
"127 484 LINE",
"85 484 LINE",
"85 0 LINE",
"127 0 LINE",
"127 239 LINE",
"408 0 LINE",
"469 0 LINE"
);
}
);
};
layerId = "F1F93986-3ED8-4AAE-84C4-CA3EEECDDFA0";
paths = (
{
closed = 1;
nodes = (
"153 270 LINE",
"153 231 LINE",
"439 484 LINE",
"380 484 LINE",
"127 258 LINE",
"127 484 LINE",
"85 484 LINE",
"85 0 LINE",
"127 0 LINE",
"127 239 LINE",
"408 0 LINE",
"469 0 LINE"
);
}
);
width = 468;
},
{
anchors = (
{
name = bottom;
position = "{250, 0}";
},
{
name = top;
position = "{250, 484}";
}
);
background = {
anchors = (
{
name = bottom;
position = "{250, 0}";
},
{
name = top;
position = "{250, 484}";
}
);
paths = (
{
closed = 1;
nodes = (
"169 270 LINE",
"169 231 LINE",
"455 484 LINE",
"396 484 LINE",
"143 258 LINE",
"143 484 LINE",
"101 484 LINE",
"101 0 LINE",
"143 0 LINE",
"143 239 LINE",
"424 0 LINE",
"485 0 LINE"
);
}
);
};
layerId = "B0DFB0A8-5D2F-4351-A1F8-6629D0DA694C";
paths = (
{
closed = 1;
nodes = (
"169 270 LINE",
"169 231 LINE",
"455 484 LINE",
"396 484 LINE",
"143 258 LINE",
"143 484 LINE",
"101 484 LINE",
"101 0 LINE",
"143 0 LINE",
"143 239 LINE",
"424 0 LINE",
"485 0 LINE"
);
}
);
width = 484;
}
);
leftKerningGroup = n;
leftMetricsKey = n;
rightKerningGroup = k;
rightMetricsKey = k;
unicode = 0138;
userData = {
com.typemytype.robofont.layerData = {
b = {
anchors = (
);
components = (
);
contours = (
);
lib = {
};
name = kgreenlandic;
unicodes = (
);
width = 1047;
};
};
};
},
{
color = 4;
glyphname = l;
lastChange = "2019-07-23 14:43:07 +0000";
layers = (
{
anchors = (
{
name = bottom;
position = "{106, 0}";
},
{
name = center;
position = "{106, 357}";
},
{
name = dot;
position = "{214, 353}";
},
{
name = top;
position = "{106, 705}";
},
{
name = topright;
position = "{167, 705}";
}
);
background = {
anchors = (
{
name = bottom;
position = "{106, 0}";
},
{
name = center;
position = "{106, 357}";
},
{
name = dot;
position = "{214, 353}";
},
{
name = top;
position = "{106, 705}";
},
{
name = topright;
position = "{167, 705}";
}
);
paths = (
{
closed = 1;
nodes = (
"127 0 LINE",
"127 705 LINE",
"85 705 LINE",
"85 0 LINE"
);
}
);
};
layerId = "F1F93986-3ED8-4AAE-84C4-CA3EEECDDFA0";
paths = (
{
closed = 1;
nodes = (
"127 0 LINE",
"127 705 LINE",
"85 705 LINE",
"85 0 LINE"
);
}
);
width = 212;
},
{
anchors = (
{
name = bottom;
position = "{107, 0}";
},
{
name = center;
position = "{107, 357}";
},
{
name = dot;
position = "{215, 353}";
},
{
name = top;
position = "{107, 705}";
},
{
name = topright;
position = "{168, 705}";
}
);
background = {
anchors = (
{
name = bottom;
position = "{107, 0}";
},
{
name = center;
position = "{107, 357}";
},
{
name = dot;
position = "{215, 353}";
},
{
name = top;
position = "{107, 705}";
},
{
name = topright;
position = "{168, 705}";
}
);
paths = (
{
closed = 1;
nodes = (
"128 0 LINE",
"128 705 LINE",
"86 705 LINE",
"86 0 LINE"
);
}
);
};
layerId = "B0DFB0A8-5D2F-4351-A1F8-6629D0DA694C";
paths = (
{
closed = 1;
nodes = (
"129 0 LINE",
"129 705 LINE",
"85 705 LINE",
"85 0 LINE"
);
}
);
width = 214;
}
);
leftKerningGroup = h;
rightKerningGroup = l;
unicode = 006C;
userData = {
com.typemytype.robofont.layerData = {
b = {
anchors = (
);
components = (
);
contours = (
);
lib = {
};
name = l;
unicodes = (
);
width = 511;
};
};
};
},
{
color = 3;
glyphname = m;
lastChange = "2019-07-24 09:48:12 +0000";
layers = (
{
anchors = (
{
name = bottom;
position = "{420, 0}";
},
{
name = top;
position = "{420, 484}";
}
);
background = {
anchors = (
{
name = bottom;
position = "{420, 0}";
},
{
name = top;
position = "{420, 484}";
}
);
paths = (
{
closed = 1;
nodes = (
"507 496 OFFCURVE",
"439 446 OFFCURVE",
"420 369 CURVE",
"435 369 LINE",
"420 454 OFFCURVE",
"369 496 OFFCURVE",
"281 496 CURVE SMOOTH",
"201 496 OFFCURVE",
"140 453 OFFCURVE",
"117 370 CURVE",
"128 370 LINE",
"128 484 LINE",
"87 484 LINE",
"87 0 LINE",
"129 0 LINE",
"129 282 LINE SMOOTH",
"129 388 OFFCURVE",
"188 456 OFFCURVE",
"282 456 CURVE SMOOTH",
"365 456 OFFCURVE",
"399 410 OFFCURVE",
"399 308 CURVE SMOOTH",
"399 0 LINE",
"441 0 LINE",
"441 282 LINE SMOOTH",
"441 388 OFFCURVE",
"500 456 OFFCURVE",
"594 456 CURVE SMOOTH",
"677 456 OFFCURVE",
"711 410 OFFCURVE",
"711 308 CURVE SMOOTH",
"711 0 LINE",
"753 0 LINE",
"753 312 LINE SMOOTH",
"753 435 OFFCURVE",
"699 496 OFFCURVE",
"593 496 CURVE SMOOTH"
);
}
);
};
layerId = "F1F93986-3ED8-4AAE-84C4-CA3EEECDDFA0";
paths = (
{
closed = 1;
nodes = (
"507 496 OFFCURVE",
"439 446 OFFCURVE",
"420 369 CURVE",
"435 369 LINE",
"420 454 OFFCURVE",
"369 496 OFFCURVE",
"281 496 CURVE SMOOTH",
"201 496 OFFCURVE",
"140 453 OFFCURVE",
"117 370 CURVE",
"128 370 LINE",
"128 484 LINE",
"87 484 LINE",
"87 0 LINE",
"129 0 LINE",
"129 282 LINE SMOOTH",
"129 388 OFFCURVE",
"188 456 OFFCURVE",
"282 456 CURVE SMOOTH",
"365 456 OFFCURVE",
"399 410 OFFCURVE",
"399 308 CURVE SMOOTH",
"399 0 LINE",
"441 0 LINE",
"441 282 LINE SMOOTH",
"441 388 OFFCURVE",
"500 456 OFFCURVE",
"594 456 CURVE SMOOTH",
"677 456 OFFCURVE",
"711 410 OFFCURVE",
"711 308 CURVE SMOOTH",
"711 0 LINE",
"753 0 LINE",
"753 312 LINE SMOOTH",
"753 435 OFFCURVE",
"699 496 OFFCURVE",
"593 496 CURVE SMOOTH"
);
}
);
width = 838;
},
{
anchors = (
{
name = bottom;
position = "{451, 0}";
},
{
name = top;
position = "{462, 484}";
}
);
background = {
paths = (
{
closed = 1;
nodes = (
"525 504 OFFCURVE",
"454 453 OFFCURVE",
"434 375 CURVE",
"450 375 LINE",
"434 461 OFFCURVE",
"381 504 OFFCURVE",
"289 504 CURVE SMOOTH",
"203 504 OFFCURVE",
"151 448 OFFCURVE",
"134 414 CURVE",
"130 414 LINE",
"130 494 LINE",
"87 494 LINE",
"87 0 LINE",
"131 0 LINE",
"131 287 LINE SMOOTH",
"131 404 OFFCURVE",
"192 462 OFFCURVE",
"290 462 CURVE SMOOTH",
"377 462 OFFCURVE",
"412 417 OFFCURVE",
"412 313 CURVE SMOOTH",
"412 0 LINE",
"456 0 LINE",
"456 287 LINE SMOOTH",
"456 394 OFFCURVE",
"517 462 OFFCURVE",
"615 462 CURVE SMOOTH",
"702 462 OFFCURVE",
"737 417 OFFCURVE",
"737 313 CURVE SMOOTH",
"737 0 LINE",
"781 0 LINE",
"781 317 LINE SMOOTH",
"781 442 OFFCURVE",
"725 504 OFFCURVE",
"614 504 CURVE SMOOTH"
);
}
);
};
layerId = "B0DFB0A8-5D2F-4351-A1F8-6629D0DA694C";
paths = (
{
closed = 1;
nodes = (
"556 504 OFFCURVE",
"505 457 OFFCURVE",
"479 401 CURVE",
"474 401 LINE",
"448 466 OFFCURVE",
"403 504 OFFCURVE",
"312 504 CURVE SMOOTH",
"225 504 OFFCURVE",
"172 450 OFFCURVE",
"153 416 CURVE",
"148 416 LINE",
"148 494 LINE",
"103 494 LINE",
"103 0 LINE",
"149 0 LINE",
"149 287 LINE SMOOTH",
"149 404 OFFCURVE",
"211 460 OFFCURVE",
"313 460 CURVE SMOOTH",
"411 460 OFFCURVE",
"439 405 OFFCURVE",
"439 313 CURVE SMOOTH",
"439 0 LINE",
"484 0 LINE",
"484 287 LINE SMOOTH",
"484 385 OFFCURVE",
"548 460 OFFCURVE",
"648 460 CURVE SMOOTH",
"745 460 OFFCURVE",
"774 407 OFFCURVE",
"774 313 CURVE SMOOTH",
"774 0 LINE",
"820 0 LINE",
"820 317 LINE SMOOTH",
"820 442 OFFCURVE",
"761 504 OFFCURVE",
"647 504 CURVE SMOOTH"
);
}
);
width = 921;
}
);
leftKerningGroup = n;
leftMetricsKey = "=n+2";
rightKerningGroup = n;
rightMetricsKey = "=n+2";
unicode = 006D;
userData = {
anchors = (
);
b = {
};
com.typemytype.robofont.layerData = {
b = {
anchors = (
);
components = (
);
contours = (
);
lib = {
};
name = m;
unicodes = (
);
width = 1838;
};
};
components = (
);
contours = (
);
lib = {
};
name = m;
unicodes = (
);
width = 1877;
};
},
{
color = 3;
glyphname = n;
lastChange = "2019-07-24 09:48:12 +0000";
layers = (
{
anchors = (
{
name = bottom;
position = "{277, 0}";
},
{
name = top;
position = "{277, 484}";
}
);
background = {
anchors = (
{
name = bottom;
position = "{277, 0}";
},
{
name = top;
position = "{277, 484}";
}
);
paths = (
{
closed = 1;
nodes = (
"209 496 OFFCURVE",
"139 453 OFFCURVE",
"115 368 CURVE",
"126 368 LINE",
"126 484 LINE",
"85 484 LINE",
"85 0 LINE",
"127 0 LINE",
"127 282 LINE SMOOTH",
"127 388 OFFCURVE",
"194 456 OFFCURVE",
"297 456 CURVE SMOOTH",
"389 456 OFFCURVE",
"428 410 OFFCURVE",
"428 308 CURVE SMOOTH",
"428 0 LINE",
"470 0 LINE",
"470 312 LINE SMOOTH",
"470 434 OFFCURVE",
"411 496 OFFCURVE",
"294 496 CURVE SMOOTH"
);
}
);
};
layerId = "F1F93986-3ED8-4AAE-84C4-CA3EEECDDFA0";
paths = (
{
closed = 1;
nodes = (
"209 496 OFFCURVE",
"139 453 OFFCURVE",
"115 368 CURVE",
"126 368 LINE",
"126 484 LINE",
"85 484 LINE",
"85 0 LINE",
"127 0 LINE",
"127 282 LINE SMOOTH",
"127 388 OFFCURVE",
"194 456 OFFCURVE",
"297 456 CURVE SMOOTH",
"389 456 OFFCURVE",
"428 410 OFFCURVE",
"428 308 CURVE SMOOTH",
"428 0 LINE",
"470 0 LINE",
"470 312 LINE SMOOTH",
"470 434 OFFCURVE",
"411 496 OFFCURVE",
"294 496 CURVE SMOOTH"
);
}
);
width = 553;
},
{
anchors = (
{
name = bottom;
position = "{301, 0}";
},
{
name = top;
position = "{322, 484}";
}
);
background = {
paths = (
{
closed = 1;
nodes = (
"214 504 OFFCURVE",
"141 460 OFFCURVE",
"116 374 CURVE",
"128 374 LINE",
"128 492 LINE",
"85 492 LINE",
"85 0 LINE",
"129 0 LINE",
"129 287 LINE SMOOTH",
"129 394 OFFCURVE",
"199 463 OFFCURVE",
"306 463 CURVE SMOOTH",
"402 463 OFFCURVE",
"442 417 OFFCURVE",
"442 313 CURVE SMOOTH",
"442 0 LINE",
"486 0 LINE",
"486 317 LINE SMOOTH",
"486 441 OFFCURVE",
"425 504 OFFCURVE",
"303 504 CURVE SMOOTH"
);
}
);
};
layerId = "B0DFB0A8-5D2F-4351-A1F8-6629D0DA694C";
paths = (
{
closed = 1;
nodes = (
"245 504 OFFCURVE",
"188 473 OFFCURVE",
"151 411 CURVE",
"146 411 LINE",
"146 494 LINE",
"101 494 LINE",
"101 0 LINE",
"147 0 LINE",
"147 287 LINE SMOOTH",
"147 394 OFFCURVE",
"219 460 OFFCURVE",
"330 460 CURVE SMOOTH",
"438 460 OFFCURVE",
"469 407 OFFCURVE",
"469 313 CURVE SMOOTH",
"469 0 LINE",
"515 0 LINE",
"515 317 LINE SMOOTH",
"515 441 OFFCURVE",
"452 504 OFFCURVE",
"326 504 CURVE SMOOTH"
);
}
);
width = 614;
}
);
leftKerningGroup = n;
rightKerningGroup = n;
unicode = 006E;
userData = {
anchors = (
);
b = {
};
com.typemytype.robofont.layerData = {
b = {
anchors = (
);
components = (
);
contours = (
);
lib = {
};
name = n;
unicodes = (
);
width = 1152;
};
};
components = (
);
contours = {
};
lib = {
};
name = n;
points = {
};
segmentType = curve;
unicodes = (
);
width = 1195;
x = 137;
y = 113;
};
},
{
color = 3;
glyphname = eng;
lastChange = "2019-07-24 09:48:34 +0000";
layers = (
{
background = {
paths = (
{
closed = 1;
nodes = (
"470 312 LINE SMOOTH",
"470 434 OFFCURVE",
"411 496 OFFCURVE",
"294 496 CURVE SMOOTH",
"209 496 OFFCURVE",
"139 453 OFFCURVE",
"115 368 CURVE",
"126 368 LINE",
"126 484 LINE",
"85 484 LINE",
"85 0 LINE",
"127 0 LINE",
"127 282 LINE SMOOTH",
"127 388 OFFCURVE",
"194 456 OFFCURVE",
"297 456 CURVE SMOOTH",
"389 456 OFFCURVE",
"428 410 OFFCURVE",
"428 308 CURVE SMOOTH",
"428 -22 LINE SMOOTH",
"428 -102 OFFCURVE",
"391 -147 OFFCURVE",
"323 -152 CURVE SMOOTH",
"282 -155 LINE",
"285 -193 LINE",
"328 -190 LINE SMOOTH",
"418 -184 OFFCURVE",
"470 -124 OFFCURVE",
"470 -21 CURVE SMOOTH"
);
}
);
};
layerId = "F1F93986-3ED8-4AAE-84C4-CA3EEECDDFA0";
paths = (
{
closed = 1;
nodes = (
"470 312 LINE SMOOTH",
"470 434 OFFCURVE",
"411 496 OFFCURVE",
"294 496 CURVE SMOOTH",
"209 496 OFFCURVE",
"139 453 OFFCURVE",
"115 368 CURVE",
"126 368 LINE",
"126 484 LINE",
"85 484 LINE",
"85 0 LINE",
"127 0 LINE",
"127 282 LINE SMOOTH",
"127 388 OFFCURVE",
"194 456 OFFCURVE",
"297 456 CURVE SMOOTH",
"389 456 OFFCURVE",
"428 410 OFFCURVE",
"428 308 CURVE SMOOTH",
"428 -22 LINE SMOOTH",
"428 -102 OFFCURVE",
"391 -147 OFFCURVE",
"323 -152 CURVE SMOOTH",
"282 -155 LINE",
"285 -193 LINE",
"328 -190 LINE SMOOTH",
"418 -184 OFFCURVE",
"470 -124 OFFCURVE",
"470 -21 CURVE SMOOTH"
);
}
);
width = 553;
},
{
background = {
paths = (
{
closed = 1;
nodes = (
"486 312 LINE SMOOTH",
"486 434 OFFCURVE",
"427 496 OFFCURVE",
"310 496 CURVE SMOOTH",
"225 496 OFFCURVE",
"155 453 OFFCURVE",
"131 368 CURVE",
"142 368 LINE",
"142 484 LINE",
"101 484 LINE",
"101 0 LINE",
"143 0 LINE",
"143 282 LINE SMOOTH",
"143 388 OFFCURVE",
"210 456 OFFCURVE",
"313 456 CURVE SMOOTH",
"405 456 OFFCURVE",
"444 410 OFFCURVE",
"444 308 CURVE SMOOTH",
"444 -22 LINE SMOOTH",
"444 -102 OFFCURVE",
"407 -147 OFFCURVE",
"339 -152 CURVE SMOOTH",
"298 -155 LINE",
"301 -193 LINE",
"344 -190 LINE SMOOTH",
"434 -184 OFFCURVE",
"486 -124 OFFCURVE",
"486 -21 CURVE SMOOTH"
);
}
);
};
layerId = "B0DFB0A8-5D2F-4351-A1F8-6629D0DA694C";
paths = (
{
closed = 1;
nodes = (
"486 312 LINE SMOOTH",
"486 434 OFFCURVE",
"427 496 OFFCURVE",
"310 496 CURVE SMOOTH",
"225 496 OFFCURVE",
"155 453 OFFCURVE",
"131 368 CURVE",
"142 368 LINE",
"142 484 LINE",
"101 484 LINE",
"101 0 LINE",
"143 0 LINE",
"143 282 LINE SMOOTH",
"143 388 OFFCURVE",
"210 456 OFFCURVE",
"313 456 CURVE SMOOTH",
"405 456 OFFCURVE",
"444 410 OFFCURVE",
"444 308 CURVE SMOOTH",
"444 -22 LINE SMOOTH",
"444 -102 OFFCURVE",
"407 -147 OFFCURVE",
"339 -152 CURVE SMOOTH",
"298 -155 LINE",
"301 -193 LINE",
"344 -190 LINE SMOOTH",
"434 -184 OFFCURVE",
"486 -124 OFFCURVE",
"486 -21 CURVE SMOOTH"
);
}
);
width = 614;
}
);
leftKerningGroup = n;
leftMetricsKey = n;
widthMetricsKey = n;
rightKerningGroup = n;
unicode = 014B;
},
{
color = 3;
glyphname = o;
lastChange = "2019-07-24 09:48:12 +0000";
layers = (
{
anchors = (
{
name = bottom;
position = "{269, 0}";
},
{
name = center;
position = "{269, 245}";
},
{
name = ogonek;
position = "{328, 0}";
},
{
name = top;
position = "{269, 484}";
},
{
name = topright;
position = "{315, 484}";
}
);
background = {
anchors = (
{
name = bottom;
position = "{269, 0}";
},
{
name = center;
position = "{269, 245}";
},
{
name = ogonek;
position = "{328, 0}";
},
{
name = top;
position = "{269, 484}";
},
{
name = topright;
position = "{315, 484}";
}
);
paths = (
{
closed = 1;
nodes = (
"399 -7 OFFCURVE",
"485 92 OFFCURVE",
"485 245 CURVE SMOOTH",
"485 397 OFFCURVE",
"399 496 OFFCURVE",
"269 496 CURVE SMOOTH",
"139 496 OFFCURVE",
"53 397 OFFCURVE",
"53 245 CURVE SMOOTH",
"53 92 OFFCURVE",
"139 -7 OFFCURVE",
"269 -7 CURVE SMOOTH"
);
},
{
closed = 1;
nodes = (
"160 34 OFFCURVE",
"98 109 OFFCURVE",
"98 245 CURVE SMOOTH",
"98 377 OFFCURVE",
"162 455 OFFCURVE",
"269 455 CURVE SMOOTH",
"376 455 OFFCURVE",
"440 377 OFFCURVE",
"440 245 CURVE SMOOTH",
"440 109 OFFCURVE",
"378 34 OFFCURVE",
"268 34 CURVE SMOOTH"
);
}
);
};
layerId = "F1F93986-3ED8-4AAE-84C4-CA3EEECDDFA0";
paths = (
{
closed = 1;
nodes = (
"399 -7 OFFCURVE",
"485 92 OFFCURVE",
"485 245 CURVE SMOOTH",
"485 397 OFFCURVE",
"399 496 OFFCURVE",
"269 496 CURVE SMOOTH",
"139 496 OFFCURVE",
"53 397 OFFCURVE",
"53 245 CURVE SMOOTH",
"53 92 OFFCURVE",
"139 -7 OFFCURVE",
"269 -7 CURVE SMOOTH"
);
},
{
closed = 1;
nodes = (
"160 34 OFFCURVE",
"98 109 OFFCURVE",
"98 245 CURVE SMOOTH",
"98 377 OFFCURVE",
"162 455 OFFCURVE",
"269 455 CURVE SMOOTH",
"376 455 OFFCURVE",
"440 377 OFFCURVE",
"440 245 CURVE SMOOTH",
"440 109 OFFCURVE",
"378 34 OFFCURVE",
"268 34 CURVE SMOOTH"
);
}
);
width = 538;
},
{
anchors = (
{
name = bottom;
position = "{309, -10}";
},
{
name = center;
position = "{301, 259}";
},
{
name = ogonek;
position = "{371, 0}";
},
{
name = top;
position = "{309, 484}";
},
{
name = topright;
position = "{357, 484}";
}
);
background = {
anchors = (
{
name = bottom;
position = "{275, 0}";
},
{
name = center;
position = "{275, 245}";
},
{
name = ogonek;
position = "{334, 0}";
},
{
name = top;
position = "{275, 484}";
},
{
name = topright;
position = "{321, 484}";
}
);
paths = (
{
closed = 1;
nodes = (
"405 -7 OFFCURVE",
"491 92 OFFCURVE",
"491 245 CURVE SMOOTH",
"491 397 OFFCURVE",
"405 496 OFFCURVE",
"275 496 CURVE SMOOTH",
"145 496 OFFCURVE",
"59 397 OFFCURVE",
"59 245 CURVE SMOOTH",
"59 92 OFFCURVE",
"145 -7 OFFCURVE",
"275 -7 CURVE SMOOTH"
);
},
{
closed = 1;
nodes = (
"166 34 OFFCURVE",
"104 109 OFFCURVE",
"104 245 CURVE SMOOTH",
"104 377 OFFCURVE",
"168 455 OFFCURVE",
"275 455 CURVE SMOOTH",
"382 455 OFFCURVE",
"446 377 OFFCURVE",
"446 245 CURVE SMOOTH",
"446 109 OFFCURVE",
"384 34 OFFCURVE",
"274 34 CURVE SMOOTH"
);
}
);
};
layerId = "B0DFB0A8-5D2F-4351-A1F8-6629D0DA694C";
paths = (
{
closed = 1;
nodes = (
"448 -10 OFFCURVE",
"547 93 OFFCURVE",
"547 248 CURVE SMOOTH",
"547 402 OFFCURVE",
"447 504 OFFCURVE",
"308 504 CURVE SMOOTH",
"168 504 OFFCURVE",
"69 402 OFFCURVE",
"69 248 CURVE SMOOTH",
"69 93 OFFCURVE",
"169 -10 OFFCURVE",
"308 -10 CURVE SMOOTH"
);
},
{
closed = 1;
nodes = (
"190 35 OFFCURVE",
"117 110 OFFCURVE",
"117 248 CURVE SMOOTH",
"117 382 OFFCURVE",
"194 459 OFFCURVE",
"308 459 CURVE SMOOTH",
"423 459 OFFCURVE",
"499 382 OFFCURVE",
"499 248 CURVE SMOOTH",
"499 110 OFFCURVE",
"425 35 OFFCURVE",
"307 35 CURVE SMOOTH"
);
}
);
width = 616;
}
);
leftKerningGroup = o;
rightKerningGroup = o;
unicode = 006F;
userData = {
anchors = (
);
b = {
};
com.typemytype.robofont.guides = (
);
com.typemytype.robofont.layerData = {
b = {
anchors = (
);
components = (
);
contours = (
);
lib = {
};
name = o;
unicodes = (
);
width = 1144;
};
};
components = (
);
contours = (
);
lib = {
};
name = o;
unicodes = (
);
width = 1199;
};
},
{
color = 3;
glyphname = oe;
lastChange = "2019-07-24 09:48:34 +0000";
layers = (
{
anchors = (
{
name = bottom;
position = "{464, 0}";
},
{
name = top;
position = "{464, 484}";
}
);
background = {
anchors = (
{
name = bottom;
position = "{464, 0}";
},
{
name = top;
position = "{464, 484}";
}
);
paths = (
{
closed = 1;
nodes = (
"373 -7 OFFCURVE",
"446 56 OFFCURVE",
"471 161 CURVE",
"453 161 LINE",
"478 51 OFFCURVE",
"557 -7 OFFCURVE",
"673 -7 CURVE SMOOTH",
"741 -7 OFFCURVE",
"810 19 OFFCURVE",
"850 61 CURVE",
"830 97 LINE",
"778 53 OFFCURVE",
"728 34 OFFCURVE",
"669 34 CURVE SMOOTH",
"551 34 OFFCURVE",
"486 110 OFFCURVE",
"486 244 CURVE SMOOTH",
"486 377 OFFCURVE",
"552 457 OFFCURVE",
"661 457 CURVE SMOOTH",
"765 457 OFFCURVE",
"818 386 OFFCURVE",
"818 266 CURVE",
"835 276 LINE",
"466 276 LINE",
"466 238 LINE",
"858 238 LINE",
"858 264 LINE SMOOTH",
"858 410 OFFCURVE",
"786 496 OFFCURVE",
"665 496 CURVE SMOOTH",
"556 496 OFFCURVE",
"480 433 OFFCURVE",
"454 325 CURVE",
"473 325 LINE",
"448 432 OFFCURVE",
"374 496 OFFCURVE",
"270 496 CURVE SMOOTH",
"139 496 OFFCURVE",
"53 397 OFFCURVE",
"53 245 CURVE SMOOTH",
"53 92 OFFCURVE",
"139 -7 OFFCURVE",
"270 -7 CURVE SMOOTH"
);
},
{
closed = 1;
nodes = (
"160 34 OFFCURVE",
"98 109 OFFCURVE",
"98 245 CURVE SMOOTH",
"98 377 OFFCURVE",
"162 455 OFFCURVE",
"269 455 CURVE SMOOTH",
"377 455 OFFCURVE",
"440 377 OFFCURVE",
"440 245 CURVE SMOOTH",
"440 109 OFFCURVE",
"379 34 OFFCURVE",
"268 34 CURVE SMOOTH"
);
}
);
};
layerId = "F1F93986-3ED8-4AAE-84C4-CA3EEECDDFA0";
paths = (
{
closed = 1;
nodes = (
"373 -7 OFFCURVE",
"446 56 OFFCURVE",
"471 161 CURVE",
"453 161 LINE",
"478 51 OFFCURVE",
"557 -7 OFFCURVE",
"673 -7 CURVE SMOOTH",
"741 -7 OFFCURVE",
"810 19 OFFCURVE",
"850 61 CURVE",
"830 97 LINE",
"778 53 OFFCURVE",
"728 34 OFFCURVE",
"669 34 CURVE SMOOTH",
"551 34 OFFCURVE",
"486 110 OFFCURVE",
"486 244 CURVE SMOOTH",
"486 377 OFFCURVE",
"552 457 OFFCURVE",
"661 457 CURVE SMOOTH",
"765 457 OFFCURVE",
"818 386 OFFCURVE",
"818 266 CURVE",
"835 276 LINE",
"466 276 LINE",
"466 238 LINE",
"858 238 LINE",
"858 264 LINE SMOOTH",
"858 410 OFFCURVE",
"786 496 OFFCURVE",
"665 496 CURVE SMOOTH",
"556 496 OFFCURVE",
"480 433 OFFCURVE",
"454 325 CURVE",
"473 325 LINE",
"448 432 OFFCURVE",
"374 496 OFFCURVE",
"270 496 CURVE SMOOTH",
"139 496 OFFCURVE",
"53 397 OFFCURVE",
"53 245 CURVE SMOOTH",
"53 92 OFFCURVE",
"139 -7 OFFCURVE",
"270 -7 CURVE SMOOTH"
);
},
{
closed = 1;
nodes = (
"160 34 OFFCURVE",
"98 109 OFFCURVE",
"98 245 CURVE SMOOTH",
"98 377 OFFCURVE",
"162 455 OFFCURVE",
"269 455 CURVE SMOOTH",
"377 455 OFFCURVE",
"440 377 OFFCURVE",
"440 245 CURVE SMOOTH",
"440 109 OFFCURVE",
"379 34 OFFCURVE",
"268 34 CURVE SMOOTH"
);
}
);
width = 906;
},
{
anchors = (
{
name = bottom;
position = "{480, 0}";
},
{
name = top;
position = "{480, 484}";
}
);
background = {
anchors = (
{
name = bottom;
position = "{480, 0}";
},
{
name = top;
position = "{480, 484}";
}
);
paths = (
{
closed = 1;
nodes = (
"389 -7 OFFCURVE",
"462 56 OFFCURVE",
"487 161 CURVE",
"469 161 LINE",
"494 51 OFFCURVE",
"573 -7 OFFCURVE",
"689 -7 CURVE SMOOTH",
"757 -7 OFFCURVE",
"826 19 OFFCURVE",
"866 61 CURVE",
"846 97 LINE",
"794 53 OFFCURVE",
"744 34 OFFCURVE",
"685 34 CURVE SMOOTH",
"567 34 OFFCURVE",
"502 110 OFFCURVE",
"502 244 CURVE SMOOTH",
"502 377 OFFCURVE",
"568 457 OFFCURVE",
"677 457 CURVE SMOOTH",
"781 457 OFFCURVE",
"834 386 OFFCURVE",
"834 266 CURVE",
"851 276 LINE",
"482 276 LINE",
"482 238 LINE",
"874 238 LINE",
"874 264 LINE SMOOTH",
"874 410 OFFCURVE",
"802 496 OFFCURVE",
"681 496 CURVE SMOOTH",
"572 496 OFFCURVE",
"496 433 OFFCURVE",
"470 325 CURVE",
"489 325 LINE",
"464 432 OFFCURVE",
"390 496 OFFCURVE",
"286 496 CURVE SMOOTH",
"155 496 OFFCURVE",
"69 397 OFFCURVE",
"69 245 CURVE SMOOTH",
"69 92 OFFCURVE",
"155 -7 OFFCURVE",
"286 -7 CURVE SMOOTH"
);
},
{
closed = 1;
nodes = (
"176 34 OFFCURVE",
"114 109 OFFCURVE",
"114 245 CURVE SMOOTH",
"114 377 OFFCURVE",
"178 455 OFFCURVE",
"285 455 CURVE SMOOTH",
"393 455 OFFCURVE",
"456 377 OFFCURVE",
"456 245 CURVE SMOOTH",
"456 109 OFFCURVE",
"395 34 OFFCURVE",
"284 34 CURVE SMOOTH"
);
}
);
};
layerId = "B0DFB0A8-5D2F-4351-A1F8-6629D0DA694C";
paths = (
{
closed = 1;
nodes = (
"389 -7 OFFCURVE",
"462 56 OFFCURVE",
"487 161 CURVE",
"469 161 LINE",
"494 51 OFFCURVE",
"573 -7 OFFCURVE",
"689 -7 CURVE SMOOTH",
"757 -7 OFFCURVE",
"826 19 OFFCURVE",
"866 61 CURVE",
"846 97 LINE",
"794 53 OFFCURVE",
"744 34 OFFCURVE",
"685 34 CURVE SMOOTH",
"567 34 OFFCURVE",
"502 110 OFFCURVE",
"502 244 CURVE SMOOTH",
"502 377 OFFCURVE",
"568 457 OFFCURVE",
"677 457 CURVE SMOOTH",
"781 457 OFFCURVE",
"834 386 OFFCURVE",
"834 266 CURVE",
"851 276 LINE",
"482 276 LINE",
"482 238 LINE",
"874 238 LINE",
"874 264 LINE SMOOTH",
"874 410 OFFCURVE",
"802 496 OFFCURVE",
"681 496 CURVE SMOOTH",
"572 496 OFFCURVE",
"496 433 OFFCURVE",
"470 325 CURVE",
"489 325 LINE",
"464 432 OFFCURVE",
"390 496 OFFCURVE",
"286 496 CURVE SMOOTH",
"155 496 OFFCURVE",
"69 397 OFFCURVE",
"69 245 CURVE SMOOTH",
"69 92 OFFCURVE",
"155 -7 OFFCURVE",
"286 -7 CURVE SMOOTH"
);
},
{
closed = 1;
nodes = (
"176 34 OFFCURVE",
"114 109 OFFCURVE",
"114 245 CURVE SMOOTH",
"114 377 OFFCURVE",
"178 455 OFFCURVE",
"285 455 CURVE SMOOTH",
"393 455 OFFCURVE",
"456 377 OFFCURVE",
"456 245 CURVE SMOOTH",
"456 109 OFFCURVE",
"395 34 OFFCURVE",
"284 34 CURVE SMOOTH"
);
}
);
width = 938;
}
);
leftKerningGroup = o;
leftMetricsKey = o;
rightKerningGroup = e;
rightMetricsKey = e;
unicode = 0153;
},
{
color = 3;
glyphname = p;
lastChange = "2019-07-24 09:48:34 +0000";
layers = (
{
anchors = (
{
name = bottom;
position = "{281, 0}";
},
{
name = top;
position = "{281, 484}";
}
);
background = {
anchors = (
{
name = bottom;
position = "{281, 0}";
},
{
name = top;
position = "{281, 484}";
}
);
paths = (
{
closed = 1;
nodes = (
"204 496 OFFCURVE",
"140 449 OFFCURVE",
"116 361 CURVE",
"127 361 LINE",
"127 484 LINE",
"85 484 LINE",
"85 -180 LINE",
"127 -180 LINE",
"127 129 LINE",
"116 129 LINE",
"139 41 OFFCURVE",
"204 -7 OFFCURVE",
"297 -7 CURVE SMOOTH",
"426 -7 OFFCURVE",
"513 94 OFFCURVE",
"513 247 CURVE SMOOTH",
"513 398 OFFCURVE",
"427 496 OFFCURVE",
"297 496 CURVE SMOOTH"
);
},
{
closed = 1;
nodes = (
"187 34 OFFCURVE",
"127 111 OFFCURVE",
"127 245 CURVE SMOOTH",
"127 378 OFFCURVE",
"187 455 OFFCURVE",
"296 455 CURVE SMOOTH",
"405 455 OFFCURVE",
"468 379 OFFCURVE",
"468 247 CURVE SMOOTH",
"468 113 OFFCURVE",
"405 34 OFFCURVE",
"298 34 CURVE SMOOTH"
);
}
);
};
layerId = "F1F93986-3ED8-4AAE-84C4-CA3EEECDDFA0";
paths = (
{
closed = 1;
nodes = (
"204 496 OFFCURVE",
"140 449 OFFCURVE",
"116 361 CURVE",
"127 361 LINE",
"127 484 LINE",
"85 484 LINE",
"85 -180 LINE",
"127 -180 LINE",
"127 129 LINE",
"116 129 LINE",
"139 41 OFFCURVE",
"204 -7 OFFCURVE",
"297 -7 CURVE SMOOTH",
"426 -7 OFFCURVE",
"513 94 OFFCURVE",
"513 247 CURVE SMOOTH",
"513 398 OFFCURVE",
"427 496 OFFCURVE",
"297 496 CURVE SMOOTH"
);
},
{
closed = 1;
nodes = (
"187 34 OFFCURVE",
"127 111 OFFCURVE",
"127 245 CURVE SMOOTH",
"127 378 OFFCURVE",
"187 455 OFFCURVE",
"296 455 CURVE SMOOTH",
"405 455 OFFCURVE",
"468 379 OFFCURVE",
"468 247 CURVE SMOOTH",
"468 113 OFFCURVE",
"405 34 OFFCURVE",
"298 34 CURVE SMOOTH"
);
}
);
width = 566;
},
{
anchors = (
{
name = bottom;
position = "{297, 0}";
},
{
name = top;
position = "{297, 484}";
}
);
background = {
anchors = (
{
name = bottom;
position = "{297, 0}";
},
{
name = top;
position = "{297, 484}";
}
);
paths = (
{
closed = 1;
nodes = (
"220 496 OFFCURVE",
"156 449 OFFCURVE",
"132 361 CURVE",
"143 361 LINE",
"143 484 LINE",
"101 484 LINE",
"101 -180 LINE",
"143 -180 LINE",
"143 129 LINE",
"132 129 LINE",
"155 41 OFFCURVE",
"220 -7 OFFCURVE",
"313 -7 CURVE SMOOTH",
"442 -7 OFFCURVE",
"529 94 OFFCURVE",
"529 247 CURVE SMOOTH",
"529 398 OFFCURVE",
"443 496 OFFCURVE",
"313 496 CURVE SMOOTH"
);
},
{
closed = 1;
nodes = (
"203 34 OFFCURVE",
"143 111 OFFCURVE",
"143 245 CURVE SMOOTH",
"143 378 OFFCURVE",
"203 455 OFFCURVE",
"312 455 CURVE SMOOTH",
"421 455 OFFCURVE",
"484 379 OFFCURVE",
"484 247 CURVE SMOOTH",
"484 113 OFFCURVE",
"421 34 OFFCURVE",
"314 34 CURVE SMOOTH"
);
}
);
};
layerId = "B0DFB0A8-5D2F-4351-A1F8-6629D0DA694C";
paths = (
{
closed = 1;
nodes = (
"220 496 OFFCURVE",
"156 449 OFFCURVE",
"132 361 CURVE",
"143 361 LINE",
"143 484 LINE",
"101 484 LINE",
"101 -180 LINE",
"143 -180 LINE",
"143 129 LINE",
"132 129 LINE",
"155 41 OFFCURVE",
"220 -7 OFFCURVE",
"313 -7 CURVE SMOOTH",
"442 -7 OFFCURVE",
"529 94 OFFCURVE",
"529 247 CURVE SMOOTH",
"529 398 OFFCURVE",
"443 496 OFFCURVE",
"313 496 CURVE SMOOTH"
);
},
{
closed = 1;
nodes = (
"203 34 OFFCURVE",
"143 111 OFFCURVE",
"143 245 CURVE SMOOTH",
"143 378 OFFCURVE",
"203 455 OFFCURVE",
"312 455 CURVE SMOOTH",
"421 455 OFFCURVE",
"484 379 OFFCURVE",
"484 247 CURVE SMOOTH",
"484 113 OFFCURVE",
"421 34 OFFCURVE",
"314 34 CURVE SMOOTH"
);
}
);
width = 598;
}
);
leftKerningGroup = n;
leftMetricsKey = n;
rightKerningGroup = o;
rightMetricsKey = o;
unicode = 0070;
userData = {
anchors = (
);
b = {
};
com.typemytype.robofont.layerData = {
b = {
anchors = (
);
components = (
);
contours = (
);
lib = {
};
name = p;
unicodes = (
);
width = 1181;
};
};
components = (
);
contours = (
);
lib = {
};
name = p;
unicodes = (
);
width = 1207;
};
},
{
color = 3;
glyphname = thorn;
lastChange = "2019-07-24 09:48:34 +0000";
layers = (
{
anchors = (
{
name = bottom;
position = "{281, 0}";
},
{
name = top;
position = "{281, 484}";
}
);
background = {
anchors = (
{
name = bottom;
position = "{281, 0}";
},
{
name = top;
position = "{281, 484}";
}
);
paths = (
{
closed = 1;
nodes = (
"204 496 OFFCURVE",
"139 448 OFFCURVE",
"116 361 CURVE",
"127 361 LINE",
"127 705 LINE",
"85 705 LINE",
"85 -180 LINE",
"127 -180 LINE",
"127 129 LINE",
"116 129 LINE",
"139 41 OFFCURVE",
"204 -7 OFFCURVE",
"297 -7 CURVE SMOOTH",
"426 -7 OFFCURVE",
"513 94 OFFCURVE",
"513 247 CURVE SMOOTH",
"513 398 OFFCURVE",
"427 496 OFFCURVE",
"297 496 CURVE SMOOTH"
);
},
{
closed = 1;
nodes = (
"187 34 OFFCURVE",
"127 111 OFFCURVE",
"127 245 CURVE SMOOTH",
"127 378 OFFCURVE",
"187 455 OFFCURVE",
"296 455 CURVE SMOOTH",
"405 455 OFFCURVE",
"468 379 OFFCURVE",
"468 247 CURVE SMOOTH",
"468 113 OFFCURVE",
"405 34 OFFCURVE",
"298 34 CURVE SMOOTH"
);
}
);
};
layerId = "F1F93986-3ED8-4AAE-84C4-CA3EEECDDFA0";
paths = (
{
closed = 1;
nodes = (
"204 496 OFFCURVE",
"139 448 OFFCURVE",
"116 361 CURVE",
"127 361 LINE",
"127 705 LINE",
"85 705 LINE",
"85 -180 LINE",
"127 -180 LINE",
"127 129 LINE",
"116 129 LINE",
"139 41 OFFCURVE",
"204 -7 OFFCURVE",
"297 -7 CURVE SMOOTH",
"426 -7 OFFCURVE",
"513 94 OFFCURVE",
"513 247 CURVE SMOOTH",
"513 398 OFFCURVE",
"427 496 OFFCURVE",
"297 496 CURVE SMOOTH"
);
},
{
closed = 1;
nodes = (
"187 34 OFFCURVE",
"127 111 OFFCURVE",
"127 245 CURVE SMOOTH",
"127 378 OFFCURVE",
"187 455 OFFCURVE",
"296 455 CURVE SMOOTH",
"405 455 OFFCURVE",
"468 379 OFFCURVE",
"468 247 CURVE SMOOTH",
"468 113 OFFCURVE",
"405 34 OFFCURVE",
"298 34 CURVE SMOOTH"
);
}
);
width = 566;
},
{
anchors = (
{
name = bottom;
position = "{297, 0}";
},
{
name = top;
position = "{297, 484}";
}
);
background = {
anchors = (
{
name = bottom;
position = "{297, 0}";
},
{
name = top;
position = "{297, 484}";
}
);
paths = (
{
closed = 1;
nodes = (
"220 496 OFFCURVE",
"155 448 OFFCURVE",
"132 361 CURVE",
"143 361 LINE",
"143 705 LINE",
"101 705 LINE",
"101 -180 LINE",
"143 -180 LINE",
"143 129 LINE",
"132 129 LINE",
"155 41 OFFCURVE",
"220 -7 OFFCURVE",
"313 -7 CURVE SMOOTH",
"442 -7 OFFCURVE",
"529 94 OFFCURVE",
"529 247 CURVE SMOOTH",
"529 398 OFFCURVE",
"443 496 OFFCURVE",
"313 496 CURVE SMOOTH"
);
},
{
closed = 1;
nodes = (
"203 34 OFFCURVE",
"143 111 OFFCURVE",
"143 245 CURVE SMOOTH",
"143 378 OFFCURVE",
"203 455 OFFCURVE",
"312 455 CURVE SMOOTH",
"421 455 OFFCURVE",
"484 379 OFFCURVE",
"484 247 CURVE SMOOTH",
"484 113 OFFCURVE",
"421 34 OFFCURVE",
"314 34 CURVE SMOOTH"
);
}
);
};
layerId = "B0DFB0A8-5D2F-4351-A1F8-6629D0DA694C";
paths = (
{
closed = 1;
nodes = (
"220 496 OFFCURVE",
"155 448 OFFCURVE",
"132 361 CURVE",
"143 361 LINE",
"143 705 LINE",
"101 705 LINE",
"101 -180 LINE",
"143 -180 LINE",
"143 129 LINE",
"132 129 LINE",
"155 41 OFFCURVE",
"220 -7 OFFCURVE",
"313 -7 CURVE SMOOTH",
"442 -7 OFFCURVE",
"529 94 OFFCURVE",
"529 247 CURVE SMOOTH",
"529 398 OFFCURVE",
"443 496 OFFCURVE",
"313 496 CURVE SMOOTH"
);
},
{
closed = 1;
nodes = (
"203 34 OFFCURVE",
"143 111 OFFCURVE",
"143 245 CURVE SMOOTH",
"143 378 OFFCURVE",
"203 455 OFFCURVE",
"312 455 CURVE SMOOTH",
"421 455 OFFCURVE",
"484 379 OFFCURVE",
"484 247 CURVE SMOOTH",
"484 113 OFFCURVE",
"421 34 OFFCURVE",
"314 34 CURVE SMOOTH"
);
}
);
width = 598;
}
);
leftKerningGroup = h;
leftMetricsKey = n;
rightKerningGroup = o;
rightMetricsKey = o;
unicode = 00FE;
},
{
color = 3;
glyphname = q;
lastChange = "2019-07-24 09:48:34 +0000";
layers = (
{
anchors = (
{
name = bottom;
position = "{281, 0}";
},
{
name = top;
position = "{281, 489}";
}
);
background = {
anchors = (
{
name = bottom;
position = "{281, 0}";
},
{
name = top;
position = "{281, 489}";
}
);
paths = (
{
closed = 1;
nodes = (
"440 359 LINE",
"450 359 LINE",
"428 447 OFFCURVE",
"362 496 OFFCURVE",
"269 496 CURVE SMOOTH",
"139 496 OFFCURVE",
"53 398 OFFCURVE",
"53 247 CURVE SMOOTH",
"53 94 OFFCURVE",
"140 -7 OFFCURVE",
"269 -7 CURVE SMOOTH",
"362 -7 OFFCURVE",
"427 41 OFFCURVE",
"450 129 CURVE",
"439 129 LINE",
"439 -180 LINE",
"481 -180 LINE",
"481 484 LINE",
"440 484 LINE"
);
},
{
closed = 1;
nodes = (
"162 34 OFFCURVE",
"98 113 OFFCURVE",
"98 247 CURVE SMOOTH",
"98 379 OFFCURVE",
"162 455 OFFCURVE",
"270 455 CURVE SMOOTH",
"378 455 OFFCURVE",
"439 378 OFFCURVE",
"439 245 CURVE SMOOTH",
"439 111 OFFCURVE",
"378 34 OFFCURVE",
"269 34 CURVE SMOOTH"
);
}
);
};
layerId = "F1F93986-3ED8-4AAE-84C4-CA3EEECDDFA0";
paths = (
{
closed = 1;
nodes = (
"440 359 LINE",
"450 359 LINE",
"428 447 OFFCURVE",
"362 496 OFFCURVE",
"269 496 CURVE SMOOTH",
"139 496 OFFCURVE",
"53 398 OFFCURVE",
"53 247 CURVE SMOOTH",
"53 94 OFFCURVE",
"140 -7 OFFCURVE",
"269 -7 CURVE SMOOTH",
"362 -7 OFFCURVE",
"427 41 OFFCURVE",
"450 129 CURVE",
"439 129 LINE",
"439 -180 LINE",
"481 -180 LINE",
"481 484 LINE",
"440 484 LINE"
);
},
{
closed = 1;
nodes = (
"162 34 OFFCURVE",
"98 113 OFFCURVE",
"98 247 CURVE SMOOTH",
"98 379 OFFCURVE",
"162 455 OFFCURVE",
"270 455 CURVE SMOOTH",
"378 455 OFFCURVE",
"439 378 OFFCURVE",
"439 245 CURVE SMOOTH",
"439 111 OFFCURVE",
"378 34 OFFCURVE",
"269 34 CURVE SMOOTH"
);
}
);
width = 566;
},
{
anchors = (
{
name = bottom;
position = "{297, 0}";
},
{
name = top;
position = "{297, 489}";
}
);
background = {
anchors = (
{
name = bottom;
position = "{297, 0}";
},
{
name = top;
position = "{297, 489}";
}
);
paths = (
{
closed = 1;
nodes = (
"456 359 LINE",
"466 359 LINE",
"444 447 OFFCURVE",
"378 496 OFFCURVE",
"285 496 CURVE SMOOTH",
"155 496 OFFCURVE",
"69 398 OFFCURVE",
"69 247 CURVE SMOOTH",
"69 94 OFFCURVE",
"156 -7 OFFCURVE",
"285 -7 CURVE SMOOTH",
"378 -7 OFFCURVE",
"443 41 OFFCURVE",
"466 129 CURVE",
"455 129 LINE",
"455 -180 LINE",
"497 -180 LINE",
"497 484 LINE",
"456 484 LINE"
);
},
{
closed = 1;
nodes = (
"178 34 OFFCURVE",
"114 113 OFFCURVE",
"114 247 CURVE SMOOTH",
"114 379 OFFCURVE",
"178 455 OFFCURVE",
"286 455 CURVE SMOOTH",
"394 455 OFFCURVE",
"455 378 OFFCURVE",
"455 245 CURVE SMOOTH",
"455 111 OFFCURVE",
"394 34 OFFCURVE",
"285 34 CURVE SMOOTH"
);
}
);
};
layerId = "B0DFB0A8-5D2F-4351-A1F8-6629D0DA694C";
paths = (
{
closed = 1;
nodes = (
"456 359 LINE",
"466 359 LINE",
"444 447 OFFCURVE",
"378 496 OFFCURVE",
"285 496 CURVE SMOOTH",
"155 496 OFFCURVE",
"69 398 OFFCURVE",
"69 247 CURVE SMOOTH",
"69 94 OFFCURVE",
"156 -7 OFFCURVE",
"285 -7 CURVE SMOOTH",
"378 -7 OFFCURVE",
"443 41 OFFCURVE",
"466 129 CURVE",
"455 129 LINE",
"455 -180 LINE",
"497 -180 LINE",
"497 484 LINE",
"456 484 LINE"
);
},
{
closed = 1;
nodes = (
"178 34 OFFCURVE",
"114 113 OFFCURVE",
"114 247 CURVE SMOOTH",
"114 379 OFFCURVE",
"178 455 OFFCURVE",
"286 455 CURVE SMOOTH",
"394 455 OFFCURVE",
"455 378 OFFCURVE",
"455 245 CURVE SMOOTH",
"455 111 OFFCURVE",
"394 34 OFFCURVE",
"285 34 CURVE SMOOTH"
);
}
);
width = 598;
}
);
leftKerningGroup = o;
leftMetricsKey = o;
rightKerningGroup = q;
rightMetricsKey = "=|n";
unicode = 0071;
userData = {
anchors = (
);
b = {
};
com.typemytype.robofont.layerData = {
b = {
anchors = (
);
components = (
);
contours = (
);
lib = {
};
name = p;
unicodes = (
);
width = 1181;
};
};
components = (
);
contours = (
);
lib = {
};
name = p;
unicodes = (
);
width = 1207;
};
},
{
color = 3;
glyphname = r;
lastChange = "2019-07-24 09:48:12 +0000";
layers = (
{
anchors = (
{
name = bottom;
position = "{106, 0}";
},
{
name = top;
position = "{204, 484}";
}
);
background = {
anchors = (
{
name = bottom;
position = "{106, 0}";
},
{
name = top;
position = "{204, 484}";
}
);
paths = (
{
closed = 1;
nodes = (
"127 0 LINE",
"127 290 LINE SMOOTH",
"127 385 OFFCURVE",
"185 445 OFFCURVE",
"284 454 CURVE SMOOTH",
"318 458 LINE",
"313 496 LINE",
"292 494 LINE SMOOTH",
"198 487 OFFCURVE",
"143 450 OFFCURVE",
"116 371 CURVE",
"126 371 LINE",
"126 484 LINE",
"85 484 LINE",
"85 0 LINE"
);
}
);
};
layerId = "F1F93986-3ED8-4AAE-84C4-CA3EEECDDFA0";
paths = (
{
closed = 1;
nodes = (
"127 0 LINE",
"127 290 LINE SMOOTH",
"127 386 OFFCURVE",
"185 446 OFFCURVE",
"284 455 CURVE SMOOTH",
"318 458 LINE",
"313 496 LINE",
"292 494 LINE SMOOTH",
"190 484 OFFCURVE",
"148 450 OFFCURVE",
"116 371 CURVE",
"126 371 LINE",
"126 484 LINE",
"85 484 LINE",
"85 0 LINE"
);
}
);
width = 327;
},
{
anchors = (
{
name = bottom;
position = "{123, 0}";
},
{
name = top;
position = "{225, 484}";
}
);
background = {
paths = (
{
closed = 1;
nodes = (
"129 0 LINE",
"129 295 LINE SMOOTH",
"129 391 OFFCURVE",
"189 448 OFFCURVE",
"292 459 CURVE SMOOTH",
"328 463 LINE",
"323 504 LINE",
"301 502 LINE SMOOTH",
"203 495 OFFCURVE",
"145 457 OFFCURVE",
"117 377 CURVE",
"128 377 LINE",
"128 494 LINE",
"85 494 LINE",
"85 0 LINE"
);
}
);
};
layerId = "B0DFB0A8-5D2F-4351-A1F8-6629D0DA694C";
paths = (
{
closed = 1;
nodes = (
"147 0 LINE",
"147 295 LINE SMOOTH",
"147 390 OFFCURVE",
"212 444 OFFCURVE",
"315 455 CURVE SMOOTH",
"352 459 LINE",
"347 504 LINE",
"324 502 LINE SMOOTH",
"239 495 OFFCURVE",
"198 479 OFFCURVE",
"151 414 CURVE",
"146 414 LINE",
"146 494 LINE",
"101 494 LINE",
"101 0 LINE"
);
}
);
width = 378;
}
);
leftKerningGroup = n;
leftMetricsKey = n;
rightKerningGroup = r;
unicode = 0072;
userData = {
anchors = (
);
b = {
};
com.typemytype.robofont.layerData = {
b = {
anchors = (
);
components = (
);
contours = (
);
lib = {
};
name = r;
unicodes = (
);
width = 715;
};
};
components = (
);
contours = (
);
lib = {
};
name = r;
unicodes = (
);
width = 763;
};
},
{
color = 3;
glyphname = s;
lastChange = "2019-07-24 09:48:12 +0000";
layers = (
{
anchors = (
{
name = bottom;
position = "{236, 0}";
},
{
name = top;
position = "{246, 484}";
}
);
background = {
anchors = (
{
name = bottom;
position = "{236, 0}";
},
{
name = top;
position = "{246, 484}";
}
);
paths = (
{
closed = 1;
nodes = (
"346 -7 OFFCURVE",
"417 45 OFFCURVE",
"417 128 CURVE SMOOTH",
"417 194 OFFCURVE",
"375 232 OFFCURVE",
"288 253 CURVE SMOOTH",
"205 273 LINE SMOOTH",
"143 288 OFFCURVE",
"117 313 OFFCURVE",
"117 359 CURVE SMOOTH",
"117 419 OFFCURVE",
"164 455 OFFCURVE",
"246 455 CURVE SMOOTH",
"300 455 OFFCURVE",
"347 436 OFFCURVE",
"388 396 CURVE",
"408 431 LINE",
"374 472 OFFCURVE",
"315 496 OFFCURVE",
"247 496 CURVE SMOOTH",
"142 496 OFFCURVE",
"73 441 OFFCURVE",
"73 358 CURVE SMOOTH",
"73 293 OFFCURVE",
"111 252 OFFCURVE",
"195 232 CURVE SMOOTH",
"278 212 LINE SMOOTH",
"344 196 OFFCURVE",
"373 172 OFFCURVE",
"373 126 CURVE SMOOTH",
"373 67 OFFCURVE",
"326 34 OFFCURVE",
"239 34 CURVE SMOOTH",
"181 34 OFFCURVE",
"126 50 OFFCURVE",
"77 93 CURVE",
"57 57 LINE",
"98 16 OFFCURVE",
"165 -7 OFFCURVE",
"236 -7 CURVE SMOOTH"
);
}
);
};
layerId = "F1F93986-3ED8-4AAE-84C4-CA3EEECDDFA0";
paths = (
{
closed = 1;
nodes = (
"346 -7 OFFCURVE",
"417 45 OFFCURVE",
"417 128 CURVE SMOOTH",
"417 194 OFFCURVE",
"375 232 OFFCURVE",
"288 253 CURVE SMOOTH",
"205 273 LINE SMOOTH",
"143 288 OFFCURVE",
"117 312 OFFCURVE",
"117 359 CURVE SMOOTH",
"117 419 OFFCURVE",
"164 455 OFFCURVE",
"246 455 CURVE SMOOTH",
"300 455 OFFCURVE",
"347 436 OFFCURVE",
"388 396 CURVE",
"408 431 LINE",
"374 472 OFFCURVE",
"315 496 OFFCURVE",
"247 496 CURVE SMOOTH",
"142 496 OFFCURVE",
"73 441 OFFCURVE",
"73 358 CURVE SMOOTH",
"73 293 OFFCURVE",
"111 252 OFFCURVE",
"195 232 CURVE SMOOTH",
"278 212 LINE SMOOTH",
"344 196 OFFCURVE",
"373 172 OFFCURVE",
"373 126 CURVE SMOOTH",
"373 67 OFFCURVE",
"326 34 OFFCURVE",
"239 34 CURVE SMOOTH",
"181 34 OFFCURVE",
"126 50 OFFCURVE",
"77 93 CURVE",
"57 57 LINE",
"98 16 OFFCURVE",
"165 -7 OFFCURVE",
"236 -7 CURVE SMOOTH"
);
}
);
width = 475;
},
{
anchors = (
{
name = bottom;
position = "{271, 0}";
},
{
name = top;
position = "{291, 484}";
}
);
background = {
anchors = (
{
name = bottom;
position = "{236, 0}";
},
{
name = top;
position = "{246, 484}";
}
);
paths = (
{
closed = 1;
nodes = (
"346 -7 OFFCURVE",
"417 45 OFFCURVE",
"417 128 CURVE SMOOTH",
"417 194 OFFCURVE",
"375 232 OFFCURVE",
"288 253 CURVE SMOOTH",
"205 273 LINE SMOOTH",
"143 288 OFFCURVE",
"117 313 OFFCURVE",
"117 359 CURVE SMOOTH",
"117 419 OFFCURVE",
"164 455 OFFCURVE",
"246 455 CURVE SMOOTH",
"300 455 OFFCURVE",
"347 436 OFFCURVE",
"388 396 CURVE",
"408 431 LINE",
"374 472 OFFCURVE",
"315 496 OFFCURVE",
"247 496 CURVE SMOOTH",
"142 496 OFFCURVE",
"73 441 OFFCURVE",
"73 358 CURVE SMOOTH",
"73 293 OFFCURVE",
"111 252 OFFCURVE",
"195 232 CURVE SMOOTH",
"278 212 LINE SMOOTH",
"344 196 OFFCURVE",
"373 172 OFFCURVE",
"373 126 CURVE SMOOTH",
"373 67 OFFCURVE",
"326 34 OFFCURVE",
"239 34 CURVE SMOOTH",
"181 34 OFFCURVE",
"126 50 OFFCURVE",
"77 93 CURVE",
"57 57 LINE",
"98 16 OFFCURVE",
"165 -7 OFFCURVE",
"236 -7 CURVE SMOOTH"
);
}
);
};
layerId = "B0DFB0A8-5D2F-4351-A1F8-6629D0DA694C";
paths = (
{
closed = 1;
nodes = (
"394 -10 OFFCURVE",
"471 45 OFFCURVE",
"471 129 CURVE SMOOTH",
"471 217 OFFCURVE",
"412 241 OFFCURVE",
"333 257 CURVE SMOOTH",
"233 277 LINE SMOOTH",
"165 291 OFFCURVE",
"136 315 OFFCURVE",
"136 365 CURVE SMOOTH",
"136 426 OFFCURVE",
"199 459 OFFCURVE",
"287 459 CURVE SMOOTH",
"345 459 OFFCURVE",
"395 440 OFFCURVE",
"440 399 CURVE",
"461 438 LINE",
"422 483 OFFCURVE",
"356 504 OFFCURVE",
"288 504 CURVE SMOOTH",
"176 504 OFFCURVE",
"90 448 OFFCURVE",
"90 364 CURVE SMOOTH",
"90 288 OFFCURVE",
"128 254 OFFCURVE",
"221 235 CURVE SMOOTH",
"321 215 LINE SMOOTH",
"381 203 OFFCURVE",
"425 186 OFFCURVE",
"425 127 CURVE SMOOTH",
"425 67 OFFCURVE",
"373 35 OFFCURVE",
"270 35 CURVE SMOOTH",
"207 35 OFFCURVE",
"147 52 OFFCURVE",
"95 96 CURVE",
"73 56 LINE",
"117 14 OFFCURVE",
"190 -10 OFFCURVE",
"267 -10 CURVE SMOOTH"
);
}
);
width = 545;
}
);
leftKerningGroup = s;
rightKerningGroup = s;
unicode = 0073;
userData = {
anchors = (
);
b = {
};
com.typemytype.robofont.layerData = {
b = {
anchors = (
);
components = (
);
contours = (
);
lib = {
};
name = s;
unicodes = (
);
width = 1007;
};
};
components = (
);
contours = (
);
lib = {
};
name = s;
unicodes = (
);
width = 1006.76001;
};
},
{
color = 3;
glyphname = germandbls;
lastChange = "2019-07-23 14:13:44 +0000";
layers = (
{
background = {
paths = (
{
closed = 1;
nodes = (
"127 0 LINE",
"127 496 LINE SMOOTH",
"127 607 OFFCURVE",
"183 668 OFFCURVE",
"285 668 CURVE SMOOTH",
"349 668 OFFCURVE",
"387 639 OFFCURVE",
"387 589 CURVE SMOOTH",
"387 554 OFFCURVE",
"370 523 OFFCURVE",
"322 484 CURVE SMOOTH",
"254 428 OFFCURVE",
"237 401 OFFCURVE",
"237 363 CURVE SMOOTH",
"237 298 OFFCURVE",
"276 262 OFFCURVE",
"385 227 CURVE SMOOTH",
"469 200 OFFCURVE",
"500 173 OFFCURVE",
"500 126 CURVE SMOOTH",
"500 69 OFFCURVE",
"452 34 OFFCURVE",
"374 34 CURVE SMOOTH",
"315 34 OFFCURVE",
"269 52 OFFCURVE",
"221 94 CURVE",
"201 59 LINE",
"235 19 OFFCURVE",
"305 -7 OFFCURVE",
"374 -7 CURVE SMOOTH",
"475 -7 OFFCURVE",
"546 47 OFFCURVE",
"546 124 CURVE SMOOTH",
"546 194 OFFCURVE",
"504 234 OFFCURVE",
"398 268 CURVE SMOOTH",
"313 295 OFFCURVE",
"283 321 OFFCURVE",
"283 366 CURVE SMOOTH",
"283 393 OFFCURVE",
"298 417 OFFCURVE",
"348 456 CURVE SMOOTH",
"408 503 OFFCURVE",
"430 541 OFFCURVE",
"430 587 CURVE SMOOTH",
"430 662 OFFCURVE",
"374 709 OFFCURVE",
"283 709 CURVE SMOOTH",
"159 709 OFFCURVE",
"85 629 OFFCURVE",
"85 495 CURVE SMOOTH",
"85 0 LINE"
);
}
);
};
layerId = "F1F93986-3ED8-4AAE-84C4-CA3EEECDDFA0";
paths = (
{
closed = 1;
nodes = (
"127 0 LINE",
"127 496 LINE SMOOTH",
"127 607 OFFCURVE",
"183 668 OFFCURVE",
"285 668 CURVE SMOOTH",
"349 668 OFFCURVE",
"387 639 OFFCURVE",
"387 589 CURVE SMOOTH",
"387 554 OFFCURVE",
"370 523 OFFCURVE",
"322 484 CURVE SMOOTH",
"254 428 OFFCURVE",
"237 401 OFFCURVE",
"237 363 CURVE SMOOTH",
"237 298 OFFCURVE",
"276 262 OFFCURVE",
"385 227 CURVE SMOOTH",
"469 200 OFFCURVE",
"500 173 OFFCURVE",
"500 126 CURVE SMOOTH",
"500 69 OFFCURVE",
"452 34 OFFCURVE",
"374 34 CURVE SMOOTH",
"315 34 OFFCURVE",
"269 52 OFFCURVE",
"221 94 CURVE",
"201 59 LINE",
"235 19 OFFCURVE",
"305 -7 OFFCURVE",
"374 -7 CURVE SMOOTH",
"475 -7 OFFCURVE",
"546 47 OFFCURVE",
"546 124 CURVE SMOOTH",
"546 194 OFFCURVE",
"504 234 OFFCURVE",
"398 268 CURVE SMOOTH",
"313 295 OFFCURVE",
"283 321 OFFCURVE",
"283 366 CURVE SMOOTH",
"283 393 OFFCURVE",
"298 417 OFFCURVE",
"348 456 CURVE SMOOTH",
"408 503 OFFCURVE",
"430 541 OFFCURVE",
"430 587 CURVE SMOOTH",
"430 662 OFFCURVE",
"374 709 OFFCURVE",
"283 709 CURVE SMOOTH",
"159 709 OFFCURVE",
"85 629 OFFCURVE",
"85 495 CURVE SMOOTH",
"85 0 LINE"
);
}
);
width = 581;
},
{
background = {
paths = (
{
closed = 1;
nodes = (
"127 0 LINE",
"127 496 LINE SMOOTH",
"127 607 OFFCURVE",
"183 668 OFFCURVE",
"285 668 CURVE SMOOTH",
"349 668 OFFCURVE",
"387 639 OFFCURVE",
"387 589 CURVE SMOOTH",
"387 554 OFFCURVE",
"370 523 OFFCURVE",
"322 484 CURVE SMOOTH",
"254 428 OFFCURVE",
"237 401 OFFCURVE",
"237 363 CURVE SMOOTH",
"237 298 OFFCURVE",
"276 262 OFFCURVE",
"385 227 CURVE SMOOTH",
"469 200 OFFCURVE",
"500 173 OFFCURVE",
"500 126 CURVE SMOOTH",
"500 69 OFFCURVE",
"452 34 OFFCURVE",
"374 34 CURVE SMOOTH",
"315 34 OFFCURVE",
"269 52 OFFCURVE",
"221 94 CURVE",
"201 59 LINE",
"235 19 OFFCURVE",
"305 -7 OFFCURVE",
"374 -7 CURVE SMOOTH",
"475 -7 OFFCURVE",
"546 47 OFFCURVE",
"546 124 CURVE SMOOTH",
"546 194 OFFCURVE",
"504 234 OFFCURVE",
"398 268 CURVE SMOOTH",
"313 295 OFFCURVE",
"283 321 OFFCURVE",
"283 366 CURVE SMOOTH",
"283 393 OFFCURVE",
"298 417 OFFCURVE",
"348 456 CURVE SMOOTH",
"408 503 OFFCURVE",
"430 541 OFFCURVE",
"430 587 CURVE SMOOTH",
"430 662 OFFCURVE",
"374 709 OFFCURVE",
"283 709 CURVE SMOOTH",
"159 709 OFFCURVE",
"85 629 OFFCURVE",
"85 495 CURVE SMOOTH",
"85 0 LINE"
);
}
);
};
layerId = "B0DFB0A8-5D2F-4351-A1F8-6629D0DA694C";
paths = (
{
closed = 1;
nodes = (
"127 0 LINE",
"127 496 LINE SMOOTH",
"127 607 OFFCURVE",
"183 668 OFFCURVE",
"285 668 CURVE SMOOTH",
"349 668 OFFCURVE",
"387 639 OFFCURVE",
"387 589 CURVE SMOOTH",
"387 554 OFFCURVE",
"370 523 OFFCURVE",
"322 484 CURVE SMOOTH",
"254 428 OFFCURVE",
"237 401 OFFCURVE",
"237 363 CURVE SMOOTH",
"237 298 OFFCURVE",
"276 262 OFFCURVE",
"385 227 CURVE SMOOTH",
"469 200 OFFCURVE",
"500 173 OFFCURVE",
"500 126 CURVE SMOOTH",
"500 69 OFFCURVE",
"452 34 OFFCURVE",
"374 34 CURVE SMOOTH",
"315 34 OFFCURVE",
"269 52 OFFCURVE",
"221 94 CURVE",
"201 59 LINE",
"235 19 OFFCURVE",
"305 -7 OFFCURVE",
"374 -7 CURVE SMOOTH",
"475 -7 OFFCURVE",
"546 47 OFFCURVE",
"546 124 CURVE SMOOTH",
"546 194 OFFCURVE",
"504 234 OFFCURVE",
"398 268 CURVE SMOOTH",
"313 295 OFFCURVE",
"283 321 OFFCURVE",
"283 366 CURVE SMOOTH",
"283 393 OFFCURVE",
"298 417 OFFCURVE",
"348 456 CURVE SMOOTH",
"408 503 OFFCURVE",
"430 541 OFFCURVE",
"430 587 CURVE SMOOTH",
"430 662 OFFCURVE",
"374 709 OFFCURVE",
"283 709 CURVE SMOOTH",
"159 709 OFFCURVE",
"85 629 OFFCURVE",
"85 495 CURVE SMOOTH",
"85 0 LINE"
);
}
);
width = 581;
}
);
leftKerningGroup = h;
leftMetricsKey = l;
rightKerningGroup = germandbls;
unicode = 00DF;
},
